<?xml version="1.0" encoding="utf-8"?>
<!-- Generator: Adobe Illustrator 21.0.0, SVG Export Plug-In . SVG Version: 6.00 Build 0)  -->
<svg version="1.1" id="d9dd7ae9-3663-4dd9-8d82-bda1eddf83b1"
	 xmlns="http://www.w3.org/2000/svg" xmlns:xlink="http://www.w3.org/1999/xlink" x="0px" y="0px" viewBox="0 0 419.5 297.6"
	 style="enable-background:new 0 0 419.5 297.6;" xml:space="preserve">
<style type="text/css">
	.st0{clip-path:url(#SVGID_2_);}
	.st1{fill:none;stroke:#231F20;stroke-width:1.5;stroke-linecap:round;stroke-linejoin:round;}
</style>
<title>Illustrations</title>
<g>
	<defs>
		<rect id="SVGID_1_" width="419.5" height="297.6"/>
	</defs>
	<clipPath id="SVGID_2_">
		<use xlink:href="#SVGID_1_"  style="overflow:visible;"/>
	</clipPath>
	<g class="st0">
		<path class="st1" d="M260.3,253c30.4-13,65.5,1.2,78.5,31.6c10.3,24.2,3.6,52.3-16.5,69.3"/>
		<path class="st1" d="M246.1,354.5c-25.7-20.8-29.6-58.5-8.8-84.2c3.3-4.1,7.1-7.7,11.4-10.8"/>
		
			<ellipse transform="matrix(0.8845 -0.4665 0.4665 0.8845 -17.6465 72.6254)" class="st1" cx="137.9" cy="72" rx="10.4" ry="10.4"/>
		<path class="st1" d="M177.3,353.8c-17.2-13.2-20.5-37.8-7.4-55.1c13.2-17.2,37.8-20.5,55.1-7.4s20.5,37.8,7.4,55.1
			c-1.8,2.4-3.9,4.6-6.3,6.5"/>
		<path class="st1" d="M135,57.8c-5.3-10.1-17.9-14-28-8.7c-0.7,0.4-1.3,0.8-2,1.2c-9.5-15.1-29.4-19.6-44.5-10.1
			c-1.9,1.2-3.7,2.6-5.4,4.2c-12.7-6.7-28.5-1.9-35.3,10.9S18,83.9,30.7,90.6c7.6,4,16.8,4,24.4,0l0,0c12.7,12.5,33.2,12.2,45.6-0.5
			c1.6-1.6,3-3.4,4.2-5.4c9.5,6.4,22.4,3.9,28.9-5.7C138.1,72.7,138.5,64.6,135,57.8z"/>
		<path class="st1" d="M123.1,261.3c76.5,1.3,151.6,20.5,219.3,56.1"/>
		<path class="st1" d="M-62.4,293.6c52.8-20.2,108.7-31.1,165.2-32.3"/>
		<path class="st1" d="M-8.8,262.8c29.1-7.4,58.9-12.1,88.8-14"/>
		<path class="st1" d="M-8.8,297.3c29.1-7.4,58.9-12.1,88.8-14"/>
		<polygon class="st1" points="80,149.6 101,136.4 122.1,162.3 122.1,199.5 80,199.5 		"/>
		<polyline class="st1" points="80,235.1 80,149.6 -19.8,170.5 -19.8,286 -2,286 -2,280.5 8.2,280.5 8.2,286 25.1,286 25.1,279.3 
			40.9,279.3 40.9,231 		"/>
		<line class="st1" x1="80" y1="262.3" x2="80" y2="248.8"/>
		<polyline class="st1" points="201.6,283.3 80,283.3 80,262.3 		"/>
		<polyline class="st1" points="122.1,199.5 260.3,214.5 260.3,283.3 		"/>
		<polyline class="st1" points="240.4,238.4 240.4,130.1 165.1,142.2 165.1,186.3 		"/>
		<line class="st1" x1="251.7" y1="134.1" x2="251.7" y2="48.5"/>
		<polyline class="st1" points="233.7,52.7 215.8,52.7 215.8,134.1 251.7,134.1 		"/>
		<line class="st1" x1="189.8" y1="107.4" x2="189.8" y2="137.7"/>
		<polyline class="st1" points="185.7,60.2 185.7,82.6 194.8,80.7 		"/>
		<line class="st1" x1="215.8" y1="52.7" x2="185.7" y2="60.2"/>
		<line class="st1" x1="215.8" y1="126.7" x2="215.8" y2="48.5"/>
		<line class="st1" x1="122.1" y1="162.3" x2="165.1" y2="167.9"/>
		<line class="st1" x1="-8.8" y1="160.5" x2="101" y2="136.4"/>
		<polyline class="st1" points="323.2,263 323.2,244.1 287,220.8 287,144.4 270.4,139.5 270.4,57.6 		"/>
		<polyline class="st1" points="-8.8,196 -0.7,182.6 80,191.4 65.5,175.9 20.2,169.6 -0.7,182.6 		"/>
		<path class="st1" d="M230.9,16.6c5.2,5.4,8.5,12.2,9.4,19.6v12.3h11.4"/>
		<line class="st1" x1="225.7" y1="1.1" x2="225.7" y2="-36"/>
		<polyline class="st1" points="137.5,164.3 137.5,152.1 147.9,152.1 147.9,180.8 137.5,180.8 		"/>
		<polygon class="st1" points="57.1,146 46.1,148.1 46.1,127.6 57.1,127.6 		"/>
		<path class="st1" d="M182.5,162.3c0-4,3.3-7.3,7.3-7.3s7.3,3.3,7.3,7.3H182.5z"/>
		<path class="st1" d="M209.4,162.3c0-4,3.3-7.3,7.3-7.3s7.3,3.3,7.3,7.3H209.4z"/>
		<path class="st1" d="M226.5,106.7c0-4,3.3-7.3,7.3-7.3s7.3,3.3,7.3,7.3H226.5z"/>
		<path class="st1" d="M226.5,106.7V77.6c0-4,3.3-7.3,7.3-7.3"/>
		<path class="st1" d="M256.5,81.8c0.2-3.4,2.6-5.8,5.4-5.2s5,3.8,4.8,7.3L256.5,81.8z"/>
		<path class="st1" d="M256.5,107.5c0.2-3.4,2.6-5.8,5.4-5.2s5,3.8,4.8,7.3L256.5,107.5z"/>
		<path class="st1" d="M250.3,160.2c0.2-3.4,2.6-5.8,5.4-5.2s5,3.8,4.8,7.3L250.3,160.2z"/>
		<path class="st1" d="M270.4,165.4c0.2-3.4,2.6-5.8,5.4-5.2s5,3.8,4.8,7.3L270.4,165.4z"/>
		<path class="st1" d="M194.9,80.7c-0.2-3.4,2-6.7,4.8-7.3s5.2,1.8,5.4,5.2l-5.1,1v19.2"/>
		<path class="st1" d="M205,104.4c-0.2-3.4-2.6-5.8-5.4-5.2s-4.9,3.8-4.8,7.3L205,104.4z"/>
		<rect x="97.1" y="178.4" class="st1" width="7.9" height="10.5"/>
		<rect x="129.8" y="239.7" class="st1" width="10.5" height="13.4"/>
		<rect x="92.1" y="222.1" class="st1" width="8.9" height="8.9"/>
		<rect x="33" y="216.5" class="st1" width="8" height="14.6"/>
		<rect x="189.8" y="216.5" class="st1" width="7.3" height="12.4"/>
		<polyline class="st1" points="260.3,214.5 226.1,194.8 165.1,186.3 165.1,183 		"/>
		<rect x="220.5" y="1.1" class="st1" width="10.5" height="15.5"/>
		<polyline class="st1" points="215.8,48.5 182.5,57.2 182.5,49.5 215.8,40.1 		"/>
		<path class="st1" d="M215.8,40.1h35.9v8.4l20.7,9.8v-7.7l-12-6.6v-1.4c-2.5-19.1-20.1-32.6-39.2-30.1
			c-17.4,2.3-30.4,17.1-30.4,34.6"/>
		<line class="st1" x1="233.7" y1="73.3" x2="233.7" y2="52.7"/>
		<path class="st1" d="M233.7,73.3c2.4,0,4.4,1.9,4.4,4.3c0,0,0,0,0,0h-8.7V81h22.3l4.8,0.8"/>
		<polyline class="st1" points="241,106.7 241,112.7 247,112.7 247,130.1 251.7,134.1 		"/>
		<line class="st1" x1="182.5" y1="57.2" x2="182.5" y2="139.2"/>
		<line class="st1" x1="270.4" y1="139.5" x2="270.4" y2="165.4"/>
		<polyline class="st1" points="182.5,162.3 182.5,177 173.2,177 165.1,186.3 		"/>
		<polyline class="st1" points="122.1,173.8 154.6,203 154.6,222.7 145.7,222.7 145.7,229.9 129.8,229.9 129.8,239.7 		"/>
		<line class="st1" x1="137.5" y1="180.8" x2="163.2" y2="204"/>
		<rect x="181.6" y="183.8" class="st1" width="7.6" height="12.1"/>
		<polyline class="st1" points="287,220.8 260.3,220.8 294.6,243.8 323.2,244.1 		"/>
		<path class="st1" d="M197,283.5c-12.9-11.5-14-31.3-2.4-44.2c11.5-12.9,31.3-14,44.2-2.4c11.9,10.7,13.9,28.5,4.6,41.5"/>
		<path class="st1" d="M14,200.8c-0.1-2.4,1.7-4.4,4.1-4.5s4.4,1.7,4.5,4.1c0,0.1,0,0.3,0,0.4v8.1H14V200.8z"/>
		<path class="st1" d="M32.7,200.8c-0.1-2.4,1.7-4.4,4.1-4.5c2.4-0.1,4.4,1.7,4.5,4.1c0,0.1,0,0.3,0,0.4v8.1h-8.6V200.8z"/>
		<polyline class="st1" points="-0.7,182.6 -0.7,220.2 5.4,220.2 5.4,227.1 -4.1,227.1 -4.1,236.2 -0.8,236.2 -0.8,260.8 		"/>
		<polygon class="st1" points="41.2,184.5 37,180.2 37,170.3 41.2,167.9 		"/>
		<rect x="41.2" y="167.9" class="st1" width="7.8" height="16.6"/>
		<polyline class="st1" points="57.1,146 37,158.6 37,170.3 		"/>
		<line class="st1" x1="197" y1="228.9" x2="197" y2="236.9"/>
		<polyline class="st1" points="80,248.8 86.6,248.8 86.6,241.4 73.2,241.4 73.2,235.1 79.9,235.1 		"/>
		<line class="st1" x1="194.9" y1="106.4" x2="189.8" y2="107.4"/>
		<polyline class="st1" points="80,283.3 80,293.1 68.9,293.1 68.9,302.1 58.8,302.1 58.8,307.9 64.2,307.9 64.2,320 		"/>
		<path class="st1" d="M70.1,336.4h15.5v-8h10.9v6.9h15.1V320h7.3v-5h8.4v-8h10v-7.3h8.3v-10.5h-15.9v-5.9"/>
		<circle class="st1" cx="112.9" cy="267.5" r="11.9"/>
	</g>
</g>
</svg>
