<?xml version="1.0" encoding="utf-8"?>
<!-- Generator: Adobe Illustrator 23.0.6, SVG Export Plug-In . SVG Version: 6.00 Build 0)  -->
<svg version="1.1" id="Layer_1" xmlns="http://www.w3.org/2000/svg" xmlns:xlink="http://www.w3.org/1999/xlink" x="0px" y="0px"
	 viewBox="0 0 595.3 841.9" style="enable-background:new 0 0 595.3 841.9;" xml:space="preserve">
<g>
	<g>
		<path d="M8.4,774.8c1.8-0.2,3.5-0.4,5.3-0.5c1.7-0.2,3.4-0.4,5.1-0.4c5-0.1,9.9-0.1,14.9,0c4.8,0.1,9.6,0.2,14.4,0.5
			c3.7,0.2,7.3,1.1,10.9,2c3.6,0.9,7.3,1.4,11.1,1.3c4.7-0.1,9.5-0.1,14.2,0c4.6,0.1,9.1,0.4,13.7,0.4c2.2,0,4.5-0.3,6.7-0.5
			c4-0.4,8-0.8,12-1.3c1.8-0.2,3.5-0.6,5.3-0.9c4.8-0.8,9.7-1.1,14.6-0.9c0.8,0,1.7,0,2.7,0c0-1.3,0.1-2.3,0-3.2
			c-0.2-3.4,0.1-3.8,3.5-3.8c2,0,4,0,6.3,0c0.1-1.3,0.1-2.4,0.2-3.5c0.1-2.3,0.6-2.9,2.9-3c2-0.1,4,0,6.1,0c0.8,0,1.5,0,2.5,0
			c0.1-0.9,0.2-1.5,0.2-2.2c0.1-2.5,0.5-2.9,3.1-2.9c2.4,0,4.8,0,7.5,0c0.1-1.4,0.1-2.6,0.2-3.8c0.1-2,0.3-2.3,2.3-2.3
			c5.9,0,11.8,0,17.7,0c0.8,0,1.7-0.1,2.8-0.1c-0.1-1.3-0.2-2.5-0.2-3.6c0-0.8,0.1-1.7,0.3-2.4c0.2-0.9,0.6-1.8,1.1-2.6
			c1.7-2.8,1.3-5.8,0.9-8.8c-0.1-0.8-0.1-1.5-0.1-2.3c0-4.4,0-8.9,0-13.3c-0.1-15.3,0-30.6-0.6-45.9c-0.4-10.6,0.2-21.1-0.4-31.7
			c-0.6-10.7,0.1-21.4-0.5-32.1c-0.6-10.2-0.2-20.3-0.4-30.5c0-1.2-0.3-2.2-1-3.3s-1.2-2.4-1.7-3.6c-0.8-2-0.4-2.7,1.8-3.2
			c0.1,0,0.3-0.1,0.7-0.3c-0.1-0.8,0-1.7-0.2-2.5c-0.3-1.5-0.4-2.9,0.4-4.3c0.2-0.4,0.4-0.9,0.4-1.3c-0.1-3.7-0.2-7.4-0.4-11.1
			c-0.1-1.8-0.1-3.6-0.1-5.4c0-1.1-0.2-2-0.9-2.8c-1-1.3-1.9-2.7-2.8-4c-0.6-0.8-1.2-1.2-2.3-1.3c-2.3-0.1-2.9-0.8-2.9-3
			c0-1.4,0.1-2.8,0.3-4.2c0.2-1.2,0.9-1.9,2.2-1.8c1.9,0.1,3.8,0,5.9,0c0.7-1.9,0.4-3.9,0.3-5.8c0-2.2-0.3-4.5-0.4-6.7
			c0-1.1-0.1-2-1.4-2.3c-1-0.3-1.4-1.1-1.4-2.2c0-0.8,0-1.6,0-2.3c0.1-1.1,0.5-2.2,1.7-2.5s1.5-1.1,1.5-2.3c-0.1-1.2,0-2.3,0-3.5
			c0.2-5.9,1.5-11.6,3.9-17.1c1.3-2.9,3.2-5.2,5.3-7.6c0.5-0.5,0.9-1.3,1.1-2c1.9-7,3.7-13.9,5.6-20.9c2.9-10.6,5.8-21.1,8.6-31.6
			c1.4-5.2,2.8-10.5,4.2-15.7c2.5-9.1,4.9-18.3,7.4-27.4c0.8-2.9,1.5-5.8,2.3-8.9c-0.8-0.2-1.5-0.5-2.3-0.5
			c-2.5,0.1-4.3-1.1-5.9-2.8c-1.3-1.3-2.8-1.8-4.5-2c-4.2-0.5-8.2-1.7-11.3-4.9c-1.6-1.7-2.3-3.9-3-6c-0.6-1.7-1-3.4-1.4-5.2
			c-0.5-2.2-1.4-4.1-3.5-5.2c-3.2-1.7-3.2-4.6-2.5-7.5c0.6-2.7,2-5,4.7-6.3c2-1,4.1-1.9,6.3-2.3c3.5-0.7,7-1.4,10.6-1.5
			c1.6,0,3.3-0.9,4.8-1.5c2.1-0.8,4.2-1.7,6.5-1.7c0.8,0,1.7-0.4,2.4-0.9c1.9-1.4,3.8-2.9,5.7-4.4c1.5-1.3,2.9-2.8,4.6-4
			c1.7-1.2,3.7-1.6,5.9-1c1.2-4.2,2.3-8.4,3.5-12.6c1.3-4.6,2.5-9.3,3.8-13.9c1.9-6.9,3.9-13.7,5.8-20.6c2.5-9,5-17.9,7.4-26.9
			c1.2-4.4,2.4-8.8,3.6-13.2c0.3-1.1,0.4-2.1-0.3-3.1c-0.3-0.4-0.1-1.2-0.1-1.8c0-0.1,0.1-0.3,0.2-0.4c1.9-3.1,2.1-6.6,1.9-10.1
			c-0.1-4-0.1-8.1,0-12.1c0-1.5-0.3-2.7-1.4-3.8c-0.8-0.8-1.5-1.8-2.2-2.7c-0.6-0.7-0.7-1.5-0.4-2.4c0.4-0.9,1.1-1.2,2.1-1.2
			c1.4-0.1,2.9,0.3,4.4-0.4c0.3-1.1-0.1-1.9-1-2.6c-3.4-2.8-5.5-6.2-5.7-10.9c-0.2-4.9,2.1-8.4,5.6-11.4c2.1-1.8,4.2-3.7,6.1-5.7
			c2.1-2.2,4.1-4.4,5.9-6.9c1.1-1.5,1.7-3.4,2.5-5.1c-0.4-0.4-0.5-0.6-0.7-0.7c-3.6-3-3.2-7.6,0.9-9.7c1.3-0.7,1.7-1.5,1.7-2.9
			c-0.2-9.3-0.1-18.6-0.6-27.9c-0.4-7.1-0.1-14.3-0.4-21.4c-0.1-3-0.3-6-0.4-9.1c0-0.5,0-1.1,0-1.6c0.1-1.2,0.7-1.7,1.8-1.6
			c1,0.1,1.6,0.7,1.6,1.9c0,1-0.2,2-0.1,3c0.1,9,0,18,0.6,27c0.5,7.3,0.1,14.6,0.4,21.9c0.1,3.1,0.3,6.2,0.5,9.3
			c0,0.6,0.4,1.4,0.9,1.7c3.3,2.2,3.6,5.8,1.8,8.6c-1,1.5-1,3-0.3,4.7c1.1,2.7,1.9,5.5,3.8,7.9c1.5,1.9,3.3,3.5,5.4,4.7
			c3.8,2.3,5.5,5.6,6.2,9.8c0.4,2.8,0.8,5.6-0.5,8.2c-1.2,2.3-2.6,4.6-3.9,7c0.7,2.3,0.7,2.3,3,2.3c1,0,2-0.1,3-0.3s1.9-0.1,2.4,0.8
			c0.4,0.8,0.1,1.6-0.6,2.3c-1,1.1-1.9,2.2-2.9,3.3c-1.1,1.2-1.6,2.5-1.6,4.2c0.1,4.7,0.1,9.3,0,14c0,1.8,0.3,3.5,1.2,5.1
			c0.5,0.8,0.8,1.7,1.3,2.5c0.4,0.8,0.5,1.7-0.3,2.4c-0.8,0.8-0.7,1.6-0.4,2.5c3.4,11.5,6.7,23.1,10,34.6
			c3.1,10.6,6.2,21.1,9.3,31.7c1.7,5.9,3.4,11.8,5,17.7c0.1,0.3,0.2,0.6,0.4,1.1c0.5-0.3,0.8-0.4,1.2-0.7c2.2-1.8,4.6-2.6,7.4-2.9
			c4.1-0.4,8.2-0.1,12.2-1.4c0.9-0.3,1.8-0.3,2.8-0.3c4.7,0,9.5,0,14.2,0c2.5,0,4.8-0.5,6.9-2.2c3.4-2.8,7.2-5.2,11.2-7.1
			c3.8-1.8,7.7-2.7,11.9-2.9c2.4-0.1,4.8-0.5,7.2-0.4c5.9,0.2,11.8,0.5,17.5,2.1c4.3,1.2,8.4,2.9,12,5.5c1.9,1.4,3.9,1.5,5.9,1.1
			c4-0.9,8.1-1.4,12.2-1.2c1.6,0.1,3.1,0.4,4.4,1.3c2.1,1.3,4.4,1.9,6.8,2c2.6,0.1,5.2-0.1,7.6,0.4c3.3,0.7,6.5,1.9,9.8,3
			c1.5,0.5,2.9,0.9,4.5,0.9c2-0.1,4,0.1,6.1,0c4.2-0.2,7.9,1.5,11.5,3.3c0.3,0.2,0.7,0.4,1,0.6c1.7,0.9,2,0.9,3.3-0.3
			c2.7-2.5,6-3.9,9.4-4.9c1.4-0.4,2.9-0.5,4.4-0.6c1.7-0.1,3.4,0,5.1,0c2.4-0.1,4.8,0,7.1,0.7c1,0.3,1.6,0.1,2.1-0.8
			c2.6-5.1,7.1-7.9,12.3-9.7c6.1-2.1,12.4-3.5,18.9-3.3c3.2,0.1,6.4-0.4,9.6,0.8c0,1,0,2,0,3.2c-0.5,0.1-1,0.2-1.4,0.2
			c-8.7-1-17.2-0.6-25.5,2.3c-1.7,0.6-3.5,1.4-5.1,2.2c-2.8,1.4-4.4,3.8-5.9,6.4c-1.7,2.9-2,3.1-5.4,2.3c-4.1-0.9-8.2-1.3-12.4-0.7
			c-2.8,0.4-5.3,1.2-7.8,2.2c-0.7,0.3-1.3,0.8-1.9,1.3c-0.5,0.4-0.9,0.9-1.4,1.2c-3.6,2.6-3.5,2.5-7.4,0.3c-1.9-1.1-3.9-1.9-5.9-2.7
			c-0.6-0.3-1.4-0.2-2.1-0.3c-2.4,0-4.8,0-7.2,0c-2.4,0-4.7-0.6-7-1.4c-3.3-1.2-6.6-2.3-10-3c-2.1-0.5-4.3-0.3-6.5-0.2
			c-2.9,0.1-5.5-0.5-8-2c-0.9-0.5-2-0.8-3.1-0.8c-2.2-0.1-4.5,0-6.8,0c-0.6,0-1.2,0.1-1.8,0.2c-2.4,0.3-4.9,0.8-7.3,1
			c-0.8,0.1-1.7-0.3-2.4-0.8c-2.6-1.7-5.1-3.4-8-4.6c-3.6-1.5-7.3-2.2-11-2.8c-6-0.9-12.1-0.4-18.1-0.4c-3.9,0-7.7,1.2-11.1,3.1
			c-2.7,1.5-5.3,3.2-8,4.8c-1.2,0.8-2.3,1.9-3.5,2.6c-1.9,1.2-4.1,1.5-6.3,1.5c-5.1,0-10.1,0-15.2,0c-1.5,0-3,0.2-4.3,0.7
			c-1.4,0.5-2.7,0.6-4.1,0.7c-2.2,0-4.5,0.1-6.7,0.2c-2.3,0.1-4.1,1.3-5.8,2.6c-0.9,0.7-1.1,1.4-0.8,2.6c3,10.1,5.9,20.3,8.7,30.4
			c0.7,2.6,2.2,4.4,4.3,5.8c1.2,0.8,2.3,1.8,3.4,2.8c1.2,1.2,0.8,2.5-0.8,2.9c-0.9,0.2-1.8,0.2-3,0.4c0.7,2.4,1.3,4.6,1.9,6.9
			c1.9,6.4,3.8,12.8,5.6,19.2c0.3,1.1,0.8,1.8,1.8,2.4c1.8,1,3.4,2.4,5.2,3.5c2.3,1.5,4.8,2.2,7.5,2.2c1.7,0,3.4,0.1,5.1,0
			c2.4-0.2,4.5,0.6,6.3,1.9c1.8,1.4,3.9,1.9,6.1,1.8c0.9,0,1.9,0,2.8,0c2.1-0.1,3.7,0.7,5.4,1.8c2.1,1.4,4.3,2.9,6.6,3.9
			c4.5,1.8,9,3.3,13.6,4.7c5.6,1.6,11.5,1.5,17.3,1.4c1.9-0.1,3.9-0.2,5.8-0.4c2.3-0.2,4.2,0.6,6.3,1.3c3,1.1,6.1,2.3,9.3,2.9
			c6,1,12,0.9,17.8-1.7c3.2-1.4,5.9-3.7,8.9-5.4c3.6-2.1,6.3-5.3,9.1-8.2c1-1,2-1.4,3.5-1.5c2.8-0.1,5.5,0.5,8.3,1.1
			c4.8,1.2,9.6,1.4,14.4-0.4c1.3-0.5,2.6,0,3.8,0.4c2.6,0.8,5.2,1.7,7.8,2.2c2.3,0.4,4.6,0.3,6.9,0.4c1.7,0,3.2,0.3,4.7,1
			c3.2,1.4,6.5,2.4,10.1,2.4c2.7,0,5.4,0.4,8.1,0.4c1.7,0,3.4-0.3,5-0.7c2.1-0.5,4.1-1.5,5.6-3.2c0.3-0.3,0.6-0.5,0.8-0.8
			c2.9-3.7,6.7-4.1,11.1-3.3c0,1.1,0,2.2,0,3.3c-0.8,0-1.5,0.2-2.2,0.1c-2.7-0.5-4.7,0.7-6.3,2.5c-2.5,2.7-5.4,4.6-9.1,5.3
			c-0.8,0.1-1.5,0.2-2.3,0.2c-2.5,0-5,0-7.5,0c-5.4,0.1-10.7-0.7-15.6-3c-1.2-0.6-2.5-0.7-3.8-0.7c-2.9,0-5.9,0.3-8.8-0.5
			c-1.9-0.5-3.7-1.2-5.5-1.9c-1.1-0.4-2-0.4-3.1,0c-1.3,0.5-2.7,0.8-4.1,0.9c-3.9,0.2-7.7,0-11.5-1c-1.6-0.5-3.3-0.8-5-1.1
			c-1.5-0.3-2.7,0.1-3.8,1.5c-2.1,2.7-4.6,5-7.5,6.9c-1.9,1.2-3.8,2.4-5.6,3.8c-3.2,2.3-6.8,3.6-10.6,4.6c-0.9,0.2-1.8,0.3-2.7,0.4
			c-2.5,0.1-5-0.1-7.5,0c-4.6,0.2-8.9-1.2-13-3c-3.4-1.5-6.7-1.9-10.4-1.5c-4.1,0.4-8.2,0-12.3-0.1c-4.2-0.1-8.2-1.1-12-2.5
			c-4.5-1.6-9.2-2.9-13.3-5.4c-0.9-0.5-1.7-1.1-2.5-1.7c-1.6-1.3-3.4-2-5.6-1.8c-1,0.1-2,0.1-3-0.1c-2.5-0.3-4.9-0.9-6.9-2.5
			c-1-0.9-2.3-1.2-3.7-1.1c-1.3,0.1-2.6,0-4,0c-4.6,0.1-8.7-1.3-12.3-4.2c-0.4-0.3-0.8-0.5-1.6-1c0.7,2.5,1.2,4.5,1.8,6.5
			c3,10.4,6,20.9,9,31.3c2,6.9,4,13.7,6,20.5c3.1,10.6,6.2,21.1,9.1,31.8c0.7,2.7,1.5,5.3,2.9,7.7c2.7,4.7,4.1,9.9,4.8,15.2
			c0.3,2,0.5,4,0.7,6c0.1,0.1,0.2,0.2,0.4,0.3c2.8,0.6,3.1,0.9,3.1,3.7c0,0.5,0,1.1,0,1.6c0,1.2-0.1,2.2-1.6,2.4
			c-1,0.1-1.2,0.9-1.2,1.7c0,3.8-0.1,7.6,0.7,11.6c1.2,0,2.5,0.1,3.8,0.1c0.6,0,1.2,0,1.9,0c2.3,0.1,2.9,0.7,2.9,3
			c0,1.4,0.1,2.8,0,4.2c-0.1,1.5-0.7,2.1-2.2,2.2c-0.5,0-1.1,0-1.6,0c-0.9,0-1.6,0.4-2.1,1.2c-0.4,0.6-0.8,1.1-1.3,1.7
			c-1.8,2.3-2.8,4.8-2.6,7.9c0.3,4.4,0.1,8.9,0.1,13.3c0,1.1-0.2,2.2,0.9,2.9c0.3,0.2,0.4,0.7,0.4,1c0.2,1.5,0.4,3.1,0.4,4.6
			c0,0.9,0.1,1.7,1,2.2c0.8,0.5,1,1.3,0.6,2.2c-0.1,0.4-0.2,0.8-0.1,1.1c0.1,2-0.5,3.5-2.8,4c0,0.9,0,1.8,0,2.6
			c0,25.5-0.4,51,0.1,76.5c0.5,28.4,0.1,56.9,0.3,85.3c0,2.1,0.9,3.8,2.1,5.3c1,1.2,1.3,2.4,1.2,3.8c0,0.5,0,0.9,0,1.4
			c0.1,1.8,0.3,2,2.1,1.7c0.5-0.1,0.9-0.2,1.4-0.1c5.3,0.8,10.7,0.2,16,0.4c0.9,0,1.8,0.2,2.8,0.3c1.1,0.2,1.5,0.9,1.5,2
			s0,2.2,0,3.4c0.7,0.1,1.3,0.3,1.9,0.3c2.5,0,5,0,7.5,0s2.9,0.4,3.3,2.9c0.1,0.5,0.2,0.9,0.3,1.4c0.1,0.5,0.1,0.9,0.2,1.6
			c0.6,0.1,1.2,0.2,1.8,0.2c1.9,0,3.9,0,5.8,0s2.4,0.6,2.6,2.5c0.1,1.7,0.3,3.4,0.5,5.3c1.5,0,2.9,0.1,4.3,0.1s2.8,0,4.2,0
			c2,0.1,2.6,0.6,2.6,2.7c0,0.8,0,1.7,0,2.7c0.8,0.1,1.4,0.2,2,0.2c3.7,0,7.5,0.1,11.2,0c6.6-0.1,13.2-0.2,19.8-0.5
			c2.2-0.1,4.3-0.1,6.4,0c2.4,0.1,4.8-0.3,7.2-0.3c14.2,0,28.4,0,42.7,0c4.7,0,9.4-0.3,14.1-0.9c0.1,0,0.2,0,0.2,0
			c7-0.2,14-0.3,20.9-0.5c0.3,0,0.6,0.1,1.2,0.2c0.1,1,0.1,2,0.2,3.3c-0.9,0.1-1.7,0.2-2.4,0.2c-3.4,0-6.8,0-10.3,0
			c-4.1,0.1-8.2,0-12.3,0.5c-9.1,1.2-18.1,0.8-27.2,0.8c-4.6,0-9.3-0.3-13.9-0.4c-0.8,0-1.5,0-2.4,0.4c1.6,0.3,3.1,0.8,4.7,1
			c4.2,0.6,8.3,1.7,12.3,3.1c5.3,1.8,10.6,3.5,16,5c2.3,0.7,4.7,1,7.1,1.1c4.7,0.3,9.1,1.7,13.5,3.2c4.8,1.6,9.5,3.2,14.6,5
			c0,0.7,0,1.8,0,3.2c-1.9-0.4-3.7-0.7-5.3-1.2c-4.1-1.4-8.3-2.7-12.3-4.3c-3.4-1.4-7-2.1-10.6-2.4c-5.7-0.4-11.1-2-16.5-3.8
			c-7.3-2.4-14.6-5.1-22.4-6.2c-4.2-0.6-8.3-2-12.5-2.9c-1.8-0.4-3.7-0.6-5.5-0.7c-3.3-0.1-6.6-0.3-9.8,0c-7,0.8-14,0.2-20.9,0.3
			c-2.9,0-5.7-0.6-8.6-0.4c-9.6,0.8-19.3,0.6-28.9,0.3c-9.4-0.3-18.8,0.1-28.2-0.4c-9-0.6-18,0.1-27-0.4c-9.3-0.6-18.6,0.1-27.9-0.5
			c-9.1-0.6-18.2-0.1-27.2-0.4c-0.8,0-1.7-0.1-2.6-0.1c-0.2,0.2-0.5,0.3-0.7,0.6c-1.6,2.4-3.8,4.1-6.1,5.7c-3.2,2.2-6.4,4.4-10,5.8
			c-3.2,1.3-6,3.4-8.3,6.2c-2.6,3.2-5.8,5.6-9.9,6.5c-2.6,0.6-5.2,1.6-7.8,2.4c-0.6,0.2-1.1,0.6-1.9,1c-0.1,0.2,0,0.2,0,0.2
			c0.1-0.1,0.2-0.2,0.3-0.3c-0.2,0.1-0.4,0.1-0.3,0.1c3.6,0,6.9,0.8,10.1,1.6c5.3,1.5,10.1,4.1,14,7.9c3.8,3.7,8.2,6.3,12.7,9
			c2.2,1.4,4.6,2.5,6.7,4.5c-3.4,0.8-6.3,0.1-9-1.6c-4.9-3-9.6-6.2-13.8-10.2c-2.9-2.7-6.4-4.5-10.3-5.8c-4.4-1.5-8.9-1.9-13.5-1.8
			c-5.2,0-10.4-0.2-15.6-0.5c-3.3-0.2-6.6-0.9-9.9-1.2c-2.3-0.3-4.6-0.5-6.9-0.5c-2.5-0.1-5-0.1-7.5,0c-3.2,0.2-6.3,0.5-9.5,0.8
			c-2.2,0.2-4.5,0.3-6.7,0.6c-7.6,0.9-15.2,0.3-22.8,0.4c-3.8,0-7.6,0-11.4-0.5c-4.6-0.6-9.1-1.2-13.7-0.8
			c-5.6,0.5-11.4-0.2-16.9,1.3c-2.3,0.6-4.5,1.5-6.7,2.5c-3.8,1.8-7.4,3.8-11.1,5.7c-1.1,0.6-2.1,1.3-3.1,2c-2.7,1.7-5.4,3.4-8,5.2
			c-1.7,1.1-3.3,2.4-4.8,3.7c-1.4,1.2-2.9,0.8-4.4,0.8c0.6-1.3,2.7-3.8,4.4-4.9c4.7-3.2,9.4-6.3,14.1-9.4c1.4-0.9,3-1.5,4.5-2.3
			c0.3-0.2,0.6-0.4,1-0.7c-2.5-2-5.4-2.9-8.1-3.8c-1.6-0.6-3.7-0.4-5.5-0.1c-3.5,0.6-6.9,0.1-10.3-0.8c-0.8-0.2-1.6-0.7-2.2-1.2
			c-3.3-2.4-7-2.1-10.7-1.7c-0.4,0-0.8,0.2-1.1,0.2c-3.2,0.2-6.3,0.3-9.5,0.5c-2.5,0.2-4.9,0.5-7.4,0.8c-0.7,0.1-1.4,0.1-2.1,0.1
			c-2.5,0-5,0.1-7.5,0c-4.6-0.1-9.3-0.4-13.9-0.4c-3.6,0-7.3,0-10.9,0.4c-7.6,0.7-15,2-22.4,3.9c-1.2,0.3-2.4,0.7-3.5,1.2
			c-4.8,2.2-9.6,4.4-14.4,6.7c0-1.1,0-2.2,0-3.3c0.7-0.3,1.5-0.5,2.1-0.9c3.6-1.8,7.1-3.5,10.7-5.3c1-0.5,2.1-1,3.3-1.3
			c3.8-1,7.7-1.9,11.5-2.8c1.1-0.2,2.1-0.4,3.2-0.5c2.8-0.3,5.5-0.6,8.3-0.9c2.4-0.2,4.8-0.5,7.2-0.5c5,0,9.9-0.3,14.9,0.3
			c2.1,0.3,4.3-0.2,6.5-0.3c2.7-0.2,5.3,0.6,8.1,0.1c3-0.5,6-0.4,9-0.6c2.2-0.1,4.5-0.4,6.7-0.5c2.3-0.1,4.6-0.4,6.9-0.3
			c2.6,0.1,5.1,0.8,7.2,2.4c1.3,1,2.8,1.2,4.4,1.3c2.6,0.1,5.1,0,7.7,0c0.7,0,1.4-0.2,2-0.5c5-2.7,10.5-3.8,16-4.6
			c3.8-0.5,7.7-0.6,11.6-1c1.6-0.2,3.2-0.4,4.8-0.8c5.1-1.5,10.1-3.1,15.1-4.7c5.2-1.7,10.6-2.4,16-2.8c2.5-0.2,5-0.2,7.4-0.6
			c4.4-0.7,8.8-1.2,13.3-0.9c3.9,0.2,7.7-0.2,11.6-0.4c0.2,0,0.3,0,0.5-0.1c3.2-0.3,6.3-0.6,9.5-0.8c0.8-0.1,1.6,0,2.3-0.1
			c5.3-0.8,10.6-1.5,15.8-2.3c1.8-0.3,3.6-0.6,5.2-1.2c3.5-1.4,6.9-3.1,10.4-4.7c0.9-0.4,1.7-1.1,2.8-1.8c-2.5-0.2-4.5-0.5-6.6-0.6
			c-8.8-0.3-17.5,0.1-26.3-0.4c-9.7-0.6-19.4,0.1-29.1-0.5c-8.7-0.5-17.5,0-26.3-0.4c-9.8-0.5-19.7-0.1-29.6-0.5
			c-6.6-0.3-13.3,0.2-20,0.4c-2.4,0.1-4.8,0.4-7.1,0.7c-4.6,0.6-9.2,1.5-13.8,2c-4.5,0.4-8.9,1-13.3,2.2c-3.1,0.8-6.1,1.8-9.2,2.5
			c-4.4,1-8.8,1.7-13.2,2.6c-8.6,1.8-17,4.1-25.7,5c-5.8,0.6-11.4,2.3-16.9,4c-7.8,2.3-14.9,6.2-22.4,9.2c-0.8,0.3-1.6,0.5-2.4,0.7
			c0-1.1,0-2.2,0-3.3c5.4-2.4,10.7-4.9,16.2-7.1c8.1-3.3,16.6-5.7,25.3-6.8c5.1-0.6,10.1-1.5,15.1-2.7c3.7-0.9,7.4-1.7,11.1-2.5
			c4.8-1,9.6-1.9,14.4-2.9c-0.8-0.4-1.6-0.4-2.3-0.4c-6.5,0-13-0.1-19.6,0c-4.2,0.1-8.2-0.8-12.1-1.8c-3.7-0.9-7.5-1.5-11.2-1.5
			c-12.3,0.1-24.5-0.6-36.8,0.4C8.4,777,8.4,775.9,8.4,774.8z M263.5,317.8c-0.1,0-0.1-0.1-0.2-0.1
			C263.4,317.7,263.5,317.8,263.5,317.8c0.1,0.5,0.2,1.1,0.3,1.6c0.4,2.6,0.8,5.2,1.1,7.8c0.1,1.2-0.4,2.4-0.4,3.7
			c-0.1,3.3,0,6.7,0,10c0,0.4-0.1,0.8,0.1,1.1c0.2,0.3,0.6,0.8,0.9,0.8s0.7-0.5,0.8-0.9c0.1-0.7,0.1-1.4,0.1-2.1
			c-0.1-3.7,0.4-7.4,0.8-11.1c0.3-2.5,0.7-5-0.2-7.6C266.2,319.4,265.4,318.1,263.5,317.8z M251.9,313.6c3.6-0.9,7.2-0.6,10.8,0.5
			c3.6,1.1,6.7,2.9,7.7,7c0.1,0.4,0.4,0.8,0.6,1.2c1.1,0,2.1,0,3.3,0c0.5-4.4,1-8.7,1.4-12.9c-1.9-0.5-19.9-0.6-22.7-0.1
			C252.6,310.6,252.2,312.1,251.9,313.6c0,0.1-0.1,0.1-0.1,0.2C251.8,313.7,251.8,313.6,251.9,313.6z M308.3,619.1
			c0.1,0,0.1,0.1,0.2,0.1C308.4,619.1,308.3,619.1,308.3,619.1c-0.3-0.8-0.6-1.6-1-2.3c-3.6-7.1-7.3-14.2-10.9-21.3
			c-0.1-0.2-0.3-0.4-0.5-0.7c-2.6,4.3-11.2,22.3-11.3,23.8c3.2-1.6,6.4-3,9.5-4.8c1.4-0.8,2.6-0.7,3.9,0.1c2.9,1.6,5.8,3.2,8.7,4.8
			C307.2,618.8,307.8,618.9,308.3,619.1z M273.3,627c1.5-1.2,3-2.4,4.5-3.7c0.5-0.4,0.9-1.1,1.2-1.7c3.2-6.5,6.3-12.9,9.5-19.4
			c0.4-0.9,0.8-1.9,1.2-2.8c1.5-3.1,3-6.1,4.5-9.2c0.9-1.6,2.5-1.6,3.4,0c0.1,0.2,0.2,0.4,0.3,0.6c2.8,5.4,5.5,10.7,8.3,16.1
			c2.6,5,5,10.1,7.6,15.2c0.2,0.4,0.4,0.8,0.8,1.1c2.1,1.8,4.2,3.7,6.3,5.5c0.1,0,0.1,0.1,0.2,0.1c-0.1,0-0.1-0.1-0.2-0.1
			c-0.2-0.6-0.4-1.2-0.6-1.7c-5-10.2-10.1-20.4-15.1-30.7c-2.7-5.6-5.5-11.1-8.3-16.6c-0.3-0.5-0.6-1-1-1.6
			c-0.6,1.5-1.1,2.7-1.7,3.9c-2.3,4.9-4.5,9.7-6.8,14.5c-4.1,8.7-8.2,17.4-12.3,26.1C274.4,624.1,273.9,625.6,273.3,627
			c0,0.1-0.1,0.1-0.1,0.2C273.3,627.1,273.3,627,273.3,627z M242.1,626.1c0.1,0,0.1,0.1,0.2,0.1
			C242.2,626.1,242.1,626.1,242.1,626.1c0-1.5,0-3.1,0-4.6c0-8.9,0-17.9,0-26.8c-0.1-6.2-0.3-12.4-0.5-18.6c0-0.4-0.2-0.7-0.3-1.3
			c-11.5,0.4-22.9-0.9-34.4-0.3c-0.1,0.8-0.2,1.3-0.1,1.8c0.1,1.9,0.4,3.9,0.4,5.8c0.2,8.7,0.4,17.4,0.5,26.1c0.1,4.3,0,8.7,0.1,13
			c0,2.1,0.3,4.3,0.6,6.8c2.7-2.5,5.2-4.7,7.5-7c2.3-2.4,4.9-4.5,7.8-6.2c0.8-0.5,1.6-0.9,2.3-1.5c1.8-1.3,2.7-1.2,4.1,0.6
			c0.6,0.9,1.3,1.7,2.1,2.5c2.3,2.2,4.8,4.4,7.1,6.6C240.1,623.9,241.1,625,242.1,626.1z M275.4,776c0.1-0.7,0.2-1.1,0.2-1.6
			c-0.1-2.5-0.4-5.1-0.4-7.6c-0.1-4.3-0.1-8.5,0-12.8c0-1.7,0.7-2.3,2.4-2.5c0.5-0.1,1.1,0,1.6,0c5.4,0.1,10.9,0.3,16.3,0.4
			c7.4,0.2,14.9-0.4,22.3,0.4c1.8,0.2,2.4,0.7,2.6,2.6c0,0.2,0,0.5,0,0.7c0.2,6.4,0.3,12.7,0.5,19.1c0.1,2.2,0.2,2.4,2.4,2.4
			c0.2,0,0.5,0,0.7,0c2.3,0,2.5-0.1,2.4-2.3c0-2.2-0.4-4.5-0.4-6.7c-0.1-5.9,0-11.8-0.1-17.7c0-1.9,0.5-3.5,1.7-4.9
			c1.1-1.3,1.6-2.8,1.6-4.5c0.1-9,0-18,0.3-27c0.5-13.1,0.4-26.2,0.5-39.4c0.1-8.9,0-17.7,0-26.6c0-1,0.1-2-0.7-2.8
			c-0.7-0.8-1.2-1.8-1.8-2.7c-1.1-1.7-2.2-3.4-3.5-4.9c-2.1-2.4-4.5-4.5-6.7-6.8c-2.8-2.9-6.1-5.3-9.4-7.5c-1.2-0.8-2.6-1.4-3.9-2.1
			c-2.8-1.7-5.5-3.4-8.3-5.2c-1.3,0.8-2.5,1.8-3.8,2.3c-5.2,2.3-9.4,6-14.1,9c-0.3,0.2-0.5,0.4-0.7,0.6c-4.3,4.6-9.4,8.4-12.4,14.1
			c-0.5,1-1,1.9-0.9,3c0.1,4.8,0.2,9.6,0.4,14.4c0.5,10.9,0.4,21.9,0.6,32.8c0,4.2,0.1,8.3,0.1,12.5c0,4.8,0.3,9.6,0.4,14.4
			c0.1,5.9,0,11.8,0,17.7c0,0.7-0.1,1.7,0.2,2c1.1,1,1.2,2.3,1.7,3.5c0.4,1,0.9,1.7,2,2c1.1,0.2,1.5,1,1.6,2c0,0.6,0,1.2,0,1.9
			c0,8.4,0,16.8,0,25.2c0,0.8,0.1,1.7,0.1,2.6C272.6,776,273.9,776,275.4,776z M133.3,808c2.6,1.3,5,2.3,7.4,3.5
			c1,0.5,1.9,0.5,2.8,0c1.1-0.6,2.1-1.3,3.3-1.7c4.9-2.1,10.1-2.4,15.2-2.7c5.3-0.3,10.6-0.1,15.9-0.1c0.5,0,1.1,0,1.6,0.1
			c3.2,0.3,6.5,0.7,9.7,0.8c6.5,0.1,13.1,0,19.6,0.1c4.6,0,9.1-0.2,13.7-0.9c1.8-0.3,3.5-0.5,5.3-0.5c5.5-0.1,11,0,16.6,0
			c0.5,0,0.9,0,1.4,0.1c6.8,1.3,13.7,1.8,20.6,1.8c1.3,0,2.4-0.2,3.4-1.1c0.8-0.7,1.8-1.1,2.9-1.5c4.2-1.5,8.5-2.9,12.8-4.3
			c2.4-0.8,4.7-1.8,6.3-3.8c2.8-3.6,6.1-6.7,10.4-8.3c4.5-1.7,8.3-4.5,12.3-7.1c0.8-0.5,1.4-1.3,2.5-2.2c-1.1-0.1-1.7-0.1-2.3-0.1
			c-7.4-0.2-14.9,0.2-22.3-0.4c-5.5-0.4-11-0.1-16.5-0.1c-0.6,0-1.5,0.2-1.8,0.7c-1.5,1.8-3.3,3.2-5.5,4.2c-1.3,0.6-2.4,1.4-3.7,2
			c-2.9,1.2-5.8,2.7-8.8,3.5c-4.8,1.3-9.8,1.6-14.6,2.4c-5.4,0.8-10.8,1-16.1,1.6c-4.4,0.5-9,0.4-13.5,0.5c-1.8,0.1-3.6,0-5.4,0
			c-1,0-2,0.2-3,0.3c-4.5,0.5-8.9,1.3-13.4,1.5c-5.4,0.2-10.4,1.4-15.5,3c-5.5,1.8-10.8,3.8-16.5,4.7c-3.4,0.5-6.9,1.1-10.4,1.2
			c-4.5,0.1-8.7,1.4-13,2.4C134.1,807.6,133.7,807.8,133.3,808z M386.6,628.3c0-0.7,0-1.5,0-2.3c0-7.1,0-14.1,0-21.2
			c-0.1-9-0.3-18-0.5-27c0-0.5-0.2-1-0.3-1.5c-5.4-0.8-32.1-1-34.7-0.2c0,0.7,0,1.4,0,2.2c0.2,15.4,0.3,30.9,0.5,46.3
			c0,0.3,0.1,0.7,0.2,1.2c0.8-0.9,1.4-1.6,2-2.3c3.4-3.6,6.9-7.2,10.3-10.7c1.1-1.2,2.7-1.1,3.8,0.2c0.4,0.5,0.8,0.9,1.1,1.5
			c1.9,2.9,4.3,5.3,7.6,6.6c0.6,0.2,1.1,0.6,1.6,1C381,624.1,383.8,626.2,386.6,628.3z M262.7,540.7c0,6.3,0,12.1,0,17.9
			c0.8,0.2,1.4,0.5,2.1,0.6c0.6,0.1,1.2,0.1,1.9,0.1c13.3,0.2,26.5-0.3,39.8,0.4c7.5,0.4,15.1,0.1,22.6,0.1c0.6,0,1.2-0.1,1.5-0.2
			c0-3.2,0-6.2,0-9.3c0-3,0.2-6-0.8-9.3C307.5,541.6,285.2,540.6,262.7,540.7z M248.6,310.6c-1.1,0.4-1.7,0.6-2.3,1
			c-1.1,0.8-2,1.7-3.1,2.5c-2.5,2.1-5,4.2-7.6,6.1c-1,0.7-2.4,1-3.6,1.4c-1.7,0.5-3.4,0.8-5.1,1.3c-2.1,0.6-4.1,1.4-6.2,1.9
			c-1.7,0.4-3.5,0.3-5.3,0.5c-3.2,0.5-6.4,1.1-9.4,2.4c-2.8,1.2-3.9,3.2-4,6.2c0,1.1,0.3,1.9,1.3,2.5c2.1,1.3,3.4,3.2,4.1,5.4
			c0.8,2.3,1.4,4.7,2.1,7.1c0.7,2.4,1.6,4.7,4,5.7c2.6,1,5.2,2.5,8.2,2.4c2.2-0.1,4,0.7,5.5,2.5c0.7,0.9,1.9,1.6,3,2
			s2.4,0.3,3.8,0.5c0.9-3.5,1.9-6.9,2.8-10.4c-1-0.1-1.7,0-2.5-0.1c-1.7-0.2-2.4-1.5-1.6-3c0.3-0.5,0.8-1,1.3-1.3
			c1.6-1,3.2-2,4.8-2.9c0.9-0.5,1.3-1.1,1.6-2.1c2.6-9.6,5.3-19.3,8-28.9C248.5,312.5,248.5,311.8,248.6,310.6z M367.1,626.5
			c-1.4,1.2-2.7,2.2-3.9,3.2c-2.5,2.2-5.2,4.2-7.5,6.6c-2.3,2.5-3.9,5.5-3.7,9.2c0.3,5.2,0.3,10.4,0.5,15.6c0.2,9-0.1,18,0.4,27
			c0.6,11.3,0.4,22.6,0.6,34c0.1,5.4,0,10.7,0,16.1c0,0.5,0,1.1,0,1.6c0,0.9,0.5,1.4,1.5,1.4c0.5,0,0.9,0,1.4,0c9.7,0,19.4,0,29.1,0
			c0.7,0,1.4-0.1,2-0.1c0-0.8,0-1.5,0-2.2c-0.2-17.1,0.2-34.3-0.4-51.5c-0.4-11.2-0.1-22.5-0.1-33.8c0-1.9-0.3-3.7-1.4-5.3
			c-0.7-1-1.1-2.2-1.7-3.3c-1.4-2.4-2.6-5-4.2-7.2c-1.9-2.7-3.9-5.3-6.9-7.1C370.9,629.5,369.1,627.9,367.1,626.5z M396.3,564.3
			c-0.9-0.3-1.5-0.5-2.2-0.6c-0.5-0.1-1.1-0.1-1.6-0.1c-14.5-0.2-29,0.2-43.6-0.4c-14.2-0.6-28.4,0.2-42.6-0.5
			c-14.7-0.6-29.5,0.2-44.3-0.5c-14.2-0.6-28.4,0.3-42.6-0.5c-6.7-0.4-13.4-0.1-20-0.1c-0.7,0-1.3,0.1-2.1,0.2
			c0.2,1,0.3,1.8,0.5,2.5c0.4,1.8,0.4,1.8,2.3,1.9c10.4,0.2,20.8-0.1,31.2,0.4c13.7,0.6,27.5,0,41.2,0.5c15.4,0.6,30.7-0.1,46.1,0.5
			c12.7,0.5,25.5-0.1,38.2,0.4c12.6,0.5,25.2,0.1,37.8,0.1c0.6,0,1.2-0.2,1.8-0.3C396.3,566.7,396.3,565.6,396.3,564.3z
			 M271.4,502.7c0.9,0.1,1.5,0.2,2,0.2c15.8,0,31.7,0,47.5,0c0.6,0,1.2-0.2,2-0.3c-0.2-1.4-0.3-2.6-0.6-3.8c-0.7-2.9-1.1-6-3.4-8.3
			c-1.5-1.5-3.2-3-4.8-4.3c-2.7-2.2-5.8-3.5-9.2-4.2c-4.9-1.1-9.9-0.6-14.8,0.2c-6,1-10.6,4.5-14.5,9.1c-0.2,0.3-0.4,0.6-0.6,1
			c-1,2.6-2.1,5.2-3.1,7.8C271.6,500.7,271.6,501.6,271.4,502.7z M293.5,140.7c-0.3,2.8-1.1,5.3-2.8,7.3c-1.5,1.8-3,3.5-4.6,5.2
			c-2.4,2.5-4.9,4.9-7.4,7.4c-0.5,0.5-1.2,1-1.6,1.7c-0.7,1-1.4,2.1-1.8,3.2c-1.1,2.9-0.7,5.7,0.7,8.3c1.7,3.1,4,5.3,8.1,5.1
			c4.9-0.3,9.8-0.1,14.7-0.1c2.2,0,4.3,0,6.5,0c1.7,0,2.8-0.6,3.5-2.2c0.4-1,1.1-1.9,1.5-2.9c0.9-1.8,1.5-3.7,1.3-5.8
			c-0.4-4.3-1.5-8.1-5.7-10.2c-0.1,0-0.1-0.1-0.2-0.1c-5.8-4-8.8-9.6-9.8-16.4c0-0.1-0.2-0.2-0.4-0.4
			C294.9,140.7,294.3,140.7,293.5,140.7z M357.9,777.6c2.5,0,4.9,0,7.2,0c2.4,0,4.8,0,7.2,0c2.5,0.1,4.9,0.3,7.4,0.4
			c2.4,0,4.8,0.2,7.3-0.2c0-4.9-0.3-9.5,0.1-14.2c0.3-4.6,0.5-9.2,0.2-14c-0.9,0-1.6,0-2.3,0c-1.8,0.1-3.7,0.3-5.5,0.4
			c-7.1,0.2-14.3,0.3-21.4,0.5c-0.4,0-0.7,0.2-1.3,0.3c0,0.8,0,1.6,0,2.3c0.1,3.6,0.3,7.3,0.4,10.9c0.1,2.2-0.1,4.4,0,6.5
			C357.4,772.9,357.7,775.1,357.9,777.6z M209,774.9c9.9,0.6,19.2,0.3,28.7,0.4c0.1-1.1,0.1-2,0.1-2.8c0-6.6,0-13.2,0-19.8
			c0-1.5,0.2-3,0.3-4.8c-1-0.2-1.9-0.5-2.8-0.6c-8.1-0.2-16.1-0.4-24.2-0.5c-0.7,0-1.3,0.1-2.3,0.2C209,756.4,209,765.6,209,774.9z
			 M194.1,533.3c0.6,1,1.1,1.6,1.5,2.3c0.7,1.6,2,1.9,3.6,1.9c34.3,0.2,68.7-0.2,103,0.3c30.4,0.5,60.8,0.1,91.1,0.1
			c0.5,0,1.1,0.1,1.6,0s1.1-0.3,1.4-0.7c0.7-0.8,1.2-1.8,1.9-2.9c-1-0.1-1.7-0.1-2.4-0.1c-20.2-0.3-40.4,0.1-60.6-0.4
			c-28.5-0.7-57,0.2-85.5-0.5c-17.7-0.4-35.4-0.1-53.1-0.1C195.9,533.3,195.2,533.3,194.1,533.3z M317.3,391c-1.9,1.3-2.8,3.1-4,4.7
			c-0.2,0.3-0.1,0.7,0,1.1c0.2,2.6,0.4,5.2,0.6,7.9c0.3,4.1,0.6,8.2,0.9,12.2c0.3,4.6,0.7,9.3,0.9,13.9c0.2,3.3,0.3,6.6,0.5,10
			c0,0.3,0,0.6,0.1,0.9c0.3,3.5,0.6,7.1,0.9,10.6c0.2,2.2,0.4,4.4,0.6,6.5c3.2,0.5,11.6,0.3,13.3-0.2c0-0.6,0.1-1.2,0-1.8
			c-0.3-2.5-0.6-4.9-1-7.4c-0.7-5.5-1.5-11-2.2-16.5c-0.7-5.6-1.3-11.2-2-16.8c-0.7-6-1.5-12-2.3-17.9c-0.1-0.4-0.1-1-0.4-1.3
			C321.3,394.9,319.3,393,317.3,391z M218.6,738.2c-0.3-1.2-0.7-2.1-0.7-2.9c-0.1-4-0.1-8.1,0-12.1c0-2.4,0.5-2.9,2.9-2.9
			c6.1,0,12.3,0,18.4,0c2.1,0,2.4,0.3,2.8,2.3c0.1,0.7,0.1,1.4,0.1,2.1c0,2.8-0.2,5.6,0.1,8.4c0.2,1.7,0,3-1.4,4.6
			c1.1-0.1,1.8-0.2,2.7-0.3c0-1.1,0-1.9,0-2.8c-0.1-6.9-0.3-13.8-0.4-20.7c-0.2-15.3,0.4-30.6-0.4-45.9c-0.3-5.4,0-10.9-0.1-16.3
			c0-1.8-0.2-3.7-0.5-5.5c-0.4-3-1.3-5.9-3.3-8.1c-3.6-4.1-7.5-7.9-11.2-11.8c-0.8-0.8-1.5-0.7-2.2,0c-0.2,0.2-0.5,0.4-0.7,0.7
			c-2.7,3-5.4,6-8,9.1c-1.7,2-2.9,4.4-3.1,7.1c-0.1,1.6-0.5,3.2-0.7,4.8c-0.4,3.5-1.3,7-1,10.6c0.2,2.2,0.5,4.5,0.3,6.7
			s-0.2,4.3,0,6.4c0.4,4.5,0.4,9,0.5,13.5c0.2,4.7-0.1,9.4,0.4,14.2c0.5,5.5,0.5,11.1,0.5,16.7c0.1,6.6,0,13.2,0,19.8
			c0,0.8,0.1,1.6,0.2,2.7C215.6,738.4,217.1,738.3,218.6,738.2z M273.5,460.1c0.4-5.1,0.8-9.7,1.1-14.3c0.4-5.4,0.7-10.8,0.9-16.2
			c0.2-4.3,0.4-8.7,0.5-13c0-0.3,0-0.6,0-0.9c0.3-3.9,0.6-7.9,0.9-11.8c0.1-1.5,0.3-3.1,0.4-4.6c0-0.6,0.1-1.3-0.1-1.8
			c-0.9-1.8-1.8-3.7-3.4-5.3c-1.7,2-3.3,3.9-4.9,5.8c-0.3,0.4-0.7,0.9-0.7,1.4c-0.5,3.9-1,7.8-1.5,11.7c-0.4,3.2-0.7,6.4-1.1,9.7
			c-0.4,3.2-0.8,6.4-1.2,9.6c-0.4,3.3-0.8,6.6-1.2,9.9c-0.4,3-0.7,6-1.1,9c-0.4,3.3-0.8,6.6-1.1,9.9c0,0.4,0,0.8,0,1
			C265.2,460.1,269.3,460.1,273.5,460.1z M349.8,700.1c0-1.1,0-1.9,0-2.8c-0.1-5.1-0.3-10.2-0.4-15.3c-0.3-9.5,0.1-18.9-0.4-28.4
			c-0.6-10.5-0.4-20.9-0.6-31.4c-0.1-6.4,0-12.9-0.1-19.3c0-2.6-0.4-5.2-0.6-7.9c0-0.1-0.2-0.2-0.3-0.4c-2.4-0.4-3.4-0.3-5.2,0.3
			c0,0.9,0,1.8,0,2.7c0.3,24.4-0.4,48.8,0.4,73.1c0.3,8.9,0.1,17.9,0.1,26.8c0,0.8,0.1,1.6,0.1,2.6
			C345.3,700.1,347.3,700.1,349.8,700.1z M394,503.7c0-0.7,0.1-1.2,0.1-1.6c-0.2-3.9-1.1-7.6-2.1-11.4c-1.1-3.9-2.7-7.6-5.2-10.8
			c-1.1-1.4-2.3-2.7-3.6-4c-2-2.1-4.1-4.2-6.2-6.2c-1.6-1.5-3.3-2.8-4.8-4.4s-2.7-3.3-4.1-5c-2.5,2-5,4.1-7.5,6.1
			c-2.7,2.1-5.6,4.2-8.3,6.4c-1.4,1.2-2.6,2.6-4,3.8c-2.9,2.6-4.9,5.7-6,9.5c-0.8,2.9-1.4,5.9-2.2,8.8c-0.7,2.8-0.8,5.6,0.3,8.5
			c2.7-0.1,5.4,0.2,8.4-0.2c0-0.9,0-1.8,0-2.6c0.1-1,0.1-2,0.3-3c1-4.1,1.8-8.2,3.1-12.2c0.9-3,2.3-5.8,5.2-7.8
			c2.3-1.5,4.7-2.5,7.3-3.5c3.1-1.2,6.3-1,9.1,0.3c3.3,1.5,6.2,3.9,8.2,7c3.6,5.4,5.5,11.4,6.1,17.9c0.2,1.4,0.4,2.9,0.7,4.3
			C390.5,503.7,392.1,503.7,394,503.7z M197.8,593.5c0,1.1,0,2,0,2.8c0.1,6.2,0.3,12.4,0.4,18.6c0.2,8.1-0.1,16.3,0.4,24.4
			c0.5,9.9,0,19.9,0.5,29.8c0.4,8.8,0.1,17.6,0.1,26.3c0,0.8,0.1,1.7,0.1,2.6c2.3,0.2,4.4,0.3,6.8,0c0-0.9,0-1.7,0-2.4
			c-0.1-2.9-0.3-5.7-0.4-8.6c-0.2-6.8,0.1-13.6-0.4-20.5c-0.6-7.3,0.1-14.7-0.5-22.1c-0.5-6.9,0-13.8-0.4-20.7
			c-0.6-9.2-0.4-18.5-0.6-27.7c0-0.8-0.1-1.6-0.1-2.6C201.7,593.5,199.9,593.5,197.8,593.5z M336.5,503.2c0.1-0.7,0.2-1.1,0.1-1.5
			c-0.6-3.7-1-7.5-2.1-11.2c-1.2-3.9-2.7-7.7-5.3-11c-2.6-3.4-5.9-6-9.7-7.7c-4.4-2-8.9-3.9-13.4-5.9c-0.2-0.1-0.4-0.3-0.6-0.4
			c-2.4-1.6-4.8-3.1-7.2-4.7c-1.8,1.1-3.8,2.4-5.9,3.4c-6.5,3.1-13.2,5.9-19.6,9c-4.5,2.2-8.5,5.3-11.1,9.7
			c-2.8,4.7-4.5,9.8-5.6,15.2c-0.3,1.3-0.3,2.7-0.4,4.3c2.1,0,4.1,0,6.1,0c0.1-0.4,0.2-0.7,0.2-1c0.5-5.3,2.5-10.1,5.5-14.4
			c3.5-5.1,7.9-9.3,13.3-12.4c4-2.3,8.3-3.9,12.9-4.2c4.4-0.3,8.8,0.3,13.2,1.2c5.1,1,9.4,3.4,13.5,6.5c1.6,1.2,3.4,2.2,4.4,4
			s2.1,3.6,3,5.5c0.6,1.2,1.1,2.4,1.5,3.6c1.1,3.9,2.1,7.9,3.1,12C333.7,503.2,335,503.2,336.5,503.2z M204.5,501.9
			c0.3-2.5,0.4-4.9,0.8-7.1c0.8-4.3,1.7-8.6,3.7-12.7c1.7-3.5,4.1-6.3,7.3-8.6c2.4-1.7,5.1-2.2,7.8-2.9c2.2-0.5,4.3-0.3,6.3,0.6
			c3.5,1.5,5.9,4.1,7.4,7.4c1.6,3.4,2.9,7,4.3,10.6c1.5,3.9,2.5,7.8,2.4,12c0,0.4,0.1,0.7,0.2,1c2.2,0.5,4.3,0.4,5.8,0
			c0-1.4,0.1-2.8,0-4.2c-0.2-2.2-0.5-4.5-0.8-6.7c-0.8-4.8-2.8-9-5.5-13c-1-1.5-2.2-3-3.5-4.3c-2.3-2.2-4.7-4.2-7-6.4
			c-3.2-3.1-6.4-6.3-9.5-9.3c-1.8,1.7-3.6,3.2-5.2,4.9c-3.1,3.3-6.1,6.8-10,9.3c-1.3,0.8-2.7,1.7-3.6,2.9c-1.7,2.3-3.3,4.7-4.4,7.3
			c-1.9,4.4-2.7,9.1-3,13.8c-0.1,1.7-0.3,3.5,0.2,5.4C200.2,501.9,202.3,501.9,204.5,501.9z M305.8,390.9c-2,2.5-4,4.3-3.6,7.7
			c0.6,5.8,0,11.6,0.5,17.4c0.5,6,0,12.1,0.4,18.1c0.5,7.4,0.4,14.9,0.6,22.3c0,0.8,0.1,1.6,0.2,2.4c3.6,0,6.9,0,10.5,0
			c0-1.3,0.1-2.4,0-3.6c-0.1-1.8-0.3-3.5-0.4-5.3c-0.2-2.6-0.3-5.3-0.5-7.9c-0.4-5-0.9-10-1.3-15c-0.3-4.3-0.6-8.6-0.9-13
			c-0.3-5.4-0.7-10.8-1-16.2c0-0.6,0-1.3-0.3-1.8C308.6,394.4,307.3,392.8,305.8,390.9z M288.2,459.6c0-2.2,0-3.9,0-5.6
			c0.1-18.4,0.1-36.9,0.2-55.3c0-1.9-1.9-5.1-4-6.6c-0.8,1.3-1.6,2.6-2.4,3.9c-0.4,0.6-1,1.3-1.1,2c-0.3,2-0.4,4-0.5,6
			c-0.2,3.7-0.3,7.4-0.5,11.1c0,0.1,0,0.2,0,0.2c-0.3,3.6-0.7,7.2-0.9,10.9c-0.2,3.9-0.3,7.7-0.5,11.6c0,0.2,0,0.3,0,0.5
			c-0.3,4.5-0.6,8.9-0.9,13.4c-0.1,1.2-0.3,2.5-0.3,3.7c-0.1,1.4,0,2.9,0,4.5C280.9,460.3,284.4,459.2,288.2,459.6z M300.9,580.6
			C309,597,317,613.2,325,629.4c0.4-0.8,0.5-1.5,0.4-2.1c-0.2-5.7,0.1-11.5-0.4-17.2c-0.5-7.1-0.4-14.3-0.6-21.4c0-2.3,0-4.5,0-6.8
			c0-0.6-0.1-1.2-0.2-2C316.5,579.9,308.8,579.7,300.9,580.6z M261.5,698.7c0.1-0.9,0.2-1.5,0.1-2.1c-0.1-1.9-0.4-3.7-0.4-5.5
			c-0.2-9.1,0-18.1-0.4-27.2c-0.5-12.1-0.4-24.2-0.6-36.3c0-4.1,0-8.2,0-12.3c-0.1-6.9-0.3-13.8-0.4-20.7c0-0.4-0.2-0.9-0.3-1.4
			c-1.9-0.2-3.7-0.4-5.6,0.1c0.1,1,0.3,1.9,0.3,2.8c0.2,8.2-0.2,16.4,0.4,24.7c0.6,8.4,0.1,16.9,0.4,25.3
			c0.6,12.6,0.4,25.3,0.6,37.9c0,0.7,0,1.4,0,2.1c0.2,3.9,0.3,7.9,0.5,11.8c0,0.2,0.2,0.4,0.3,0.7
			C258,698.7,259.6,698.7,261.5,698.7z M268.4,579.9c-0.5,16.9-0.8,33.3-0.2,49.8c7.8-16.6,15.5-33.2,23.5-50.3c-1.5,0-2.7,0-3.8,0
			c-1.9,0.1-3.8,0.3-5.8,0.4c-3.7,0.1-7.4,0-11.2,0C270.1,579.9,269.4,579.9,268.4,579.9z M334.7,593.9c-0.2,5.4-0.5,10.2-0.7,15.1
			c-0.3,11.6,0.2,23.1-0.4,34.7c-0.6,11.9,0.2,23.9-0.5,35.8c-0.4,6.2-0.1,12.4-0.1,18.6c0,0.6,0.1,1.2,0.2,1.9
			c2.1,0.3,4.1,0.4,6.3-0.1c0-1,0-1.9,0-2.8c-0.2-14.8,0-29.6-0.3-44.5c-0.4-18.4-0.1-36.8-0.1-55.2c0-0.9,0-1.8,0-2.8
			C337.4,594.3,336.1,594.1,334.7,593.9z M245.3,593.1c0,1.2,0,2,0,2.9c0.2,6.4,0.1,12.7,0.4,19.1c0.6,14.7-0.1,29.5,0.5,44.2
			c0.5,12.2,0.1,24.4,0.1,36.6c0,0.9,0.1,1.8,0.1,2.9c2.1-0.1,3.9,0.4,5.9-0.4c0-0.9,0-1.7,0-2.6c-0.2-7.5,0.1-15-0.4-22.6
			c-0.5-8.6,0.1-17.2-0.5-25.8c-0.5-7.4,0-14.9-0.4-22.3c-0.5-9.9-0.4-19.9-0.6-29.8c0-0.7-0.1-1.5-0.2-2.2
			C248.6,593.1,247.1,593.1,245.3,593.1z M319,363.4c0-0.4,0-0.9,0-1.3c-0.3-3-0.6-6-1-9c-0.1-1.1-1-1.2-1.9-1.3
			c-4.7-0.1-9.4-0.3-14.2-0.4c-4.7-0.1-9.3,0-14,0c-4,0-8.1,0-12.1,0c-1.8,0-2,0.3-2.1,2c-0.2,2.3-0.6,4.6-0.8,6.9
			c-0.1,1.1-0.1,2.3-0.2,3.3C275.7,364.2,316.9,364,319,363.4z M394.9,593c-1.6,0-2.9,0-4.2,0c-0.8,0-1.2,0.6-1.1,1.4
			c0.1,0.8,0.3,1.7,0.3,2.5c0.3,17.2-0.1,34.5,0.4,51.7c0.5,15,0.1,30,0.2,45c0,2,0.4,3.9,0.6,5.8c1.6,0,3,0,4.5,0
			c0-1.2,0-2.2,0-3.2c0-31.7,0.2-63.4-0.4-95c0-1.9,0-3.9,0-5.8C395,594.7,395,594,394.9,593z M404.2,528.2c-0.9,0-1.5-0.1-2.2-0.1
			c-32.3-0.3-64.6,0.3-96.9-0.4c-18.9-0.4-37.8-0.1-56.7-0.1s-37.8,0-56.7,0c-0.9,0-1.8,0.1-2.6,0.1c-0.4,1.5,0,2.1,1.3,2.1
			c0.4,0,0.8,0,1.2,0c24.4,0.3,48.8-0.2,73.2,0.4c20,0.5,40.1,0.1,60.2,0.2c7.1,0,14.3-0.4,21.4,0.3c2.8,0.3,5.7,0,8.5,0
			c15.9,0.1,31.7,0.1,47.6,0.1c0.6,0,1.2-0.2,1.9-0.3C404.3,529.8,404.2,529.1,404.2,528.2z M357.5,390.8c-0.3,1.3-0.6,2.3-0.8,3.4
			c-0.1,0.7-0.2,1.4,0,2c2.7,11.6,5.4,23.3,8,34.9c1.7,7.3,3.3,14.7,5,22c0.3,1.3,0.5,2.6,0.8,3.9c0.2,0.7,0.7,1.2,1.5,1.2
			c3,0,6,0,9.1,0c-2.1-7.3-4.1-14.4-6.2-21.6c-1.6-5.6-3.3-11.2-4.9-16.7c-2.2-7.7-4.4-15.5-6.6-23.3c-0.1-0.4-0.2-0.8-0.5-1
			C361.2,393.9,359.8,392,357.5,390.8z M295.4,391.4c-1.2,1.9-2.2,3.7-3.3,5.5c-0.2,0.3-0.2,0.8-0.2,1.1c-0.2,3.6-0.4,7.1-0.4,10.7
			c-0.1,16.1,0,32.2,0,48.2c0,0.8,0.1,1.5,0.1,2.2c2,0.9,3.4,0,4.8-1.1c0.5-0.4,1-1.1,1.7-1.2c0.6-0.2,1.4,0.2,2,0.3
			c0-0.7,0-1.4,0-2.1c0.1-1.2,0.3-2.3,0.2-3.5c0-1.4-0.3-2.8-0.4-4.2c-0.2-5.5-0.3-11-0.5-16.5c-0.2-6.7-0.3-13.5-0.5-20.2
			c-0.1-3.7-0.1-7.5,0-11.2C299,396.4,298.2,393.8,295.4,391.4z M215.2,502.2c0.5,0.1,0.8,0.2,1.1,0.2c7.8,0,15.7,0,23.5,0
			c0.4,0,0.8-0.2,1.2-0.4c-0.5-3-0.1-5.9-1.3-8.6c-0.6-1.4-1.1-2.8-1.4-4.2c-0.8-3.7-2.6-6.9-4.3-10.3c-0.4-0.9-1-1.2-2-1.3
			c-3.8-0.3-7,1.2-10,3.2c-2.5,1.7-3.8,4.2-4.9,6.9c-1,2.5-1.7,5.1-1.8,7.9C215.3,497.8,214.9,499.9,215.2,502.2z M320.6,376.8
			c0.1-0.3,0.2-0.6,0.2-0.8c-0.3-2.6-0.6-5.2-1-7.8c-0.1-0.8-0.6-1.4-1.6-1.4c-0.5,0-1.1,0-1.6,0c-13.8,0-27.6,0-41.4,0
			c-0.5,0-0.9,0-1.4,0c-1.5,0.1-1.7,0.3-1.9,1.8c-0.1,1.2-0.3,2.3-0.4,3.4c-0.2,1.5-0.3,3-0.4,4.6
			C272.8,377.1,316.8,377.3,320.6,376.8z M222,455.1c0.1-1.3,0-2.4,0.3-3.4c1.6-7.4,3.3-14.8,5-22.2c2.3-9.8,4.6-19.6,6.9-29.4
			c0.6-2.5,0.6-4.9-0.3-7.6c-0.7,0.5-1.4,0.9-1.9,1.4c-1.2,1.1-2.3,2.3-3.5,3.4c-0.8,0.7-1.2,1.5-1.4,2.6
			c-2.2,8.4-4.4,16.8-6.7,25.2c-2.4,8.8-4.8,17.5-7.1,26.2c-0.3,1.2-0.6,2.5-0.9,4c2.5,0.3,4.7,0.7,6.9,1
			C220.5,456.5,221.5,456,222,455.1z M377.5,503.2c0.1-0.4,0.3-0.7,0.2-1c-0.4-2.7-0.6-5.6-1.4-8.2c-1.6-5.7-5-10.3-9.4-14.2
			c-0.8-0.7-2-1.2-3.1-1.6c-0.7-0.2-1.6-0.1-2.2,0.2c-3.4,1.5-5.6,4.2-6.6,7.7c-1.4,5-2.5,10.1-3.7,15.1c-0.1,0.6,0,1.3,0,2
			C360.3,503.2,368.9,503.2,377.5,503.2z M321.1,380.5c-16.9,0-33.6,0-50.5,0c-0.5,3.8-0.9,7.4-1.4,11.2c0.4-0.2,0.6-0.2,0.8-0.4
			c0.8-0.8,1.5-1.5,2.2-2.4c1.5-1.7,3-1.6,4.2,0.3c0.9,1.4,1.8,2.8,2.9,4.5c1.2-1.7,2.2-3.2,3.2-4.8c1.3-2.1,2.6-2.2,4.1-0.3
			c0.2,0.2,0.3,0.5,0.5,0.8c1,1.3,1.9,2.5,3.1,4.1c1-1.6,1.8-2.9,2.6-4.2c1.8-3.1,3.1-3.2,5.3-0.4c0.2,0.3,0.4,0.7,0.7,1
			c0.5,0.7,1.1,1.3,1.7,2.2c0.7-0.9,1.1-1.4,1.5-2c0.5-0.6,0.9-1.3,1.4-1.9c1.2-1.6,2.8-2.3,4.7,0.2c1,1.3,1.8,2.9,3.5,3.8
			c1.1-1.3,2.1-2.5,3.1-3.8c1.7-2.2,2.6-2.3,4.5-0.4c1.1,1.1,2.2,2.1,3.6,3.6c-0.4-3.3-0.6-6.1-1-8.8
			C321.6,382,321.3,381.3,321.1,380.5z M277.4,322.4c1.2,0,2.1,0,2.9,0c10.7-0.1,21.4-0.3,32.1-0.4c0.5,0,1-0.1,1.8-0.2
			c-0.5-4.3-1.1-8.5-1.6-12.6c-3.4-0.5-32-0.3-33.8,0.2C278.5,313.5,278,317.7,277.4,322.4z M262.3,392.9c-2.1,2.3-3.1,4.2-3.5,6.7
			c-0.6,3.6-1.2,7.2-1.7,10.7c-0.5,3.4-1,6.7-1.5,10.1c-0.4,3-0.8,6-1.2,8.9c-0.5,3.4-1.1,6.7-1.6,10.1c-0.6,4.1-1.2,8.3-1.7,12.4
			c-0.3,2.5-0.6,5-0.9,7.5c2.4,1,4.7,0.7,7.2,0.5c0.2-1.9,0.4-3.7,0.7-5.4c0.4-3.3,0.9-6.6,1.3-9.9c0.5-4.2,1-8.4,1.5-12.7
			c0.4-3.4,0.9-6.7,1.3-10.1c0.4-3.1,0.7-6.3,1.1-9.4c0.5-4.3,1.2-8.6,1.7-12.9c0.1-0.7,0-1.4-0.3-2
			C263.9,396,263.2,394.6,262.3,392.9z M314.7,325.3c-1.1,0-1.8,0-2.4,0c-11.2,0.1-22.3,0.3-33.5,0.5c-0.5,0-1,0.2-1.6,0.3
			c-0.4,3.5-1.4,6.7-0.9,10.2c0.8,0.1,1.4,0.1,2,0.1c1.6,0,3.3,0,4.9,0c10.5-0.1,20.9-0.3,31.4-0.4c0.4,0,0.9-0.1,1.4-0.2
			C315.6,332.3,315.2,328.9,314.7,325.3z M270.7,351.7c-0.3-0.2-0.4-0.2-0.4-0.2c-9.5,0-19.1,0-28.6-0.1c-1,0-1.6,0.5-1.8,1.4
			c-0.5,1.7-0.9,3.4-1.4,5.2c-0.5,1.9-1,3.7-1.5,5.8c1,0.1,1.7,0.1,2.5,0.1c9.1,0,18.3,0,27.4,0c0.4,0,0.8,0,1.2,0
			c1.1,0,1.5-0.6,1.6-1.6C269.9,358.8,270.3,355.3,270.7,351.7z M267.6,748c-4-0.5-11.2-0.3-12.7,0.3c-0.5,4-0.3,25.7,0.3,27.5
			c4-0.4,8.2,0.7,12.4-0.1C267.6,766.3,267.6,757.2,267.6,748z M321.1,352c0.4,3.5,0.9,6.8,1.2,10c0.2,1.8,0.6,2.1,2.4,1.9
			c1.3-0.2,2.6-0.3,3.9-0.3c7.5,0,14.9,0,22.4,0c0.8,0,1.6-0.1,2.7-0.2c-1-3.3-1.9-6.3-2.7-9.2c-0.6-2.3-0.7-2.2-3-2.2
			c-8.2,0-16.5,0-24.7,0C322.6,351.8,321.9,351.9,321.1,352z M310.9,294.6c-0.9,0-1.6-0.1-2.3-0.1c-8.5,0-16.9,0-25.4,0
			c-0.4,0-0.8,0-1.2,0c-1.3,0.1-1.6,0.4-1.7,1.7c-0.3,2.5-0.6,4.9-0.9,7.4c-0.1,0.6,0,1.2,0.1,1.8c0.4,0.1,0.6,0.3,0.8,0.3
			c9.9,0,19.7,0,29.6,0.1c0.5,0,1.1-0.1,1.6-0.2c0.1,0,0.1-0.1,0.2-0.1c0.1-0.1,0.1-0.1,0.4-0.4
			C311.7,301.7,311.3,298.3,310.9,294.6z M281,291.2c5.1,0,9.9,0,14.7,0c4.7,0,9.5,0,14.3-0.5c0-1.2,0.1-2.2,0-3.2
			c-0.2-1.9-0.6-3.8-0.8-5.7c-0.3-2.5-0.4-2.6-2.8-2.6c-7.3,0-14.6,0-21.9,0c-0.7,0-1.4,0.1-2.2,0.2
			C281.9,283.2,281.5,287,281,291.2z M357.5,376.9c-1-3.4-1.9-6.7-2.9-9.9c-10.6,0-21.1,0-31.5,0c0.1,3.4,0.5,6.7,1.3,9.9
			C335.5,376.9,346.4,376.9,357.5,376.9z M267.6,376.8c0.3-3.3,1.3-6.4,1-9.8c-1.1-0.1-2.1-0.2-3.1-0.2c-3.2-0.1-6.3,0.4-9.5,0.3
			c-5.2-0.3-10.5,0.1-15.8,0.2c-1,0-2,0-3,0c-0.8,0-1.3,0.3-1.5,1.1c-0.7,2.8-1.5,5.5-2.3,8.5C244.8,376.8,256.1,376.8,267.6,376.8z
			 M342.3,777c0-1.1,0-1.9,0-2.8c-0.1-3.2-0.3-6.5-0.4-9.7c-0.2-4-0.3-8-0.5-12.1c-0.1-1.5-0.3-1.7-1.8-1.8c-2.2-0.1-4.5,0-6.7,0
			c-1.1,0-2.1,0-3.1,0c-0.6,2.7-0.5,19.5,0.1,26.4C333.8,777,337.9,777,342.3,777z M268.2,502.8c0.9-2.9,1.7-5.6,2.5-8.2
			c1.7-5.6,5.5-9.4,10.5-12.2c3.3-1.8,6.7-3.2,10.5-3.5c4.3-0.3,8.6-1.3,12.9-0.2c2.8,0.7,5.6,1.3,8.1,2.8c3.1,1.9,6,4,8.4,6.8
			c1.6,1.9,2.9,4,3.5,6.4c0.6,2.2,1,4.5,1.4,6.8c0.3,1.4,0.7,1.7,2.7,1.5c-0.1-0.7-0.1-1.3-0.2-2c-0.8-3-1.5-6-2.4-9
			c-1.2-4-3.2-7.6-6.3-10.4c-1.6-1.4-3.5-2.6-5.3-3.8c-1-0.7-2.1-1.4-3.2-1.8c-3.8-1.3-7.8-2.2-11.8-2.5c-5.6-0.4-11.1,0.3-16.2,3.2
			c-5.1,2.9-9.4,6.8-12.9,11.5c-2.7,3.6-4.1,7.8-5.1,12.1c-0.1,0.6-0.2,1.1-0.3,1.8C266.2,502.5,267.2,502.7,268.2,502.8z
			 M339.9,458.5c0-1.2,0.1-2.2,0-3.1c-0.7-4.5-1.5-9-2.2-13.5c-1-6.8-1.9-13.6-2.9-20.4c-1-7-2.2-14.1-3.2-21.1
			c-0.4-2.8-1-5.4-2.9-7.7c-2.3,2.3-1.9,5.1-1.6,7.9c0.4,3.2,0.8,6.4,1.2,9.7c0.4,3.1,0.8,6.3,1.2,9.4c0.5,3.8,1.1,7.7,1.5,11.5
			c0.4,3.2,0.7,6.5,1.1,9.7c0.6,4.6,1.2,9.2,1.8,13.8c0.2,1.3,0.5,2.5,0.7,3.9C336.4,458.5,338,458.5,339.9,458.5z M257.8,393.2
			c0.7-1.1,1.1-1.7,1.4-2.3c0.4-0.6,0.7-1.2,1.1-1.8c1.2-1.9,2.6-1.8,3.7,0.1c0.5,0.9,1,1.9,1.7,3.2c0.6-4.2,1.1-8,1.5-11.9
			c-11.7,0-23.2,0-34.8,0c-1,3.6-1.9,7.1-2.9,10.5c0.1,0.1,0.2,0.2,0.4,0.3c0.6-0.5,1.3-0.9,1.9-1.4c0.9-0.8,1.6-1.7,2.6-2.4
			c1.6-1.1,2.8-0.5,3.1,1.4c0.1,0.8-0.2,1.7,0.6,2.6c0.5-1,0.9-1.8,1.5-2.6c1-1.5,2.4-1.4,3.3,0.2c0.3,0.5,0.4,1.2,0.6,1.7
			c0.2,0.5,0.4,0.9,0.8,1.5c0.9-1.3,1.6-2.4,2.4-3.5c1.2-1.6,2.7-1.4,3.5,0.5c0.4,0.9,0.7,1.8,1.1,3.2c0.8-1.4,1.4-2.4,1.9-3.4
			c0.4-0.8,0.9-1.4,2-1.3c1.2,0,1.6,0.9,1.9,1.8C257.2,390.5,257.4,391.6,257.8,393.2z M348.2,457.6c0.1-0.7,0.2-1.2,0.1-1.7
			c-0.6-4.1-1.3-8.2-2-12.4c-0.9-5.3-1.8-10.7-2.6-16c-0.8-5.3-1.6-10.7-2.5-16c-0.7-4.5-1.6-9-2.2-13.5c-0.3-2.6-2.1-4.2-3.4-6.5
			c-0.8,2.1-1.9,3.5-1.3,5.6s0.7,4.4,1,6.6c0.5,3.7,1.1,7.5,1.7,11.2c0.7,4.5,1.4,9,2.1,13.5c0.6,3.7,1.1,7.5,1.7,11.2
			c0.5,3.6,1.1,7.2,1.6,10.8c0.4,2.5,0.8,5,1.2,7.8C345.1,458,346.5,457.8,348.2,457.6z M262.9,510.4c-0.5,2.7-0.5,12,0.1,14
			c22.3,0,44.6,0,66.9,0c0.5-3.2,0.1-10.6-0.7-13.3c-0.5,0-1-0.1-1.5-0.1c-13.3-0.2-26.5,0.3-39.8-0.4c-7.4-0.4-14.9-0.1-22.4-0.1
			C264.7,510.4,263.9,510.4,262.9,510.4z M366,452.9c0-0.7,0.1-1.1,0-1.4c-2.5-11.1-5.1-22.2-7.7-33.3c-1.6-6.8-3.3-13.6-4.7-20.4
			c-0.6-2.7-2.3-4.5-3.8-6.9c-1.2,1.9-1.1,3.6-0.8,5.3c1.2,6.4,2.5,12.8,3.7,19.1c2,10.2,4,20.3,6,30.5c0.5,2.3,1,4.7,1.5,7
			C362.2,452.9,364,452.9,366,452.9z M254.1,393.4c-0.8,2-1.7,3.7-2.1,5.4c-1,4.4-1.7,8.8-2.5,13.2c-1.2,6.3-2.4,12.6-3.6,18.9
			c-0.7,3.8-1.3,7.6-2,11.4c-0.5,2.7-1.1,5.3-1.6,7.9c-0.5,2.8-1,5.6-1.5,8.5c2,0.2,3.8,0.4,5.7,0.6c0.4-2.6,0.8-5,1.2-7.3
			c0.3-1.8,0.6-3.7,0.9-5.5c0.5-4,1-8,1.6-12c0.7-4.7,1.5-9.3,2.2-14c0.9-6.1,1.8-12.2,2.7-18.4
			C255.3,399.5,256.3,396.6,254.1,393.4z M342.9,391.6c-0.3,1.5-1,2.9-0.8,4.1c0.7,5.2,1.6,10.4,2.4,15.6c0.7,4,1.4,8.1,2,12.1
			c0.8,4.7,1.5,9.5,2.2,14.2c0.7,4.5,1.3,9,2,13.5c0.3,2.2,0.8,4.3,1.2,6.8c1.7-2,3.1-3.7,4.7-5.5c-2-10.5-4.1-21.2-6.2-31.9
			c-1.3-6.8-2.7-13.5-4-20.3C345.9,397.2,345.4,394.2,342.9,391.6z M251.2,775.6c0-9.3,0-18.4,0-27.6c-3.2,0-6.2,0-9.6,0
			c0.2,9.3-1,18.4-0.3,27.6C244.8,775.6,247.9,775.6,251.2,775.6z M308.2,275.7c0-0.8,0.1-1.4,0.1-1.9c-0.3-2.6-0.6-5.2-1-7.8
			c-0.2-1.4-0.6-1.7-2-1.7c-2.9,0.1-5.9,0.3-8.8,0.3c-3.5,0.1-6.9,0.1-10.4,0.1c-2.1,0-2.4,0.3-2.5,2.4c-0.1,1.1-0.3,2.1-0.4,3.2
			c-0.2,1.7-0.3,3.5-0.4,5.4C291.3,275.7,299.6,275.7,308.2,275.7z M397.8,572.5c-0.6-1.3-1.4-0.9-2.2-0.9
			c-13.4-0.3-26.7,0.2-40.1-0.4c-13.6-0.6-27.3,0.1-41-0.5c-14.6-0.6-29.2,0.1-43.8-0.5c-13.8-0.6-27.6,0.2-41.5-0.4
			c-10.7-0.5-21.4-0.1-32.2-0.1c-0.5,0-1,0.2-1.6,0.3c1,1.1,1,1.1,2,1.1c9,0.1,18,0.1,27,0.4c16.5,0.5,33.1-0.1,49.6,0.5
			c18.3,0.6,36.7-0.2,55,0.5c7.2,0.3,14.5,0,21.7,0.1c8.8,0.1,17.7-0.2,26.5,0.3c6.2,0.4,12.4,0.1,18.6,0.1
			C396.7,572.8,397.2,572.6,397.8,572.5z M350.4,541.3c0.3,6.4,0.6,12.6,0.9,18.7c3.2,0.5,33.5,0.4,35.1-0.1
			c0.5-2.8,0.3-16.9-0.2-18.6C374.4,541.3,362.5,541.3,350.4,541.3z M332,390.9c0.7-1.3,1.3-2.5,2-3.5c0.9-1.2,1.6-1.2,2.7-0.2
			c0.4,0.4,0.8,1,1.1,1.5c0.5,0.7,1,1.5,1.7,2.5c0.5-1.4,0.9-2.4,1.3-3.4c0.9-1.9,2.3-2,3.5-0.4c0.6,0.8,1.1,1.6,1.8,2.6
			c0.4-0.7,0.7-1.1,0.9-1.6c0.5-1,1.1-2.3,2.3-2.4c1.4-0.1,2,1.3,2.7,2.3c0.5,0.8,1,1.6,1.7,2.7c0.3-0.9,0.5-1.3,0.6-1.8
			c0.2-0.5,0.3-1.1,0.4-1.6c0.7-1.9,1.8-2.2,3.4-1c0.5,0.4,0.9,0.9,1.4,1.3c0.4,0.3,0.8,0.6,1.5,1.1c-0.7-2.5-1.3-4.5-1.9-6.5
			c-0.6-2.3-0.6-2.3-3-2.3c-9.7,0-19.4,0-29.1,0c-0.8,0-1.5,0.1-2.5,0.1c0.4,3.1,0.8,6,1.2,9.5c0.6-1,0.9-1.4,1.2-1.8
			c1.2-1.7,2.5-1.7,3.6,0.1C331.1,389,331.5,389.9,332,390.9z M237.7,457c1.5-8,2.9-15.7,4.4-23.5c1.4-7.2,2.7-14.4,4.1-21.7
			c0.9-4.6,1.7-9.1,2.6-13.7c0.4-1.8-0.4-3.2-1.3-4.9c-1,2.1-2.3,3.6-2.7,5.7c-1.3,7.1-2.8,14.1-4.3,21.1c-1,5-2,10-3.1,15
			c-1.2,5.9-2.5,11.8-3.8,17.8C234.8,454.2,236.1,455.5,237.7,457z M239.7,347.9c37.4-0.2,74.7,1.1,112.2,0.5
			c-1.7-1.9-3.6-2.8-6-2.7c-11.6,0.3-23.1-0.1-34.7,0.4s-23.1,0.1-34.7,0.1c-10.9,0-21.7,0-32.6,0
			C242.3,346.2,240.8,346.6,239.7,347.9z M225.3,453.6c1.6-0.5,2.8-0.9,3.9-1.4c0.9-0.4,1.5-1,1.7-2c1-5,2.1-10,3.2-15
			c1.4-6.7,2.7-13.5,4-20.3c1.1-5.3,2.3-10.6,3.4-15.9c0.4-1.8,0-3.4-1.3-5.3c-0.8,1.7-1.7,3.1-2.1,4.5c-0.7,2.5-1.2,5.1-1.8,7.7
			c-2.5,10.7-5,21.4-7.4,32.2C227.6,443.1,226.5,448,225.3,453.6z M354.3,777.6c0.1-1,0.2-1.6,0.1-2.2c-0.1-2.4-0.3-4.8-0.4-7.2
			c-0.2-5.3-0.3-10.5-0.5-15.8c0-0.4-0.2-0.9-0.3-1.3c-2.8-0.2-5.5-1.1-8.5-0.2c0,0.9,0,1.6,0,2.4c0.2,4.7,0.3,9.4,0.5,14.1
			c0,1.1-0.1,2.2,0,3.3c0.2,2.2,0.4,4.4,0.6,6.7c0.7,0.1,1.2,0.2,1.7,0.2C349.7,777.6,351.9,777.6,354.3,777.6z M284.8,260.6
			c2.5,0.6,19.8,0.4,21.6-0.2c-0.6-3.6-0.5-7.4-1.7-11.1c-4,0.1-7.8,0.3-11.5,0.4c-1.9,0.1-3.9,0-5.8,0c-0.6,0-1.2,0.1-1.8,0.2
			c-0.2,1.9-0.5,3.7-0.6,5.4C284.9,257.1,284,258.8,284.8,260.6z M254.5,305.5c7.1,0,14.2,0,21.5,0c-0.1-3.7,1.5-7.2,0.8-10.9
			c-0.8-0.1-1.3-0.1-1.9-0.1c-5.3,0.1-10.5,0.2-15.8,0.4c-2.4,0.1-2.4,0.1-3,2.2c-0.5,1.6-1.1,3.2-1.4,4.9
			C254.6,303.1,253.8,304.1,254.5,305.5z M241.9,558.8c0-6.2,0-11.9,0-18c-12.1-0.1-24,0-36,0c0,6,0,11.7,0,17.5
			C217.9,558.7,229.8,559.1,241.9,558.8z M399,777.9c0-0.6,0.1-1.1,0.1-1.5c-0.1-1.6-0.3-3.2-0.4-4.8c0-6.4,0-12.7,0-19.1
			c0-0.8-0.1-1.7-0.1-2.6c-2.6,0-5.1,0-7.6,0c-0.5,9.4-0.9,18.7-0.5,28.1C393.4,777.9,396.1,777.9,399,777.9z M314.4,294.7
			c0.1,1.3,0.1,2.3,0.2,3.4c0.2,1.8,0.6,3.5,0.7,5.3c0.2,2.2,0.2,2.3,2.5,2.3c5.8,0,11.5,0,17.3,0c0.4,0,0.9-0.1,1.5-0.2
			c-1.2-3.9-2.3-7.5-3.4-11.4C327,294.2,320.8,293.5,314.4,294.7z M208.8,651.9c0.4-2.8,0.7-5.4,1.1-8c0.6-3.6,1.6-6.9,4.2-9.7
			c1.2-1.3,2.4-2.6,3.5-4c2-2.6,4.4-4.8,7.1-6.6c2.1-1.4,3-1.4,5,0.2c0.5,0.4,1,1,1.5,1.5c1.5,1.5,3.1,3.1,4.6,4.6
			c1,1,2.1,2,3.1,3.1c1.1,1.2,2.2,2.4,3.6,3.9c0-0.8,0.1-1.2,0-1.5c-0.8-2.8-1.7-5.6-3.9-7.8c-3.5-3.5-7-7-10.5-10.5
			c-0.8-0.8-1.5-0.7-2.3-0.2c-2.8,2.1-5.9,3.8-8.1,6.5c-0.5,0.7-1,1.4-1.6,2c-2,1.6-4,3.2-6,4.8c-1.4,1.1-2.1,2.3-2,4.2
			c0.3,5.7,0.4,11.5,0.5,17.2C208.5,651.4,208.6,651.5,208.8,651.9z M258,290.8c0.4,0.2,0.6,0.3,0.8,0.3c5.8,0,11.5,0,17.3,0
			c1.3,0,1.6-0.4,1.8-1.9c0.3-2.8,0.6-5.5,0.9-8.3c0.1-0.5-0.1-1-0.1-1.5c-0.3-0.1-0.5-0.3-0.8-0.3c-5.1,0-10.3,0-15.4-0.1
			c-1.1,0-1.5,0.6-1.8,1.5c-0.5,2-1,3.9-1.5,5.8C258.9,287.9,258.4,289.4,258,290.8z M205.3,510.3c0,1.8-0.1,3.5,0,5.2
			c0.1,2.4,0.3,4.8,0.4,7.2c0,1,0.6,1.4,1.4,1.5c0.5,0.1,1.1,0.1,1.6,0.1c10.2,0,20.4,0,30.5,0c0.7,0,1.4-0.1,2.3-0.2
			c-0.3-4.6,0.9-9,0.3-13.4C238.8,509.9,208.7,509.5,205.3,510.3z M198.6,774.8c2.4,0,4.7,0.2,6.9-0.1c0.5-4.2,0.3-25.6-0.3-27.3
			c-2.4,0-4.8-0.3-7.2,0.2C197.4,752.3,197.8,771.1,198.6,774.8z M288.7,191.6c0,1.4,0,2.6,0,3.8c0.1,2.8,0.3,5.6,0.4,8.3
			c0.1,1.7,0,3.4,0,5.1c0,0.5,0.2,1,0.3,1.4c3.6-0.1,7.1-0.2,10.5-0.3c0.5-2.3,0.5-16.3,0-18.3C296.4,191.6,292.8,191.6,288.7,191.6
			z M331,575.9c-1.6-0.2-3-0.6-4.4-0.6c-8.9-0.1-17.7,0-26.6,0c-0.5,0-0.9,0.2-1.4,0.3c0,0.2-0.1,0.3-0.1,0.5
			c0.6,0.3,1.3,0.9,1.9,0.9c4.4,0.1,8.7,0.1,13.1,0c3.8-0.1,7.6-0.3,11.4-0.4c2,0,2.9,1,3,3c0.2,7.5,0.3,15,0.5,22.6
			c0.2,9.7,0.3,19.4,0.5,29.1c0,1.8,0.5,3.6,0.3,5.3c-0.1,1.4,0.4,2.4,1.3,3.5C330.3,618.8,331.6,597.4,331,575.9z M313.6,290.7
			c2.3,0,4.3,0,6.3,0s4,0,6.1,0c2,0,4,0.2,6.1-0.2c-0.9-3.3-1.7-6.4-2.6-9.4c-0.5-1.8-0.6-1.9-2.6-2c-4.5,0-9,0-13.5,0
			c-0.4,0-0.7,0.1-1.2,0.2C312.7,283.2,313.2,286.9,313.6,290.7z M304.3,246c0.3-2.7-0.8-9.7-1.6-11.5c-5,0-10,0-15.1,0
			c-1,3.9-0.9,7.8-1.6,11.5C292.2,246,298.2,246,304.3,246z M194.8,770.8c-17.5,0-34.8,0-52.3,0c0,1,0,1.9,0,2.9
			c0.5,0.1,0.9,0.2,1.3,0.2c6.4,0.2,12.7,0.4,19.1,0.4c5.7,0.1,11.3,0,17,0.1c4.2,0.1,8.4,0.3,12.5,0.4c0.8,0,1.6-0.1,2.4-0.1
			C194.8,773.2,194.8,772.1,194.8,770.8z M343.2,716.2c-0.6,2.7-0.4,23.7,0.1,25.3c1.8,0.2,3.7,0.5,5.5,0.6c1.6,0.1,1.9-0.3,1.7-1.9
			c-0.1-1-0.2-2-0.2-3c0-6.1,0-12.2,0-18.4c0-0.8-0.1-1.7-0.1-2.6C347.7,716.2,345.5,716.2,343.2,716.2z M238.6,733.7
			c0.5-5.1,0.3-8-0.7-10c-3-0.4-15-0.3-16.6,0.2c-0.4,2.5-0.3,8.4,0.2,10.3C227.2,734,232.9,734.7,238.6,733.7z M195,505.7
			c0,0.1,0,0.2,0,0.3c2.2,0.2,4.4,0.5,6.7,0.6c18.4,0.3,36.8-0.2,55.2,0.4c18.9,0.6,37.9-0.2,56.8,0.5c17.2,0.6,34.5-0.4,51.7,0.5
			c2.8,0.1,5.6,0,8.4,0c7.1,0,14.3,0,21.4,0c0.8,0,1.6,0.3,2.6-0.7c-0.8-0.1-1.3-0.2-1.8-0.3c-10.7-0.2-21.4,0-32.1-0.4
			c-19.7-0.6-39.4,0.2-59.2-0.5c-19.3-0.6-38.7,0.1-58-0.4c-16.5-0.5-32.9-0.1-49.4-0.1C196.5,505.7,195.8,505.7,195,505.7z
			 M386.6,642.5c0.1-0.1,0.2-0.1,0.3-0.2c-0.1-1.3-0.3-2.6-0.2-3.9c0.2-2.1-0.5-4-1.6-5.7c-1.5-2.3-3.3-4.3-5.7-5.8
			c-2.3-1.5-4.7-2.9-7.1-4.4c-0.7-0.4-1.4-0.9-2-1.5c-1.5-1.6-2.9-3.3-4.5-5.1c-1.1,1.2-2.1,2.5-3.2,3.6c-2.8,2.9-5.6,5.8-8.6,8.5
			c-2.3,2-2,4.4-1.6,7.1c0.4-0.3,0.7-0.5,0.9-0.7c3.4-3.9,7.6-7,11.5-10.5c1.5-1.4,2.2-1.5,3.9-0.4c1.1,0.6,2.1,1.4,3.1,2
			c5.3,3.4,10.1,7.5,12.8,13.4C385.1,640.2,385.9,641.4,386.6,642.5z M280.4,264.8c-5.4,0-10.3,0-15.4,0c-0.9,3.6-1.9,7.2-2.8,10.7
			c3.1,0.5,15.2,0.4,17.1-0.2C279.7,272,280.1,268.6,280.4,264.8z M339.4,741.5c0.1-0.8,0.2-1.5,0.2-2.2c0-7,0-14,0-21
			c0-0.4,0-0.8,0-1.2c-0.1-1-0.7-1.6-1.7-1.5c-1.6,0.1-3.2,0.2-5,0.3c-0.4,2-0.2,4.1-0.2,6.3c0,2.1,0,4.2,0,6.3c0,2.2,0,4.3,0,6.5
			c0,2.1-0.2,4.3,0.2,6.4C335.1,741.5,337.1,741.5,339.4,741.5z M402.4,769.9c-0.7,3.1-0.4,3.5,2.4,3.5c12.9,0,25.7,0,38.6,0
			c0.7,0,1.5-0.1,2.2-0.1c0-1.6,0-2.9,0-4.3c-1.7,0-3.1,0-4.6,0c-0.7,0-1.4,0.3-2.1,0.3c-9.8,0.2-19.5,0.3-29.3,0.5
			c-1.9,0-3.7,0-5.6,0C403.6,769.7,403,769.8,402.4,769.9z M328,275.7c-1.1-3.7-2.1-7.1-3.1-10.5c-0.3-1-1.2-1-2.1-1
			c-3.6,0-7.3,0-10.9,0c-0.4,0-0.9,0.1-1.5,0.2c0.5,3.8,1,7.5,1.5,11.4C317.2,275.8,322.4,275.9,328,275.7z M386.9,524.7
			c0.1-0.8,0.2-1.4,0.2-2c0-3,0-5.9,0-8.9c0-2.3-0.2-2.5-2.5-2.5c-10.4,0-20.8,0-31.2,0c-0.6,0-1.2,0.1-2,0.2
			c-0.1,4.4-0.2,8.7-0.3,13.1C362.9,524.7,374.8,524.7,386.9,524.7z M258.4,480.6c0.1,0.1,0.3,0.1,0.4,0.2c0.6-0.7,1.1-1.4,1.7-2.1
			c1-1.2,2-2.6,3.2-3.6c4.1-3.3,8.7-5.9,13.6-8c2.7-1.2,5.4-2.5,8.1-3.8c-1.1-0.3-2.1-0.3-3.2-0.3c-3.2,0.1-6.3,0.3-9.5,0.4
			c-3.6,0.1-7.1,0.2-10.7,0.4c-1.6,0.1-1.6,0.1-1.8,1.6c-0.6,4.4-1.2,8.9-1.8,13.3C258.4,479.3,258.4,479.9,258.4,480.6z
			 M301.1,218.2c-0.6-0.1-1-0.2-1.4-0.1c-3.1,0.1-6.2,0.3-9.3,0.4c-1.2,0.1-1.6,0.5-1.8,2c-0.3,2.8-0.6,5.5-0.9,8.3
			c-0.1,0.7,0.1,1.3,0.1,2.1c4.9,0,9.7,0,14.7,0C302.4,226.6,301.5,222.5,301.1,218.2z M206.6,713.4c-2.5-0.2-4.6-0.3-6.7,0.1
			c-0.1,0.4-0.2,0.6-0.2,0.8c-0.2,7.7,0,15.3,0.5,23c0,0.2,0.2,0.4,0.4,0.8c2-0.5,4.1,0.9,6.4,0.1c0-0.9,0-1.7,0-2.4
			c-0.1-2.5-0.4-4.9-0.4-7.4c-0.1-3.9,0-7.7,0-11.6C206.6,715.7,206.6,714.7,206.6,713.4z M307.9,462.4c0,0.1,0,0.3-0.1,0.4
			c4.1,1.9,8.3,3.8,12.4,5.7c4.1,1.8,7.7,4.3,10.7,7.6c0.9,1,1.7,2.2,2.5,3.3c0.2-0.9,0-1.7-0.1-2.5c-0.5-4.2-1-8.4-1.5-12.7
			c-0.2-1.4-0.6-1.8-2-1.8C322.7,462.4,315.3,462.4,307.9,462.4z M281.1,260.7c0.1-3.7,1.1-7.2,0.9-11c-3.9,0-7.6,0-11.3,0
			c-1.2,0-1.6,0.8-1.9,1.7c-0.8,2.7-1.5,5.4-2.2,8.1c-0.1,0.5-0.1,1-0.1,1.8C271.4,261.1,276.2,260.9,281.1,260.7z M252.9,738.7
			c0.6-3,0.2-20.3-0.5-23.4c-1.8,0-3.6,0-5.3,0c-0.5,2.2-0.5,21.4,0,23.4C249,738.7,250.9,738.7,252.9,738.7z M323.7,260.7
			c-1.2-4.1-2.4-7.7-3.5-11.3c-4,0-7.8,0-11.7,0c0.5,3.9,1,7.6,1.4,11.3C314.5,260.7,318.9,260.7,323.7,260.7z M316.2,309.1
			c0.2,4.4,0.8,8.5,1.5,12.5c1.2,0.6,1.7,0.1,2-0.8c0.3-0.8,0.4-1.7,0.7-2.5c1-3.2,3-4.7,6.3-4.8c3.4-0.1,6.7,0.2,9.7,1.9
			c1,0.6,2.2,1,3.5,1.7c-0.6-2.2-1.2-4.1-1.8-6.1c-0.6-2.1-0.6-2.2-2.8-2.2c-5.6,0-11.2,0-16.8,0C317.9,308.9,317.2,309,316.2,309.1
			z M317,760.7c-0.4-0.1-0.6-0.3-0.8-0.3c-11.8,0-23.6,0-35.4,0c-0.6,0-1.2,0.1-1.8,0.2c-0.1,0-0.1,0.1-0.2,0.1
			c-0.1,0.1-0.1,0.1-0.2,0.2c0,1,0,1.9,0,2.9c0.4,0.1,0.6,0.3,0.8,0.3c11.9,0,23.7,0,35.6,0c0.5,0,1.1-0.1,1.6-0.2
			c0.1,0,0.1-0.1,0.2-0.1c0.1-0.1,0.1-0.1,0.2-0.2C317,762.6,317,761.7,317,760.7z M316.5,339.3c-1,0-1.8,0-2.7,0
			c-6.7,0.1-13.3,0.3-20,0.4c-5.4,0.1-10.7,0-16.1,0c-2.4,0-2.8,0.5-2.2,3.1c13.7,0,27.5,0,41.4,0
			C316.8,341.6,316.7,340.7,316.5,339.3z M279.1,770.9c2.7,0,5.2,0,7.7,0c2.6,0,5.1,0.1,7.7,0.1s5.1,0,7.7,0s5.1,0,7.7,0
			c2.5,0,5.1,0.2,7.8-0.2c-0.1-1.3-0.1-2.3-0.2-3.3c-0.6-0.1-0.9-0.2-1.2-0.2c-11.9,0-23.8,0-35.7,0c-0.5,0-1,0.2-1.5,0.3
			C279.1,768.8,279.1,769.8,279.1,770.9z M264.2,636.7c1-1.1,0.7-2,0.7-2.9c0-17.8,0-35.6,0-53.4c0-3.1,1-3.2,3.2-3.5
			c1.7-0.2,3.4-0.2,5.1-0.2c5.8,0,11.7,0,17.5,0c0.6,0,1.3,0.1,1.9-0.1c0.3-0.1,0.5-0.5,0.9-0.9c-2.5-0.7-28.3-1-30.3-0.4
			c0,0.8,0,1.6,0,2.4c0.2,9.3,0.3,18.6,0.5,27.9c0,2.7,0,5.4,0,8.2c0.1,7.3,0.3,14.6,0.5,21.9C264,635.9,264.1,636.1,264.2,636.7z
			 M282.5,246.3c0.2-1.3,0.5-2.4,0.6-3.6c0.3-2.1,0.4-4.3,0.7-6.5c0.2-1.6,0-1.9-1.6-1.9c-2.5,0-5.1,0.1-7.6,0.2
			c-0.9,0-1.1,0.7-1.3,1.4c-0.6,2.1-1.2,4.2-1.8,6.3c-0.4,1.3-0.7,2.6-1.1,4.1C274.4,246.3,278.3,246.3,282.5,246.3z M152.7,767.1
			c5.1,0.5,40,0.3,41.8-0.3c-0.1-0.8-0.1-1.7-0.2-2.6c-0.7-0.1-1.1-0.1-1.4-0.1c-13,0-26.1,0-39.1,0c-0.2,0-0.5,0.1-0.7,0.1
			c-0.1,0-0.1,0.1-0.2,0.1c-0.1,0.1-0.1,0.1-0.2,0.2C152.7,765.4,152.7,766.2,152.7,767.1z M230.3,474.8c-0.6-0.3-0.8-0.5-1.1-0.6
			c-3.9-1.4-7.6-0.5-10.9,1.6c-3.7,2.3-5.9,5.8-7.5,9.8c-1.7,4.4-2.4,9-3.1,13.6c-0.2,1,0,2.1,0.1,3.3c1,0,1.7,0,2.4,0
			c1,0,1.6-0.5,1.6-1.5c0-0.5,0-0.9,0-1.4c-0.1-4.4,0.8-8.6,2.5-12.7c1.8-4.2,4.2-7.9,8.7-9.8C225.2,476,227.5,475,230.3,474.8z
			 M256.5,738.7c2.1,0.3,3.7,0.4,5.4,0c0.1-0.4,0.2-0.7,0.2-1c0.1-7.3,0-14.6-0.6-21.8c0-0.1-0.2-0.3-0.3-0.5c-1.6,0-3.2,0-4.8,0
			C256.5,723.1,256.5,730.8,256.5,738.7z M279.1,191.6c0,6.3,0,12.5,0,18.7c2.3,0,4.4,0,6.7,0c0.5-6.3-0.3-12.5-0.4-18.7
			C283.2,191.6,281.2,191.6,279.1,191.6z M226.6,456c4.6,4.3,8.4,8.8,13.1,12.5c5.5,4.3,9.1,9.8,11.5,16.3c0.8,2.2,1.5,4.4,2.2,6.5
			c0.4-1.5,0.7-3.1,0.5-4.6c-1-6.4-4.5-11.5-8.3-16.4c-3.2-4.1-7.1-7.8-10.6-11.7c-0.4-0.5-0.8-1-1.2-1.4c-0.8-0.9-1.7-1.8-2.5-2.8
			C229.7,454.9,228.4,455.4,226.6,456z M338.3,487.6c0.5-1.6,0.9-3.5,1.8-5.2c2.7-5.7,7-10.1,12-13.9c3.4-2.6,7-5,10.5-7.6
			c1.5-1.1,2.9-2.4,4.4-3.8c-2.5-1.1-4.9-0.5-7.2-0.8c-2-0.2-3.1,0.7-4.2,2.3c-2.4,3.3-4.9,6.5-7.4,9.8c-2.7,3.7-5.5,7.3-8.1,11.1
			C338.5,481.9,337.1,484.6,338.3,487.6z M310,191.7c-0.6-0.1-0.8-0.2-1-0.2c-1,0-2,0-3,0c-2.1,0-2.3,0.2-2.3,2.2
			c0,4.9,0,9.8,0,14.7c0,0.5,0.2,1,0.3,1.5c2.2,0,4.3,0,6.6,0c0-1.1,0-2.1,0-3.1c-0.1-1.7-0.3-3.4-0.4-5.1c-0.1-2.6,0-5.1,0-7.7
			C310.1,193.3,310.1,192.5,310,191.7z M308,245.8c3.8,0,7.4,0,11.3,0c-0.5-2-1-3.8-1.5-5.7c-0.6-1.9-1.2-3.8-1.8-5.6
			c-3.4-0.4-7.7-0.3-9.3,0.3C307,238.4,307.5,242,308,245.8z M349.8,460.9c-5.2,0.8-10,0.5-14.8,1.4c0.7,5.4,1.3,10.6,2,16
			C341.3,472.4,345.4,466.9,349.8,460.9z M395.3,740.9c0.5-4,0.3-23.5-0.3-25.1c-1.3,0-2.6,0-4.2,0c0,1,0,1.8,0,2.6
			c0,6.4,0,12.9,0,19.3c0,3.6,0.3,3.8,3.9,3.4C394.9,741.1,395,741,395.3,740.9z M402.1,776.9c0.2,1.9,1.3,1.6,2.3,1.6
			c12.9,0.2,25.9,0.3,38.8,0.5c3.3,0,6.7,0,10,0c0.7,0,1.4,0,2.1,0.1c2.1,0.3,2.3,0,1.8-2.3C438.9,776.9,420.6,776.9,402.1,776.9z
			 M435.2,765.9c0.6-2.8,0.3-3.2-2-3.2c-0.2,0-0.5,0-0.7,0c-9.3,0-18.6,0-28,0c-0.8,0-1.5,0.1-2.4,0.1c0,1.2,0,2.2,0,3.4
			c0.9,0,1.7,0.1,2.4,0.1c3.9-0.1,7.9-0.3,11.8-0.4c4.3-0.1,8.7,0,13-0.1C431.4,765.9,433.3,765.9,435.2,765.9z M284.3,230.9
			c0.5-4.2,0.9-8.2,1.4-12.4c-2.4,0-4.6-0.1-6.9,0.1c-0.4,0-1.1,0.7-1.2,1.2c-1.1,3.7-2.1,7.4-3.2,11.2
			C277.8,230.9,281,230.9,284.3,230.9z M255.1,479.2c0.6-5.2,1.2-10.4,1.9-15.8c-4.9-0.3-9.5-0.6-14.4-0.9
			C247.9,467.5,251.5,473.2,255.1,479.2z M341.9,541.3c0.1,6.2-0.4,12.3,0.7,18.2c2.6,0.4,3.5,0.3,5.2-0.2c0-0.3,0.1-0.7,0.1-1.1
			c-0.2-4.9-0.3-9.7-0.5-14.6c0-0.8-0.4-1.6-0.6-2.3C345.1,541.3,343.6,541.3,341.9,541.3z M385.1,503.2c0-0.6,0.1-1.1,0-1.5
			c-0.2-1.4-0.5-2.7-0.7-4.1c-1-5.6-2.9-10.9-6.1-15.7c-1.3-2-3.3-3.3-5.3-4.4c-1-0.6-2.3-1-3.8-0.5c0.6,0.7,1.1,1.2,1.6,1.8
			c1.2,1.3,2.4,2.7,3.5,4c4.4,5.1,6.5,11.2,6.9,17.9c0.1,0.9,0.4,1.7,0.6,2.5C383,503.2,384,503.2,385.1,503.2z M306.1,230.8
			c3.1,0.4,7,0.3,8.8-0.2c-1.1-3.8-2.2-7.7-3.4-11.5c-0.1-0.4-0.7-0.9-1.1-0.9c-1.8-0.1-3.7-0.3-5.8,0.3
			C305,222.5,305.6,226.6,306.1,230.8z M258.6,540.9c-1.8,0-3.4,0-5.1,0c0.3,6.1,0.6,11.9,0.9,17.9c1.8,0.1,3.3,0.5,5-0.3
			c-0.1-5.6-0.3-11.1-0.4-16.6C258.9,541.5,258.7,541.2,258.6,540.9z M203.6,590c0.7-5.3-0.6-10.3-0.3-15.5c-2,0-3.6,0-5.4,0
			c0,5.2,0,10.3,0,15.5C199.9,590,201.6,590,203.6,590z M338.9,559.7c0-0.9,0.1-1.7,0.1-2.5c-0.1-1.9-0.3-3.8-0.4-5.8
			c-0.1-2.6,0-5.1,0-7.7c0-0.8-0.1-1.5-0.1-2.4c-1.7,0-3.2,0-4.9,0c0,1.2,0,2.1,0,3.1c0.1,1.7,0.3,3.4,0.4,5.1c0.1,2.6,0,5.1,0,7.7
			c0,0.8,0.1,1.5,0.1,2.4C335.7,559.7,337.2,559.7,338.9,559.7z M250.7,558.7c0.1-0.7,0.2-1.1,0.2-1.6c-0.1-3.5-0.3-6.9-0.5-10.4
			c-0.1-2-0.4-3.9-0.7-5.9c-1.5,0-2.9,0-4.4,0c0.1,6-0.4,11.9,0.7,17.8C247.6,558.7,249,558.7,250.7,558.7z M390.1,560
			c1,0.2,1.8,0.5,2.6,0.6c1.3,0.2,1.8-0.2,1.9-1.6c0-0.2,0-0.5,0-0.7c0-5,0-10.1,0-15.1c0-0.6-0.1-1.2-0.2-1.8c-1.5,0-2.8,0-4.3,0
			C390.1,547.7,390.1,553.8,390.1,560z M259.8,589.6c-0.1-5-0.3-9.8-0.4-14.6c-1.9-0.1-3.7-0.4-5.7,0.2c-0.1,4.8-0.2,9.6,0,14.5
			C255.9,589.6,257.6,589.6,259.8,589.6z M341.5,511c0,4.7-0.2,9.1,0.2,13.8c2.2-0.9,4.2,0.6,6.1-0.3c0-4.4,0-8.6,0-12.9
			C345.7,511.3,343.8,511.2,341.5,511z M342.5,575.9c0,5.1,0,10,0,15c1.8,0,3.5,0,5.2,0c0-5.1,0-10,0-15
			C346,575.9,344.4,575.9,342.5,575.9z M317.4,774.5c-0.7-0.1-1.2-0.1-1.6-0.1c-11.6,0-23.1,0-34.7,0c-0.5,0-1,0-1.4,0.1
			c-0.3,0.1-0.6,0.5-0.6,0.8s0.3,0.6,0.6,0.8c0.2,0.1,0.6,0.1,0.9,0.1c5.4,0.2,10.8,0.4,16.3,0.4c6.1,0.1,12.1,0,18.2,0.1
			c0.8,0,1.5-0.1,2.4-0.1C317.4,775.8,317.4,775.3,317.4,774.5z M245.5,510.6c-0.2,4.6-0.2,9.1,0,13.6c1.9,0,3.5,0,5.1,0
			c0.6-3,0.9-11.6,0.5-13.6C249.3,510.6,247.5,510.6,245.5,510.6z M331.1,316.9c-1.3,0-2.6,0-3.9,0c-2.8,0-3.3,0.4-4.1,3.1
			c-0.2,0.7-0.3,1.4-0.3,2.1c0,4.7-0.1,9.3,0,14c0,2.2,0.6,4.3,1.6,6.4c0.4-0.4,0.6-0.8,0.6-1.3c0-0.8-0.3-1.7-0.3-2.5
			c0.1-2,0.2-4,0.4-6c0.2-2.3,0.2-4.7,0.7-6.9C326.6,322.3,328.1,319.3,331.1,316.9z M245.4,574.8c0,5.3-0.1,10.1,0.1,15.1
			c1.7,0,3.2,0,4.6,0c0.2-0.3,0.3-0.4,0.3-0.6c0-4.5,0-9-0.1-13.5c0-0.4-0.6-1-1-1C248.1,574.7,246.9,574.8,245.4,574.8z
			 M202.3,558.2c0-5.9,0-11.5,0-17.3c-1.5,0-2.8,0-4.3,0c0,0.9-0.1,1.7-0.1,2.4c0.1,4.2,0.3,8.4,0.5,12.5c0.1,2.4,0.3,2.6,2.7,2.5
			C201.4,558.4,201.7,558.3,202.3,558.2z M389.7,576.3c-0.1,0.6-0.2,1-0.2,1.5c0,3.4,0,6.8,0,10.3c0,0.4-0.1,0.8,0.1,1.1
			s0.7,0.8,1,0.8c1.4-0.1,2.9-0.4,4.2-0.6c0.5-3.4,0.3-11.5-0.2-13.1C393,576.3,391.4,576.3,389.7,576.3z M241.5,741.4
			c-1,0-1.8-0.1-2.7-0.1c-6.3,0.1-12.5,0.3-18.8,0.4c-2.6,0.1-5.1,0-7.7,0c-0.5,0-1.1,0-1.6,0.1c-0.7,0.2-1,0.7-0.5,1.5
			c0.3,0,0.7,0.1,1,0.2c5.4,0.2,10.8,0.4,16.2,0.5c3.8,0.1,7.6,0.1,11.4,0C240.8,744,240.9,743.9,241.5,741.4z M338.7,590.9
			c0.6-2.5,0.5-13.4-0.1-15c-1.3,0-2.6,0-3.8,0c-0.6,2.6-0.5,13.4,0.1,15C336.2,590.9,337.4,590.9,338.7,590.9z M387.7,746.1
			c-0.4-0.6-0.6-1.2-0.9-1.2c-1.6-0.2-3.2-0.3-4.8-0.3c-8.2,0-16.5,0-24.7,0c-0.7,0-1.3,0.1-2,0.1c1,2.6,1,2.7,3.3,2.6
			c2.9-0.1,5.7-0.3,8.6-0.4c6.4-0.2,12.7-0.3,19.1-0.5C386.6,746.4,386.9,746.2,387.7,746.1z M276.5,186.3c0.4,1.7,1.5,1.8,2.7,1.8
			c6.1,0,12.3,0,18.4,0c2,0,4,0,6,0.1c1.9,0.1,3.8,0.3,5.7,0.3c2.5,0,2.6-0.1,3.6-2.6c-1.7,0.1-3.4,0.3-5.1,0.3
			c-9.6,0-19.2,0-28.9,0C278.2,186.3,277.3,186.3,276.5,186.3z M317.1,756.1c-0.4-0.2-0.6-0.3-0.9-0.3c-4.3-0.2-8.5-0.4-12.8-0.5
			c-5.3-0.1-10.6,0-15.9,0c-1.2,0-2.3-0.2-3.5-0.3c-1.8-0.1-3.7-0.4-5.5,0.1c-0.1,1.9-0.1,2,1.3,2c11.8,0,23.6,0,35.4,0
			c0.4,0,0.8-0.1,1.1-0.2C316.7,756.7,316.8,756.5,317.1,756.1z M259.1,524.2c0.5-4.2,0.3-12.1-0.3-13.6c-1.3,0-2.6,0-3.8,0
			c-0.6,2.9-0.9,12.3-0.4,13.6C256.1,524.2,257.5,524.2,259.1,524.2z M338,524.7c0-4.7,0-9.1,0-13.7c-1.7,0-3.2,0-4.8,0
			c0,0.9-0.1,1.7-0.1,2.4c0.1,2.9,0.3,5.9,0.4,8.8c0.1,2.3,0.1,2.4,2.6,2.3C336.6,524.6,337.1,524.7,338,524.7z M395.4,524.7
			c0.4-4.5-0.6-8.7-0.4-13.1c-1.8-0.2-3.4-0.5-4.7,0.1c0.1,4.4,0.2,8.7,0.3,13C392.2,524.7,393.6,524.7,395.4,524.7z M343,712.7
			c2.5,0,4.7,0.3,7.1-0.2c-0.5-2.9,0.1-5.7-0.5-8.5c-2.3-0.1-4.4-1.1-6.6-0.2C343,706.8,343,709.6,343,712.7z M197.3,510.1
			c0,1,0,1.8,0,2.5c0.1,3.3,0.3,6.6,0.5,9.9c0.1,1.6,0.4,1.8,2,1.8c1.7,0,2.1-0.3,2.1-1.9c0-3.8,0-7.6,0-11.4c0-0.3-0.2-0.6-0.3-1
			C200.3,510.1,199,510.1,197.3,510.1z M252.7,711.9c0.1-3.4,0.1-6.5,0-9.8c-1.7,0-3.2,0-4.6,0c-1.5,0.1-1.9,0.6-1.7,2.1
			c0.2,1.8,0.3,3.7,0.4,5.5c0,0.6,0.1,1.2,0.2,1.8C248.8,711.6,250.5,711.8,252.7,711.9z M333.1,703.5c0,3.1,0,5.9,0,8.8
			c2.1-0.1,4.2,0.2,6.4-0.2c0-2.5,0-4.8,0-7.1c0-0.9-0.5-1.4-1.4-1.5C336.5,703.5,335,703.5,333.1,703.5z M422.2,759.3
			c0.5-1.4,0.2-2.1-1-2.4c-0.7-0.1-1.4-0.3-2.1-0.3c-5.1,0-10.2,0-15.3,0c-0.5,0-1,0.1-1.6,0.2c0,0.9,0,1.7,0,2.5
			C409.1,759.3,415.6,759.3,422.2,759.3z M261.5,711.7c0-3.2,0-6.2,0-9.4c-1.8,0-3.5,0-5.3,0c0,3.2,0,6.2,0,9.4
			C258,711.7,259.7,711.7,261.5,711.7z M199.9,701.8c-0.4,3.3-0.3,6.5,0.3,8.2c1.9,0,3.9,0.2,5.8-0.2c0.4-3.2,0.3-6.4-0.3-8
			C203.8,701.8,201.9,701.8,199.9,701.8z M194.6,759.9c-0.7-1.3-1.7-0.9-2.4-0.9c-8.5,0-17.1,0-25.6,0c-0.5,0-1.1,0-1.6,0.1
			c-0.3,0.1-0.6,0.5-0.6,0.8s0.3,0.7,0.6,0.8c0.4,0.2,0.9,0.1,1.4,0.1c8.8-0.1,17.7,0.3,26.5-0.5
			C193.4,760.3,193.9,760.1,194.6,759.9z M175.1,755.7c6.2,0,12.1,0,18,0c1.4,0,1.4-0.2,1.1-2c-2.6-0.9-16.8-1.1-19.2-0.3
			C175,754,175,754.7,175.1,755.7z M385.3,472.7c-1-3.3-1.9-6.6-2.9-9.8c-0.1-0.4-0.9-0.9-1.4-1c-1.5-0.3-3.1-0.4-4.6-0.5
			c-0.9,0-1.8-0.3-2.9,0.5C377.4,465.6,381.3,469.1,385.3,472.7z M277.7,214.4c0.1,0.3,0.1,0.5,0.2,0.8c0.8,0,1.7,0,2.5,0
			c8.1-0.2,16.3-0.3,24.4-0.5c1.8,0,3.6,0,5.4,0c0.5,0,1-0.1,1.6-0.1c-0.5-1.3-1.5-1.2-2.4-1.2c-5.4,0-10.9,0-16.3,0
			c-1.5,0-2.9,0.3-4.4,0.3c-3.2,0.1-6.3,0.1-9.5,0.1C278.7,213.8,278.2,214.2,277.7,214.4z M264.2,744.1c-0.1-1.4-0.5-2-1.6-2
			c-5.4,0-10.8,0-16.2,0c-1.4,0-1.6,0.3-1.5,2.3C251.2,744.4,257.6,744.8,264.2,744.1z M395.3,703.2c-1.6,0-2.9,0-4.3,0
			c0,3.1,0,6,0,8.9c1.5,0,2.9,0,4.3,0C395.3,709.1,395.3,706.3,395.3,703.2z M209,467.4c3.5-1.9,5.9-4.8,8.9-7.7
			c-1.9-0.4-3.4-0.7-4.9-1c-0.9-0.2-1.7,0.1-2,1.1C210.3,462.4,209.7,464.9,209,467.4z M347.3,342.4c-1.2-4.3-2.4-8.3-3.6-12.4
			c-0.1,0-0.2,0-0.3,0.1c-0.2,4.1-0.5,8.2-0.7,12.3C344.3,342.4,345.7,342.4,347.3,342.4z M249.9,319.6c3.8,0,7.1,0.1,10.7,0
			c-1-2.4-2.7-3.4-4.8-3.6C253.3,315.7,251.4,317,249.9,319.6z M270.2,336.2c2.3,0.2,2.5,0.1,2.6-1.4c0.3-2.9,0.5-5.8,0.7-8.9
			c-0.8,0-1.5,0-2.3,0C270.6,329.3,269.8,332.6,270.2,336.2z M297.3,135.2c0.1-1.6-1.5-3.4-3-3.4c-1.3,0-2.7,1.5-2.7,3
			s1.7,2.9,3.6,3C296.3,137.7,297.2,136.7,297.3,135.2z M247,332.2c-0.2,0-0.3,0-0.5-0.1c-0.9,3.6-2.1,7-2.8,10.9
			c1.5-0.1,2.6-0.1,4-0.2C247.5,339.1,247.3,335.7,247,332.2z M210.3,732.3c0.2,0,0.4,0,0.7,0c-0.2-2.9-0.5-5.8-0.6-8.7
			c-0.2-9.1,0.3-18.1-0.5-27.2c0-0.5-0.1-1.1-0.1-1.6c-0.3,0.8-0.3,1.6-0.3,2.3c0.1,4.6,0.4,9.3,0.4,13.9c0.1,5.3,0,10.5,0.1,15.8
			C210,728.6,210.2,730.4,210.3,732.3z M281.9,182.5c1.8,0.6,22.7,0.6,24.7,0c-0.4-0.2-0.7-0.4-0.9-0.4c-7.7,0-15.5,0-23.2,0
			C282.3,182.2,282.2,182.4,281.9,182.5z M340.7,747.1c0-1.5-0.5-2.2-2-2.2c-1.7,0.1-3.4,0-5.1,0c-1.4,0-2.3,0.6-2.9,2.1
			C334.2,747.1,337.3,747.1,340.7,747.1z M250.3,326.8c-0.5,1.3,0.1,1.7,1.1,1.7c2.5,0,5.1,0,7.6,0c0.9,0,1.8-0.2,2.4-0.9
			c-0.5-1.2-1.5-0.9-2.3-0.9C256.3,326.7,253.4,326.8,250.3,326.8z M261,342.9c0.1-2.2-0.1-2.3-1.6-2.2c-1.6,0.2-3.2,0.3-4.8,0.4
			c-0.7,0-1.4-0.1-2.1,0.1c-0.4,0.1-0.8,0.5-0.9,0.8c-0.2,0.7,0.4,1,1,1C255.3,342.9,258,342.9,261,342.9z M249.7,322.7
			c0.7,1.6,0.9,1.7,2.6,1.6c2.1-0.2,4.3-0.3,6.4-0.4c0.5,0,0.9,0.1,1.4-0.1c0.4-0.1,0.6-0.4,1.1-0.7
			C259.6,322.4,253,322.2,249.7,322.7z M250.7,331.9c0.1,1.2,0.1,1.2,1.1,1.3c1.9,0.1,3.9,0,5.8,0.1c1.1,0,2.2,0.1,3.4,0.2
			c0-2-0.1-2.1-1.6-2C256.5,331.6,253.7,331.7,250.7,331.9z M198.4,743.9c0.6,0,1.2,0,1.8,0c1.6-0.1,3.2-0.2,4.8-0.3
			c0.7,0,1.5,0.1,1.5-1c0-1-0.9-0.8-1.6-0.9c-0.5,0-1.1,0-1.6,0c-0.8,0-1.6,0-2.3-0.1C198.9,741.3,198.8,741.4,198.4,743.9z
			 M352.5,747.3c-0.3-1.4-1.1-1.9-2.5-1.9c-1.6,0-3.2-0.3-4.8-0.4c-0.4,0-0.7,0.1-1.1,0.1c0.3,2.1,0.3,2.1,1.9,2.2
			C348.1,747.3,350.3,747.3,352.5,747.3z M261,337.2c-0.2-0.3-0.3-0.5-0.4-0.5c-2.9-0.2-5.8-0.5-8.7-0.7c-0.4,0-0.7,0.1-1.2,0.2
			c0.1,0.6,0.2,1.1,0.3,1.5c3.3,0,6.4,0,9.4,0C260.5,337.7,260.7,337.4,261,337.2z M329.1,327.8c3.4-0.2,6.8-0.3,10.2-0.5
			c0-0.2,0-0.3,0-0.5c-3-0.3-6.1-0.7-9.1-1C329.2,325.7,329,326.2,329.1,327.8z M328.2,335.8c3.7,0.4,7.2,0,10.7-0.5
			c0.2,0,0.4-0.5,0.6-0.8c-1.4,0-2.5,0-3.6,0c-1.9,0-3.9,0-5.8,0C329.3,334.6,328.5,334.5,328.2,335.8z M328.3,331.7
			c3.7,0,7.1,0.2,10.5-0.1c0.4,0,0.7-0.4,1.5-1c-4.1,0-7.6,0-11.1,0c-0.1,0-0.3,0.1-0.4,0.2C328.7,330.9,328.6,331.1,328.3,331.7z
			 M396.6,746.1c0-0.3,0-0.5,0-0.6c-0.8-0.9-4.4-1.5-5.3-0.8c-0.2,0.2-0.4,0.6-0.3,0.8c0.1,0.3,0.5,0.7,0.7,0.7
			C393.3,746.4,395,746.6,396.6,746.1z M339.4,323.5c-0.2-0.3-0.2-0.6-0.4-0.6c-2.5-0.3-4.9-0.6-7.4-0.8c-0.7-0.1-1.1,0.4-1.1,1.3
			c1.6,0,3,0.1,4.5,0S337.9,324.4,339.4,323.5z M339.1,339c0-0.2,0-0.4,0-0.6c-0.6,0-1.2,0-1.8,0c-1.5,0.1-3.1,0.3-4.6,0.4
			c-1.2,0.1-2.3,0-3.5,0c-0.4,0-0.7,0.2-1.1,0.4c0,0.2,0.1,0.3,0.1,0.5C331.9,339.4,335.5,339.2,339.1,339z M318.7,325.4
			c-0.2,0-0.4,0.1-0.5,0.1c0.3,2.8,0.7,5.7,1,8.5C319.8,328.9,319.6,326.4,318.7,325.4z M271.8,342.8c0-0.9,0.1-1.6,0-2.3
			c0-0.3-0.5-0.6-0.8-0.6s-0.8,0.3-0.9,0.5c-0.2,0.7-0.3,1.5-0.4,2.4C270.4,342.8,271,342.8,271.8,342.8z M239.7,737.8
			c0-0.1,0-0.1,0-0.2c-4,0-7.9,0-11.9,0c0,0.1,0,0.1,0,0.2C231.7,737.8,235.7,737.8,239.7,737.8z M328.4,342.2c0,0.1,0,0.2,0,0.3
			c1.1,0,2.3,0,3.4,0c1.2,0,2.3,0,3.5,0c1,0,2.1,0,3.1,0c0-0.1,0-0.2,0-0.3C335.1,342.2,331.8,342.2,328.4,342.2z M337.1,319.5
			c-1.7-0.8-1.7-0.8-2.8,0C335.1,319.5,335.9,319.5,337.1,319.5z M210.5,737.8c0.1,0,0.1,0,0.2,0c0-1,0-2,0-3c-0.1,0-0.1,0-0.2,0
			C210.5,735.8,210.5,736.8,210.5,737.8z M320.1,342.3c0.1,0,0.3,0,0.4,0c-0.1-0.7-0.2-1.3-0.3-2c-0.1,0-0.2,0-0.3,0
			C320,340.9,320.1,341.6,320.1,342.3z"/>
		<path d="M8.4,230.6c1.3,0.2,2.6,0.4,3.9,0.4c3.2,0.1,6.4-0.1,9.6,0c3.6,0.1,7.1-0.7,10.5-1.6c2.9-0.7,5.9-1.4,8.8-2.3
			c3.2-1.1,6.3-2.3,9.3-3.7c3.2-1.5,6.3-3,9.3-4.8c2.1-1.3,4-2.9,5.9-4.5c3.6-3,6.9-6.3,10.6-9.1c4-3,8.6-4.9,13.8-4.9
			c3.9,0,7.7-0.2,11.6-0.4c2.8-0.2,5.4-1.3,8-2.3c3-1.2,5.5-3.1,7.8-5.3c2.7-2.7,5.9-4.5,9.6-5.5c1.7-0.5,3.5-0.7,5.3-0.8
			c4.5-0.2,8.9-1.4,13.3-2.1c2.1-0.3,4.3-0.7,6.4-0.7c5.3-0.1,10.6,0,15.9,0c1.2,0,2.5-0.2,3.6-0.7c8.2-3.5,16.4-7.1,24.5-10.8
			c3.3-1.5,6.4-3.5,9.5-5.4c3.6-2.2,7.5-2.7,11.4-2c5.3,0.9,10.1,0.1,14.7-2.8c2.7-1.7,5.5-3.2,8.4-4.4c2.2-0.9,4.6-1.4,6.9-1.8
			c2.2-0.4,4-1.6,5.9-2.7c1.3-0.7,1.4-3.3,0.4-4.6s-2.2-2.1-4-2c-3.7,0.1-7.5-0.1-11.2,0c-2.5,0.1-4.9-0.6-6.8-2
			c-6.4-4.5-13.7-6.2-21.2-7.2c-4.6-0.6-9.4,0-14.2,0.2c-2.4,0.1-4.8,0.5-7.2,0.5c-11.3,0.1-22.7-0.2-34,0.1
			c-6.3,0.2-12.6,0.4-18.8,0.4c-4,0-8-0.8-11.9-1.7c-5.1-1.2-10.3-2.4-15.4-3.6c-1.1-0.3-2.3-0.3-3.5-0.3c-8.2,0-16.5,0-24.7,0
			c-1.5,0-2.9-0.3-4.4-0.4c-3.6-0.2-7.1,0.1-10.4,1.7c-1.3,0.6-2.6,1.1-3.7,1.9c-1.8,1.3-3.9,1.8-6.1,2.2c-2.6,0.5-5.1-0.1-7.4-1.3
			c-1.9-1-3.6-2.1-5.5-3c-2.1-1.1-4.3-1.6-6.7-1.6c-2.6,0-5.1,0-7.7,0c-5.1-0.1-9.6,1.6-13.9,4c-2.1,1.2-4.1,2.6-6.1,3.9
			c0-1.2,0-2.5,0-3.7c4-3,8.2-5.7,13.1-6.8c1.9-0.4,3.8-0.6,5.7-0.7c3.3-0.1,6.5,0,9.8,0c2.6,0,5.1,0.6,7.4,1.8
			c1.7,0.9,3.4,1.8,5.1,2.8c2.4,1.3,4.9,1.5,7.4,0.8c1.4-0.4,2.8-1.1,4-1.8c3.7-2.3,7.7-3.5,12.1-3.5c9.7,0.1,19.4,0.1,29.1,0
			c4.6,0,9.1,0.9,13.5,2c5.3,1.3,10.6,2.4,15.9,3.6c0.2,0,0.3,0,0.5,0c5,0.2,9.9,0.4,14.9,0.4c1.9,0,3.9-0.3,5.8-0.5
			c1.6-0.1,3.2-0.4,4.9-0.4c10.6,0,21.1,0.1,31.7,0c3.6,0,7.2-0.7,10.9-0.8c2.9-0.1,5.7,0.3,8.6,0.3c3.9-0.1,7.7,1,11.4,2
			c4.2,1.1,8.3,2.6,11.9,5.1c2.3,1.6,4.9,2.3,7.7,2.3c3.6,0,7.2,0,10.7,0c3.4,0,6.6,3.3,6.9,6.6c0.3,3-0.6,5.2-3.3,6.8
			c-2.3,1.4-4.6,2.5-7.3,2.9s-5.3,1-7.7,2.5c-3,1.9-6.3,3.4-9.5,5c-3.7,1.9-7.6,2.2-11.6,1.6c-4.7-0.7-9.1-0.3-13.1,2.5
			c-5.4,3.8-11.4,6.3-17.4,8.9c-2.8,1.2-5.5,2.5-8.3,3.7c-2.1,0.9-4.1,1.8-6.2,2.6c-2,0.8-4,1.3-6.1,1.2c-2.9-0.2-5.9-0.3-8.8-0.5
			c-5.2-0.3-10.2,0.5-15.2,1.5c-4,0.8-8.1,1.2-12.2,1.7c-4.1,0.5-7.9,2-10.8,5c-6.1,6.3-13.7,8.7-22.2,9c-3.5,0.1-7,0.2-10.4,0.5
			c-1.4,0.1-2.8,0.5-4,1.1c-3.7,1.8-7.2,4-10.2,6.8c-3.2,2.9-6.4,5.9-9.8,8.5c-5.2,3.9-11.2,6.4-17.2,8.7
			c-6.8,2.6-13.8,4.3-20.9,5.5c-0.2,0-0.5,0-0.7,0.1c-2.2,0.2-4.3,0.4-6.5,0.4c-3.3,0.1-6.6-0.2-9.9-0.9
			C8.4,233.1,8.4,231.8,8.4,230.6z"/>
		<path d="M8.4,102.3c2.5,0,4.9-0.2,7.4-0.7c3.2-0.6,6.3-0.2,9.2,1.5c2.2,1.2,4.5,2,6.8,3.1c1.3,0.6,2.6,1.3,3.8,2.2
			c0.9,0.7,1.7,1.1,2.7,1c0.5,0,1.1,0,1.6,0c4.8-0.1,9.6,0.7,14.4,0.7c3.6,0,7.3,0,10.8-1.2c1.2-0.4,2.5-0.8,3.8-1.3
			c7-2.6,13.9-1.8,20.7,0.8c3.5,1.3,6.8,3.1,10.5,3.8c3.8,0.7,7.4,0.6,11-0.7c3.8-1.4,7.5-3,11.3-4.3c2.3-0.8,4.8-1.4,7.2-1.9
			c4.3-0.9,8.1-3.1,11.6-5.6c1.6-1.2,3.1-2.5,4.8-3.7c2.5-1.6,5.3-2,8.2-2.5c2.5-0.4,5-1,7.5-1.7c1.9-0.5,2.3-1.2,2.2-2.5
			c-0.1-1.5-1-2.3-2.7-2.7c-5.3-1.3-10.7-2.6-15.6-5.4c-3.1-1.8-6.4-2.3-10.1-1.8c-4.4,0.6-9,0.3-13.5,0.1c-1.4-0.1-2.9-1-4.2-1.9
			c-1.2-0.8-2.1-2-3.2-3c-1-0.9-2-1.9-3.2-2.7c-3.7-2.6-7.5-5.1-12-6c-2-0.4-4-0.7-6-0.7c-3.7,0-7.5-0.1-11.1,0.6
			c-3.2,0.6-6.3,2-9.4,3.4s-6.1,2.5-9.5,2.6c-1.8,0-3.7,0.1-5.5,0.6c-2.9,0.7-5.8,1-8.8,0.8c-3.7-0.2-6.9,1.1-9.5,3.6
			c-1.6,1.5-3.3,2.2-5.5,2.1c-1.3-0.1-2.6,0-4,0c-2.2,0-4.4,0.5-6.1,1.9c-3,2.4-6.4,2.8-9.9,2.2c-2.2-0.4-3.9,0-5.7,1
			c0-1.4,0-2.8,0-4.2c2.4-0.6,4.7-0.1,7.1,0.3c2.3,0.3,4.7,0.1,6.7-1.6c2.3-2,5.2-2.9,8.2-2.8c3.7,0.2,6.8-0.5,9.5-3.1
			c2.2-2.2,5.4-2.5,8.3-2.5c4,0.1,7.9-0.5,11.7-1.3c0.8-0.2,1.7-0.2,2.5-0.2c2.7,0.2,5.2-0.6,7.6-1.7c3.3-1.5,6.7-2.9,10.2-4
			c2-0.6,4.3-0.8,6.4-0.9c3.2-0.1,6.4,0,9.6-0.1c4.2,0,8,1.5,11.6,3.6c3.1,1.8,6.1,3.7,8.7,6.2c1.1,1.1,2.3,2.3,3.5,3.3
			c1.3,1.1,2.8,1.5,4.6,1.4c5-0.2,9.9-0.3,14.9-0.5c2.1-0.1,4,0.4,5.8,1.3c5.2,2.9,10.8,4.7,16.5,6.1c4.2,1,6.2,4.6,4.9,8.7
			c-0.3,1-0.9,1.6-1.9,1.9c-3,1-6,2.5-9.1,2.8c-4.7,0.4-8.4,2.2-11.9,5.1s-7.3,5.2-11.7,6.5c-2,0.6-4.1,0.8-6.1,1.5
			c-4.2,1.4-8.3,2.9-12.4,4.6c-6.7,2.8-13.3,2.5-19.9-0.2c-2.4-1-4.9-2-7.4-2.8c-2.4-0.8-4.9-1.4-7.4-1.8c-2.7-0.5-5.4,0.4-8,1.2
			c-1.4,0.4-2.8,0.9-4.2,1.4c-3,1.1-6.2,1.4-9.4,1.5c-4.3,0.2-8.7,0.1-13-0.8c-0.7-0.1-1.5,0.1-2.3,0.2c-3.6,0.5-7,0.5-9.7-2.4
			c-0.4-0.4-1-0.7-1.6-0.9c-2.5-1.1-5.1-1.9-7.5-3.2c-2.4-1.3-4.8-1.2-7.2-1.1c-2.6,0.1-5.2,0.3-7.9,0.4
			C8.4,104.5,8.4,103.4,8.4,102.3z"/>
		<path d="M8.4,399.9c1.7-0.5,3.5-0.9,5-1.7c3.6-1.9,6.8-4.2,8.7-8c1.8-3.6,4.6-6.3,8.7-7.6c2.6-0.8,5.1-1.9,7.5-3
			c0.5-0.2,1-1,1.2-1.5c0.3-0.8,0.4-1.6,0.7-2.4c1.2-3.4,3.6-5.5,7.2-6.1c3.1-0.5,6.1-1.3,8.7-3.2c0.6-0.4,1.1-0.9,1.5-1.4
			c1.1-1.6,2.7-2.6,4.6-2.8c3.7-0.4,6.7-2.4,10-3.7c1.3-0.5,1.5-1.5,0.7-2.7c-0.7-1.1-1.7-1.9-3-2.1c-2.4-0.5-4.8-1-7.3-1.4
			c-4.2-0.5-8.4-1-12.7-1.3c-3.1-0.2-6.2-0.7-9.1,1.2c-0.7,0.4-1.6,0.5-2.4,0.5c-3.4,0.1-6.8,0.1-10.2,0.8c-2.9,0.6-5.9,0.4-8.9-0.9
			c-3.2-1.4-6.6-1.4-9.9,0.1c-0.4,0.2-0.9,0.3-1.3,0.4c0-1.2,0-2.5,0-3.7c1-0.3,1.9-0.6,2.9-0.9c3.2-0.9,6.3-0.7,9.4,0.5
			c3,1.2,5.9,1.5,9.1,0.5c1.7-0.5,3.7-0.3,5.6-0.2c2.1,0.1,4.1-0.5,6.1-1.2c1.9-0.7,4.1-0.8,6.1-1c1.3-0.1,2.6,0.2,3.9,0.3
			c2.1,0.2,4.2,0.3,6.2,0.5c2.3,0.2,4.6,0.6,6.9,0.9c2.1,0.3,4.3,0.6,6.4,1.1c2.3,0.5,4.1,1.9,5.3,3.9c1.2,1.9,1,4.1,0.2,6.1
			c-0.3,0.7-1.1,1.3-1.9,1.6c-3.7,1.4-7.2,3.7-11.3,4.2c-1.1,0.1-1.8,0.8-2.5,1.5c-3.1,3.4-7.1,4.9-11.4,5.6c-3,0.5-5.3,1.8-5.8,5.1
			c-0.5,3.3-2.6,4.8-5.6,5.8c-2.7,0.8-5.2,2-7.8,3.1c-2.5,1.1-4,3.2-5.1,5.5c-1.8,3.6-4.7,6.1-8.1,8.1c-2.7,1.5-5.5,2.9-8.6,3.2
			C8.4,402.4,8.4,401.1,8.4,399.9z"/>
		<path d="M484.8,213.5c4.2,0.1,8.4,0.7,12.5,1.5c2.9,0.6,5.5,1.9,8.1,3.5c2.2,1.3,4.4,2.6,6.7,3.7c1.3,0.6,2.8,0.8,4.3,0.9
			c2.1,0.2,4.2,0.1,6.3,0c3.4-0.1,6.7,0.2,9.9,1.2c0.9,0.3,1.8,0.3,2.7,0.5c3.1,0.4,5.6,2.2,7.9,4.1c1.3,1,2.5,2.1,3.7,3.2
			c0.7,0.6,1.4,0.9,2.3,0.9c1.3,0,2.6-0.1,4,0c2.6,0.1,5.3,0.1,7.9,0.5c2.7,0.4,4.7,2,6.2,4.2c0.6,0.9,0.8,2.3,0.7,3.4
			c-0.3,2.6-1,5.2-3.5,6.8c-2.7,1.8-5.7,2.9-8.9,2.8c-2.2-0.1-4.3,0.3-6.3,1.2c-1,0.5-2.2,0.6-3.4,0.6c-3.4,0.1-6.8,0-10.1-1.1
			c-1.5-0.5-3.3-0.3-4.8-0.1c-0.9,0.1-1.8,0.9-2.3,1.7c-1.1,1.5-2.1,3.1-2.9,4.8c-1.4,3.1-4,4.9-6.9,6.3c-2.7,1.3-5.5,2-8.5,2
			c-4.7,0.1-9.1-0.5-13.4-2.4c-1.7-0.7-3.6-0.9-5.4-1.2c-5.3-1-10.6-2.1-16-2.9c-2.2-0.3-4.5-0.1-6.8-0.1c-2.5,0.1-4.8-0.6-6.7-2.3
			c-1.5-1.3-3.2-1.9-5.1-1.2c-0.6,0.2-1.2,0.2-1.8,0.2c-2.2-0.1-4.5-0.3-6.7-0.5c-2.2-0.3-3.8-1.7-5.1-3.4c-0.4-0.5-1-1.1-1.6-1.1
			c-2.2,0-3.6-1.2-4.6-2.8c-0.9-1.3-1.9-1.5-3.3-1.6c-2,0-4.1,0-6-0.5c-3.8-0.8-4.9-3.2-3.4-6.8c0.9-2.2,2.6-3.8,4.9-4.3
			c3.6-0.7,6.3-2.5,8.5-5.3c1.2-1.5,3-1.9,4.8-2.2c2.1-0.4,4.3-0.7,6.4-1c3.1-0.3,5.6-1.7,8-3.7c4.9-4.2,10.4-7.6,17-8.4
			C477.6,214.3,481.2,213.9,484.8,213.5z M484.9,217.3c-3.2,0.2-6.4,0.3-9.5,0.8c-2.7,0.4-5.5,0.9-7.8,2.1c-3.1,1.5-6,3.5-8.6,5.9
			c-1.6,1.5-3.3,2.5-5.3,3.2c-3,1.2-6.2,1.3-9.3,1.7c-2.5,0.3-4.5,1.1-5.9,3.2c-1.3,1.9-3.1,3-5.3,3.5c-1.4,0.3-2.7,0.7-4,1.3
			c-1,0.4-2.1,2.5-1.8,3.3c0.5,1.1,1.6,1.1,2.6,1.3c0.5,0.1,1.1,0,1.6,0.1c1.4,0,2.8,0,4.2,0c1.1,0,2,0.3,2.6,1.2
			c0.5,0.6,0.9,1.3,1.4,1.8c0.3,0.4,0.8,1.1,1.1,1c2.2-0.1,3.4,1.5,4.6,2.8c1.3,1.5,2.9,2.1,4.7,2.3c2.1,0.2,4.3,0.4,6.3,0
			c2.8-0.6,5.2-0.2,7.3,1.7c1.6,1.4,3.3,1.9,5.4,1.7c5.4-0.5,10.6,0.9,15.9,1.6c3.3,0.4,6.4,1.8,9.8,1.7c0.6,0,1.2,0.3,1.7,0.6
			c4.5,2,9.1,2.9,14,2.6c5.5-0.3,9.8-2.6,12.5-7.6c0.6-1.2,1.3-2.5,2.1-3.6c1.1-1.5,2.3-3,4.1-3.6c2.6-0.8,5.2-1,7.8,0.1
			c1.5,0.6,3.1,0.8,4.8,0.8c1.4,0,2.8,0,4.2,0c0.7,0,1.4,0,2-0.3c2.7-1.3,5.4-1.8,8.4-1.5c2.4,0.2,4.4-1,6.2-2.3
			c1.4-1,1.8-2.8,1.5-4.4c-0.3-1.5-1.5-2.6-2.9-3s-2.9-0.5-4.4-0.5c-2.3-0.1-4.7-0.1-7,0c-2.2,0.1-4.1-0.7-5.7-2.2
			c-1.8-1.6-3.6-3.1-5.6-4.6c-0.9-0.7-2-1.2-3.1-1.5c-2.3-0.6-4.7-1-7-1.6c-3.3-0.8-6.7-0.7-10-0.4c-4.5,0.3-8.4-0.9-12.2-3.2
			c-1-0.6-2-1.2-2.9-1.9c-2-1.5-4.4-2.3-6.8-2.9C492.8,217.4,488.9,217.5,484.9,217.3z"/>
		<path d="M106.6,317.2c-4.1-0.1-8.1-0.7-12-1.7c-1.2-0.3-2.3-0.9-3.4-1.4c-0.7-0.3-1.3-0.9-1.9-1.3c-1.7-1-3.4-1.6-5.5-1.6
			c-3.8,0.1-7.6,0.3-11.3,0.9c-4.8,0.7-9.6,0.1-14-2.1c-1.1-0.6-2-1.3-2.3-2.4c-0.4-1.1-1.2-1.6-2.2-1.8c-1.2-0.2-2.4-0.4-3.7-0.5
			c-2.6-0.1-5.1,0-7.7,0c-3,0-5.6-1.2-8.1-2.5c-0.6-0.3-1.2-1.1-1.4-1.8c-1.4-3.5,0.6-6.6,4.4-7c1.2-0.1,2.5-0.3,3.7-0.5
			c1.9-0.4,3.2-1.4,4.4-3c3-4,6.6-7.2,11.5-8.6c0.4-0.1,0.8-0.3,1.1-0.3c2.5,0.1,4.3-1.4,6.4-2.4c2.3-1.2,4.8-2,7.4-2.7
			c2.2-0.6,4.1-1.5,6-2.9c2.1-1.6,3.7-3.8,6.2-4.9c1.6-0.7,3.2-1.1,4.9-1.2c5.3-0.2,10.3,1.1,15.1,3.3c1.9,0.9,3.7,1.8,5.5,2.9
			c1.9,1.2,3.9,1,5.8,0.5c1-0.3,2.1-0.7,3-1.1c4.3-2,8.9-2.1,13.5-1.7c2.6,0.2,5.1,1.4,7.5,2.3c4.9,1.8,9.9,3,15,4.1
			c4.5,0.9,8.8,2.6,12.9,4.5c1.3,0.6,2.5,1.7,3.4,2.8c1.1,1.4,0.6,5.4-0.8,6.8c-1.7,1.8-3.8,2.7-6.2,2.8c-5.5,0.1-4.5-0.5-8.5,3.5
			c-1.5,1.4-3.2,2.3-5.1,3.1c-2.3,0.9-4.5,2-6.7,3.2c-1.8,1-3.5,1.9-5.6,1.9c-1,0-2.1,0.6-3,1.1c-2.5,1.5-5.1,3-7.5,4.7
			c-3,2.2-6.4,3.2-9.9,3.8C113.9,316.5,110.2,316.8,106.6,317.2z M106.7,313.1c0.9,0,1.7,0,2.6,0c6.2,0.1,12-1.3,17.2-4.7
			c1.6-1.1,3.2-2.2,4.9-3.2c2-1.2,3.9-2.4,6.4-2.4c1.1,0,2.2-0.7,3.2-1.2c2.5-1.2,4.9-2.7,7.5-3.7c2.1-0.8,4-1.8,5.4-3.5
			c2.2-2.8,5.1-3.9,8.6-3.5c0.6,0.1,1.3,0.1,1.9,0c0.6-0.1,1.2-0.2,1.8-0.5c2.1-1.1,2.2-3,0.3-4.4c-0.4-0.3-0.9-0.7-1.4-0.9
			c-4.2-1.7-8.4-3.1-12.9-4c-4.1-0.9-8.2-2.1-12.3-3.3c-2.8-0.8-5.5-2.3-8.4-2.6c-4.5-0.5-9.1-0.1-13.4,1.9
			c-3.6,1.7-7.2,1.9-10.8-0.5c-5.5-3.6-11.6-5.6-18.2-5.3c-1.9,0.1-3.7,0.2-5.1,1.7c-0.7,0.8-1.6,1.4-2.5,2.1
			c-2.5,2.2-5.1,4.1-8.4,4.7c-3.6,0.7-6.8,2.1-9.8,4.2c-1.4,1-2.9,1.4-4.6,1.4c-1,0-2.1,0.4-3.1,0.7c-3.3,1.1-5.3,3.8-7.2,6.4
			s-4.2,4.3-7.4,4.8c-0.7,0.1-1.4,0.1-2.1,0.2c-0.7,0.1-1.4,0.2-2,0.5c-0.4,0.2-0.7,0.8-0.8,1.2c0,0.3,0.5,0.8,0.8,0.9
			c2,0.9,4,1.6,6.3,1.5c2.4-0.1,4.8-0.1,7.2,0c1.8,0.1,3.7,0.5,5.5,0.9c1.4,0.3,2.6,1.3,3.1,2.6c0.5,1.4,1.6,1.8,2.7,2.3
			c3.7,1.7,7.7,1.3,11.5,0.9c3.5-0.4,6.9-0.8,10.4-0.7c3.1,0,5.9,0.9,8.5,2.8c0.7,0.5,1.6,1,2.4,1.3
			C98.5,313,102.5,313.4,106.7,313.1z"/>
		<path d="M199.8,246.2c-3.9-0.2-7.5-0.4-11.1-0.7c-0.8-0.1-1.5-0.2-2.3-0.5c-4-1.3-7.9-2.7-11.9-4.1c-0.3-0.1-0.6-0.3-0.9-0.4
			c-3.7-0.1-7.4-0.7-11.1,0.4c-0.7,0.2-1.5,0.6-2.1,1c-2.3,2-5.1,2.5-8,2.5c-2,0-4-0.4-6-0.4c-2.3,0-4.7,0-6.9,0.6
			c-2.6,0.6-5.1,0.1-7.6-0.4c-4.3-0.9-8-2.9-10.6-6.6c-0.4-0.5-1.3-0.8-2-1c-2.3-0.6-4.7-0.9-7-1.5c-1.8-0.4-3.6-1.1-4.8-2.6
			c-1.2-1.4-1.6-3.1-0.6-4.5c2.2-3.2,4.9-5.9,8.6-7.5c0.3-0.1,0.6-0.2,0.9-0.2c4.3-0.3,8-2.1,11.7-4.2c2-1.1,4.3-1.6,6.6-2.3
			c1.3-0.4,2.7-0.4,4.1-0.5c3.3-0.2,6.7-0.2,10-0.5c1.4-0.1,2.9-0.6,4.2-1.2c6-2.9,12.2-5.1,18.6-6.4c2-0.4,4-0.5,6-0.7
			c1.3-0.2,2.6-0.4,3.9-0.4c4-0.1,7.9,0.3,11.7,1.4c1.8,0.5,3.7,1.3,5.4,2.1c1.7,0.9,3.3,1.2,5.1,1.1c3.5-0.1,7-0.1,10.4,0.9
			c3.7,1.1,7.4,2.3,10.7,4.4c2.2,1.5,4.6,2.4,7.4,2.2c2-0.2,4.1-0.4,6,0.5c1,0.5,2.1,1.1,2.9,1.9c1.1,1.1,1.5,2.5,1.1,4.3
			c-1.1,4.9-4.1,7.9-8.7,9.4c-2.8,0.9-5.6,1.8-8.4,2.6c-2.2,0.6-3.9,1.9-5.2,3.7c-2.8,4-6.5,6.4-11.3,7
			C205.7,245.9,202.7,246,199.8,246.2z M109.8,229.7c0.5,1.1,1.3,1.7,2.4,1.9c2.5,0.6,5,1.3,7.5,1.7c2.2,0.3,3.9,1.3,5.1,3
			c2.2,3.1,5.4,4.5,8.9,4.9c2.9,0.3,5.9-0.2,8.8-0.3c1.8,0,3.6,0.1,5.3,0.1c1.9,0.1,3.9,0.3,5.8,0.2c1.7-0.2,3.5-0.5,5-1.7
			c1.5-1.1,3.1-2.1,5-2.3s3.8-0.4,5.8-0.6c3-0.3,5.7,0.7,8.3,1.8c6.6,2.9,13.6,4.3,20.8,4.2c3,0,6-0.1,9-0.5
			c4.1-0.5,7.5-2.4,9.8-5.9c1.8-2.7,4.5-4.2,7.5-5.1c2.9-0.8,5.8-1.7,8.7-2.6c1.6-0.5,2.9-1.6,3.9-2.9c1-1.3,1.9-2.9,1.2-4.5
			c-0.7-1.5-2.4-1.7-4.1-1.7c-1.6,0-3.3-0.1-4.9,0c-1.6,0.1-2.9-0.5-4.2-1.2c-2.8-1.4-5.5-2.8-8.4-4c-4-1.7-8.3-2.1-12.6-1.8
			c-2.9,0.2-5.5-0.4-8-1.9c-1.3-0.8-2.8-1.4-4.3-1.8c-6-1.4-12.1-1.5-18.2-0.3c-6.4,1.2-12.6,3.2-18.5,6.2c-1.9,0.9-4.1,1.8-6.2,1.8
			c-4.9,0.1-9.8,0.4-14.6,1.1c-1.9,0.3-3.6,0.8-5.2,1.8c-1.2,0.8-2.4,1.5-3.7,1.9c-2.7,0.9-5.2,2.4-8.2,2.4c-1,0-2.2,0.5-3,1.1
			c-1.3,1-2.5,2.3-3.7,3.5C110.4,228.7,110.1,229.3,109.8,229.7z"/>
		<path d="M405.2,831.5c-2.1,0.4-3.7,0.4-5.5-0.7c-1.9-1.2-4-2.1-6.1-2.9c-3.5-1.4-7.1-2.7-10.7-3.9c-1.4-0.5-3-0.7-4.6-0.7
			c-2.6,0-4.9-0.7-7.2-1.8c-1.7-0.8-3.4-1.4-5.3-1.6c-1-0.1-1.8-0.3-2.2-1.4c-0.3-1.1,0.1-1.9,0.8-2.5c2.9-2.4,6-4.5,10-4.5
			c11.9,0,23.8,0,35.7,0c3,0,6,0.5,9,0.4c4.6-0.2,9.1-0.7,13.6-1.2c3.6-0.4,7.2-0.9,10.8-1.5c3.2-0.5,6.4-1.1,9.6-1.6
			c2.3-0.3,4.6-0.6,6.9-0.8c3.9-0.3,7.9-0.6,11.8-0.9c2.2-0.2,4.5-0.3,6.7-0.5c7.1-0.5,14.2-1.4,21.4-0.9c3.5,0.2,7.1,0.5,10.6,1
			c5.4,0.8,10.8,1.8,16.3,2.7c4.9,0.8,9.8,1.6,14.6,2.5c4.6,0.8,9.1,1.6,13.7,2.7c3.2,0.7,6.4,1.8,9.6,2.8
			c5.8,1.8,11.7,3.7,17.5,5.6c0.9,0.3,1.7,0.7,2.5,1.2c2.2,1.1,2.4,1.6,1.4,4.4c-0.6-0.2-1.2-0.3-1.7-0.6c-4.5-2.6-9.5-3.8-14.4-5.3
			c-4.8-1.4-9.5-3-14.3-4.3c-3.6-1-7.2-1.7-10.9-2.4c-5.1-1-10.2-1.8-15.3-2.6c-5.1-0.9-10.2-1.7-15.3-2.5
			c-3.9-0.6-7.8-1.5-11.7-1.7c-4.1-0.3-8.2,0.1-12.3,0.1c-0.5,0-1.1,0.1-1.6,0.2c-3.5,0.3-7.1,0.6-10.6,0.9
			c-2.3,0.2-4.6,0.4-6.9,0.5c-3.7,0.2-7.4,0.2-11.1,0.5c-2.8,0.2-5.7,0.7-8.5,1.1c-4.7,0.7-9.3,1.4-14,2.2c-3.1,0.5-6.3,1.1-9.4,1.3
			c-4.6,0.3-9.2,0.7-13.7,0.5c-13-0.6-25.9-0.2-38.9-0.4c-2.5,0-4.7,0.7-6.9,2.1c3.4,1.5,6.4,3.2,10.2,3.1c2.4-0.1,4.7,0.6,7,1.6
			s4.8,1.7,7.2,2.5c2.3,0.8,4.5,1.6,6.7,2.6C401.9,827.9,403.5,829.5,405.2,831.5z"/>
		<path d="M586.3,486.7c1,3.2,0.7,4-1.6,5.6c-1.3,0.9-2.6,2-4,2.8c-3,1.8-6.2,3.2-9.8,3.2c-1.1,0-2.2,0-3.3,0
			c-3.3,0.2-6.3-0.8-8.8-2.9c-1.4-1.2-2.9-1.4-4.8-1.1c-1.9,0.3-3.9,0.4-5.8,0.2c-2.3-0.3-4.6-0.9-6.8-1.4c-2.4-0.5-4.4-1.8-6.4-3.3
			c-0.7-0.5-1.4-1-2.1-1.5c-2.7-1.7-5.4-2-8.4-0.9c-2.6,1-5.3,1.6-8,2.3c-2,0.5-3.9,0.1-5.7-0.7c-1.6-0.8-3-1.9-4.3-3.1
			c-2.9-2.6-6.1-4.4-10.1-4.9c-1.1-0.1-2.2-0.3-3.1-0.8c-1.7-0.9-3.5-1.2-5.4-1c-2.2,0.2-3.8-0.6-4.9-2.5c-0.7-1.2-1.5-1.7-3.1-1.4
			c-1.4,0.3-2.9-0.1-4.4-0.4c-1.9-0.4-3-2-2.7-4c0.2-1.3,0.4-2.9,1.2-3.6c1.7-1.3,3.3-3.1,5.8-3.1c0.7,0,1.4-0.1,2.1,0
			c2.3,0.3,4-0.8,5.7-2.1c0.9-0.7,1.8-1.5,2.7-2.2c1.1-0.8,2.4-1.3,3.9-1.4c1.5,0,3.1-0.2,4.6-0.5c2.4-0.5,4.1-2.1,5.5-4
			c1.7-2.4,3.8-4.4,6.6-5.2c1.8-0.5,3.6-0.8,5.5-0.9c3.3-0.1,6.7,0,10-0.1c2.9,0,5.6,0.5,7.8,2.4c2.5,2.1,5.4,2,8.4,1.6
			c4-0.6,7.9-0.7,11.4,1.9c1.6,1.2,3.5,1.6,5.5,1.6c1.6,0,3.2,0.3,4.8,0.6c1.8,0.4,3.5,0.5,5.1-0.7c0.6-0.4,1.2-0.7,1.8-1.1
			c3.7-2.5,7.8-3.3,12.2-3c1,0.1,1.9,0.4,3,0.7c0,1.3,0,2.4,0,3.6c-1.2-0.2-2.4-0.5-3.5-0.6c-4-0.3-7.7,0.7-10.9,3.1
			c-2,1.5-4.2,2.3-6.7,2c-0.5-0.1-1.1-0.2-1.6-0.2c-1.6-0.2-3.2-0.6-4.8-0.7c-2.6-0.1-4.9-1.1-7-2.4c-2.8-1.7-5.6-2.1-8.7-1.3
			c-4,1-7.6,0.3-11-2.2c-2.3-1.7-5.1-2-7.8-2c-3.4,0-6.8,0.1-10.2,0.5c-2.8,0.3-5.3,1.6-7,4.1c-2.8,4-6.7,6.2-11.7,6.1
			c-1.8,0-3.1,0.6-4.4,1.8c-1.4,1.2-3,2.2-4.6,3.2c-1.4,0.9-3,0.7-4.5,0.6c-1.5,0-2.9,0.1-4.2,1c-0.3,0.2-0.6,0.4-0.9,0.7
			c-0.6,0.5-1.1,1.1-0.9,2c0.3,1,1.1,1,1.9,1c1-0.1,2-0.1,3-0.3c1.1-0.2,2,0,2.7,0.8s1.6,1.5,2.3,2.3c0.8,0.8,1.7,1.2,2.7,0.8
			c1.3-0.5,2.5-0.1,3.6,0.4c1.7,0.9,3.5,1.2,5.3,1.6c4.3,0.8,8.1,2.6,11.3,5.6c2.7,2.7,5.7,3.5,9.3,2.2c2-0.7,4.1-1.6,6.2-2
			c3.3-0.6,6.6-0.9,9.6,1.1c1.5,1,2.9,2.1,4.4,3c1.1,0.7,2.3,1.3,3.5,1.6c2.2,0.6,4.4,1.1,6.6,1.3c2.2,0.1,4.5-0.1,6.7-0.4
			c1.6-0.2,2.9,0.1,4.1,1.1c0.9,0.8,2,1.5,3.1,2.1c0.9,0.5,2,1,3,1.1c5,0.4,9.8-0.1,13.9-3.3c1.6-1.2,3.3-2.3,4.9-3.5
			C585.1,487.3,585.7,487.1,586.3,486.7z"/>
		<path d="M405.9,178.3c0.9,0,1.9,0.1,2.8,0c4-0.3,7.9,0.6,11.7,1.4c2.8,0.6,5.1,2.3,7,4.3c1,1.1,2,1.8,3.3,2
			c2.9,0.5,5.8,0.9,8.7,1.1c3.1,0.2,4.2,0.6,4.9,2.5c0.7,2.1-0.2,5.1-2.1,6.5c-1.6,1.1-3.4,2.2-5.2,3.1c-2,1-4.2,1.6-6.5,1.5
			c-2.9-0.1-5.7-0.1-8.6,0c-1.8,0-3.5,0.3-5.3,0.5c-3,0.3-4.9,2.1-6.6,4.3c-1.2,1.7-2.2,3.6-4.1,4.6c-3.3,1.8-6.7,2.6-10.5,2
			c-4.2-0.7-8.4-1.1-12.6-1.7c-0.9-0.1-1.8-0.3-2.7-0.6c-3.3-0.9-6.5-2.2-9.8-2.8c-2.2-0.4-4.5-0.5-6.7-0.1
			c-2.5,0.5-4.9,0.5-7.3,0.1c-1.4-0.2-2.7-1.1-3.9-1.9c-1.7-1.1-3-2.6-5.2-2.9c-1-0.1-1.5-0.9-1.6-2c-0.1-2,0.5-3.5,2.1-4.6
			c1.8-1.3,3.7-2.3,6-2c1.6,0.2,3.1-0.4,4.5-1.1c2.6-1.4,5.2-2.8,7.8-4.1c1.5-0.8,3.1-1.2,4.9-1.3c3.8-0.1,7.3-1.4,10.6-3.1
			c1.9-1,3.8-2.1,5.7-3.2c2.4-1.4,5.1-1.8,7.8-2.1c3.6-0.4,7.3-0.5,10.9-0.7C405.8,178.2,405.9,178.2,405.9,178.3z M441,190.7
			c-2.5-0.2-4.9-0.5-7.3-0.7c-3.8-0.3-7.2-1.5-9.9-4.4c-1.1-1.2-2.8-2-4.4-2.5c-2.1-0.7-4.4-1.3-6.6-1.4c-5.9-0.3-11.8-0.3-17.7,0.5
			c-2.3,0.3-4.5,1.1-6.7,2c-2.9,1.2-5.7,2.7-8.5,4.2c-2.6,1.4-5.4,1.8-8.3,2c-1.8,0.1-3.5,0.5-5.1,1.4s-3.1,1.7-4.7,2.6
			c-2.6,1.6-5.2,2.7-8.3,2.6c-1.8-0.1-3.3,0.8-4.9,2.3c2.3,0.6,3.7,2,5.1,3.4c1.5,1.4,3.6,1.8,5.6,1.6c1.5-0.1,2.9-0.7,4.3-0.7
			c2.4,0,4.8-0.1,7.2,0.3c2.3,0.4,4.4,1.4,6.7,2c2.4,0.6,4.8,1,7.3,1.3c2,0.3,4,0.2,6,0.7c2.9,0.7,5.8,0.8,8.8,0.7
			c1.2-0.1,2.5-0.4,3.5-1.1c1.2-0.8,2.1-2,3.1-3c1.4-1.5,2.6-3.1,4.1-4.4c2.3-2,5.3-2.5,8.3-2.6c3.7-0.1,7.5,0,11.2,0
			c0.8,0,1.7-0.2,2.5-0.3c2.9-0.4,5.1-2.2,7.5-3.6C440.9,193,441.3,192,441,190.7z"/>
		<path d="M314.1,660.6c0.7,21-0.1,42,0.4,62.9c0.2,7.8,0.1,15.7,0.3,23.5c0,0.5,0,1.1,0,1.6c-0.1,1.2-0.7,1.9-1.9,1.9
			c-3.5,0-7-0.2-10.5-0.3c-1.7,0-3.4-0.1-5.1-0.2c-4.9-0.2-9.8-0.3-14.6-0.5c-2-0.1-2.8-0.8-2.9-2.9c-0.1-1.3,0-2.6,0-4
			c0-4.6,0.1-9.2,0-13.8c-0.6-20.4-0.3-40.8-0.5-61.3c0-3.2-0.2-6.3-0.4-9.5c-0.1-2.2,0.5-4.3,1.3-6.3c0.8-1.9,1.4-3.8,2.6-5.4
			c1.4-1.9,3-3.6,4.9-4.9c2.1-1.4,4.6-2.1,7.2-2.5c5.6-0.8,10,1.3,14.2,4.7c2.9,2.4,4,5.4,4.3,8.9
			C313.7,655.3,313.9,657.9,314.1,660.6z M311.5,747.4c0-1.3,0-2.1,0-2.9c-0.1-8.8-0.1-17.7-0.3-26.5c-0.6-19.2,0.4-38.5-0.6-57.7
			c-0.2-3-0.6-6-1-9c-0.2-1.5-0.9-3-2.1-4.1c-2.1-1.9-4.5-3.5-7.3-4.4c-4.3-1.4-12.7,0.9-14.8,6.3c-0.4,1.1-1.2,2.2-1.7,3.3
			c-0.4,0.9-0.6,1.9-0.9,2.8c-0.6,2-0.1,4,0,6c0.3,19.2-0.4,38.3,0.4,57.5c0.3,8.3,0.1,16.6,0.1,24.9c0,0.8,0.1,1.6,0.1,2.5
			c0.8,0.1,1.3,0.2,1.8,0.2c6.4,0.2,12.7,0.3,19.1,0.5c0.5,0,1.1,0.1,1.6,0.2C307.5,747.1,309.3,747.3,311.5,747.4z"/>
		<path d="M323.5,656.8c-2.6,0.1-3.9-0.7-4.7-3.5c-1.6-5.7-4.4-10.9-8.1-15.6c-1-1.3-2.6-2.2-4.2-2.8s-3.5-0.9-5.2-0.9
			c-3-0.1-6,0.1-9,0.4c-3.1,0.2-5.8,1.7-8.2,3.6c-2.7,2.2-5.3,4.5-7.2,7.5c-1.5,2.5-2.7,5-3.2,7.9c-0.5,3.2-2.7,4.6-5.9,3.8
			c-1.3-0.3-2.3-2.2-1.9-4.1c0.2-1.2,0.5-2.4,0.9-3.6c1.2-3.8,1.8-7.9,4.6-11.1c3-3.5,6.6-6.3,10.6-8.7s7.8-5,11.6-7.7
			c2.7-2,2.7-2,5.4-0.1c2.1,1.4,4.5,2.4,6.8,3.4c3.2,1.5,6.2,3.2,8.7,5.7c2,2,4,3.9,5.8,6c3,3.5,4.4,7.8,5.7,12.1
			c0.3,1.2,0.6,2.4,1,3.6c0.7,2.5-0.2,3.9-2.8,4C323.9,656.8,323.7,656.8,323.5,656.8z M323.8,653.3c-0.7-2.1-1.3-3.9-1.8-5.7
			c-0.7-2.5-1.6-4.9-3.1-7c-2-2.8-4.2-5.6-7.1-7.6c-2.4-1.8-4.9-3.6-7.7-4.8c-2.8-1.2-5.7-2.3-8-4.3c-3.2,2.3-6.2,4.6-9.3,6.7
			c-2.9,2-5.9,3.7-8.7,5.7c-2.4,1.7-4.6,3.9-5.6,6.7c-1.1,3.1-1.8,6.4-2.6,9.6c-0.1,0.3,0.2,0.8,0.5,1.6c0.4-0.8,0.8-1.1,0.8-1.5
			c-0.1-2.3,0.9-4.2,1.8-6.2c2.2-4.4,5.5-8,9.5-11c2.8-2.1,5.7-3.8,9.1-4.4c3.2-0.6,6.5-0.8,9.7-0.6c3.2,0.3,6.3,0.9,9.1,2.5
			c1.1,0.6,2.2,1.2,3,2.2c2.1,2.8,4.3,5.5,5.7,8.8c1.1,2.6,2.1,5.2,3.1,7.8C322.1,652.7,322.3,653.6,323.8,653.3z"/>
		<path d="M272.2,699.9c2.7,0.3,3,1.7,3,3.5c0,2.8,0.3,5.6,0.4,8.3c0.1,2.2-0.9,3.1-3,3.3c-1.2,0.1-2.5,0.1-3.7,0
			c-1.7-0.1-2.5-0.8-2.5-2.4c-0.1-3.3-0.1-6.7,0-10c0-0.9,0.7-1.8,1.1-2.8c-1.4-0.2-2.1-1.2-2.1-2.8c0.1-3.4,0.2-6.8,0.3-10.2
			c0-0.7,0-1.4,0-2.1c0-7.5,0-14.9,0-22.4c0-0.6,0-1.2,0-1.9c0.3-2.2,1.5-3,4.5-2.8c2.8,0.1,3.8,0.9,3.9,3.2c0,2.6,0,5.1,0,7.7
			c0,5,0,9.9,0,14.9c0.1,4.2,0.3,8.4,0.4,12.5C274.8,698.4,274.7,698.4,272.2,699.9z M269.1,696.2c2,0.3,2.4-0.1,2.3-2
			c-0.2-3-0.4-6-0.4-9c-0.1-7.1,0-14.3-0.1-21.4c0-0.6,0-1.3-0.1-1.9c-0.1-0.3-0.5-0.6-0.8-0.6s-0.8,0.3-0.8,0.6
			c-0.1,0.6-0.1,1.2-0.1,1.8c0,5,0,9.9,0,14.9C269.1,684.4,269.1,690.3,269.1,696.2z M269.6,703.2c0,2.5,0,4.8,0,7
			c0,0.7,0.3,1.3,1,1.3c0.9,0.1,1.3-0.5,1.3-1.3c0-2.3,0-4.6,0-7C271,703.2,270.5,703.2,269.6,703.2z"/>
		<path d="M328.4,679.6c0,6,0,12,0,17.9c0,3.2-0.2,3.4-3.4,3.2c-0.9-0.1-1.9,0-2.8,0c-1.1,0-1.7-0.5-1.8-1.7c0-0.2,0-0.3,0-0.5
			c-0.2-12.6-0.3-25.1-0.5-37.7c0-2.3,1.3-3.4,3.6-3c1,0.1,2,0.3,3,0.4c1.2,0.2,1.7,0.8,1.9,2c0.1,0.8,0,1.7,0,2.6
			C328.4,668.4,328.4,674,328.4,679.6L328.4,679.6z M323.4,661.3c0,0.7-0.1,1.4-0.1,2.1c0,9.1,0,18.1,0,27.2c0,1.9,0.3,3.8,0.5,5.8
			c0,0.3,0.4,0.8,0.8,0.9c0.7,0.2,0.9-0.3,1-1c0-0.5,0-0.9,0-1.4c-0.1-1.8-0.4-3.7-0.4-5.5c-0.1-8.4,0-16.7,0-25.1
			c0-0.7,0-1.4-0.1-2.1C324.9,661.5,324.5,661.1,323.4,661.3z"/>
		<path d="M329.3,708.7c0,1.5,0.1,3.1,0,4.6c-0.1,2.4-1.2,3.3-3.5,3.2c-0.5,0-1.1-0.1-1.6-0.1c-3.3,0-3.5-1.3-3.7-3.6
			c-0.2-2.9-0.1-5.7,0-8.6c0-2,1.5-3.3,3.5-3c1.1,0.1,2.3,0.3,3.4,0.4c1.3,0.2,1.9,0.8,1.9,2.2C329.3,705.4,329.3,707,329.3,708.7z
			 M325.8,712.5c0-2.5,0-4.9,0-7.2c-2-0.4-2.1-0.3-2.1,1c-0.1,1.7-0.1,3.4,0,5.1C323.8,712.8,323.9,712.8,325.8,712.5z"/>
		<path d="M354.4,689.7c0-9.1,0.1-18.2,0-27.3c-0.1-3.7,0.1-7.4,1-11c0.6-2.7,2-5,3.9-7c0.9-0.9,1.8-1.7,2.6-2.7
			c2.6-3.2,8.5-4.2,13-1.4c4.5,2.9,6.3,7.1,6.7,12.1c0.2,2.4,0.6,4.8,0.4,7.2c-0.8,11.2,0.1,22.5-0.5,33.7
			c-0.4,7.8-0.1,15.7-0.3,23.5c0,0.5,0,0.9,0,1.4c-0.2,1.6-0.9,2.4-2.5,2.5c-1.4,0.1-2.8,0-4.2,0c-3,0-5.9,0-8.9,0
			c-2.2,0.1-4.3,0.3-6.5,0.4c-0.7,0-1.4,0-2.1-0.2c-1.7-0.4-2.3-1.1-2.4-2.9c-0.1-1.5,0-3.1,0-4.7
			C354.5,705.5,354.5,697.6,354.4,689.7L354.4,689.7z M369.6,717.3c0.1-0.6,0.2-0.8,0.2-1c0.2-5.3,0.3-10.5,0.5-15.8
			c0.1-2.7,0.3-5.4,0.4-8.1c0.2-4.1,0.5-8.2,0.4-12.3c-0.1-7.1,0.5-14.1-0.4-21.2c-0.3-2.1-0.3-4.2-0.5-6.2
			c-0.4-3.7-2.3-6.5-5.6-8.8c-2.6,2-4.8,4.5-5.7,7.8c-0.7,2.7-1.2,5.6-1.2,8.5c-0.1,18.3,0,36.5,0,54.8c0,0.5,0,0.9,0,1.4
			c0,1,0.5,1.3,1.5,1.3c2.6-0.1,5.3-0.1,7.9-0.2C368,717.4,368.7,717.4,369.6,717.3z M368.4,642.6c1.1,1.2,2.2,2.4,3.2,3.7
			c0.7,0.9,1.2,2,1.5,3.1c1.4,6,1.7,12.1,1.9,18.2c0.1,4.2-0.3,8.4-0.4,12.5c0,5.6-0.4,11.1-0.9,16.7c-0.4,4.3-0.4,8.7-0.5,13
			c-0.1,1.9,0,3.7,0,5.6c0,0.6,0.1,1.2,0.2,1.8c1.6,0.5,3,0,4.2-0.5c0.2-6.7,0.6-13.3,0.6-19.9c0.1-13.5,0-27,0.1-40.5
			c0-3.3-0.6-6.4-2-9.4C375,644.1,371.6,642.2,368.4,642.6z"/>
		<path d="M368.3,740.3c-3.2,0-6.4,0-9.5,0c-2.9,0-3.8-0.9-3.8-3.7c0-1.7,0-3.4,0-5.1c-0.1-1.9-0.4-3.7-0.4-5.5
			c-0.1-2,0.4-2.6,2.4-3.1c0.7-0.2,1.4-0.2,2.1-0.2c5.9,0,11.8,0,17.7,0c0.5,0,1.1,0,1.6,0.1c2,0.4,2.3,0.7,2.4,2.8
			c0.2,3.7,0.3,7.4,0.4,11.1c0.1,3.5-0.3,3.8-3.6,3.8C374.4,740.3,371.3,740.3,368.3,740.3L368.3,740.3z M358.4,736.8
			c4.7,0.5,17.6,0.3,19.1-0.3c0.4-3.6,0.3-8.6-0.3-10.1c-6.4,0-12.8,0-19.3,0c-0.1,0.4-0.2,0.7-0.2,1
			C358,730.6,358.2,733.6,358.4,736.8z"/>
		<path d="M241.6,701.4c0,4.7,0,9.3,0,14c0,2.3-0.6,3-2.8,3c-6.3,0.2-12.6,0.3-18.8,0.5c-0.3,0-0.6,0-0.9,0c-2-0.2-2.4-0.8-2.7-2.8
			c-0.8-6.3-0.1-12.6-0.5-18.8c-0.5-8,0-16-0.5-24c-0.4-6.9-0.3-13.8-0.3-20.7c0-4.9,2.2-9,6.4-11.8c1.7-1.1,3.7-1.8,5.7-1.7
			c1.8,0,3.7,0.1,5.5,0.4c1.8,0.3,3,1.5,3.9,3.1c1.8,3.3,3.3,6.7,4,10.4c0.1,0.3,0.1,0.6,0.1,0.9c0.2,3.8,0.4,7.6,0.4,11.4
			c0.1,5.4,0,10.9,0.1,16.3c0.1,6.6,0.4,13.2,0.6,19.8C241.7,701.4,241.7,701.4,241.6,701.4z M238.3,715c0-1.1,0-2,0-2.9
			c-0.2-15.1-0.3-30.3-0.5-45.4c0-1.7,0.1-3.4,0-5.1c-0.2-2.8-0.6-5.7-1-8.5c-0.2-1.1-0.4-2.3-0.9-3.4c-0.8-2-1.7-4-2.8-5.9
			c-0.6-1.1-1.5-1.2-2.3-0.5c-1.9,1.7-4,3.3-4.5,6c-0.5,3-1.2,5.9-1.5,8.9c-0.4,5.2-0.5,10.3-0.5,15.5c0,4.3,0.3,8.7,0.4,13
			c0,0.2,0,0.5,0.1,0.7c0.3,3.6,0.6,7.2,0.9,10.9c0.1,1.9,0.3,3.9,0.4,5.8c0,0.4,0,0.8-0.1,1.1c-0.7,3.3,0.1,6.4,0.4,9.8
			C230.3,715,234.1,715,238.3,715z M227.2,642.5c-2.8,0.3-4.9,1.1-6.2,3.1c-1.5,2.5-2.9,5.1-2.7,8.2c0.2,5.3,0.4,10.5,0.5,15.8
			c0.2,8.4,0.3,16.7,0.5,25.1c0.1,4.4,0,8.9,0.1,13.3c0.1,2.4,0.4,4.7,0.6,7.2c1-0.1,1.9-0.2,2.9-0.3c0-1,0-2,0-2.9
			c-0.1-0.9-0.3-1.8-0.3-2.8c0-6.7-0.1-13.5-0.9-20.2c-0.5-4.4-0.5-8.8-0.5-13.2c0-7.2-0.4-14.4,0.9-21.6
			C222.8,650.2,223.5,646,227.2,642.5z"/>
		<path d="M265.9,511.8c1.7-0.2,3-0.4,4.4-0.5c3-0.1,6.1-0.2,9.1,0c14.5,0.9,29,0.2,43.6,0.5c0.8,0,1.6,0.1,2.3,0.4
			c0.5,0.2,1.1,0.8,1.2,1.3c0.3,2.1,0.5,4.3,0.5,6.5c0,1.4-0.7,2-2.2,2.1c-0.5,0-1.1,0-1.6,0c-8.2,0-16.3,0.3-24.5-0.1
			c-9.9-0.5-19.7-0.2-29.6-0.4c-1.9,0-2.9-0.8-3.1-2.5C265.8,516.8,265.9,514.5,265.9,511.8z M323.3,518.8c0.6-3.3,0.4-3.7-2-3.7
			c-16.8,0-33.5,0-50.3,0c-0.6,0-1.2,0.2-1.7,0.2c-0.3,2.8-0.1,2.9,2.3,3c11.9,0.3,23.9-0.3,35.8,0.4c4.6,0.3,9.2,0.1,13.7,0.1
			C321.8,518.8,322.5,518.8,323.3,518.8z"/>
		<path d="M369.1,558.4c-3.7,0-7.5,0-11.2,0c-2.4,0-2.7-0.3-3.1-2.5c-0.2-1.3-0.3-2.6-0.4-3.9c-0.1-1.3-0.3-2.6-0.4-3.9
			c-0.1-0.6-0.1-1.2-0.1-1.9c0.1-1.6,0.7-2.2,2.3-2.3c0.4,0,0.8,0,1.2,0c7.1,0,14.1,0,21.2,0c0.3,0,0.6,0,0.9,0
			c2.6,0.2,3.2,0.8,3.3,3.4c0.1,2.6,0.4,5.3,0.4,7.9c0.1,2.7-0.4,3.2-3.1,3.2C376.6,558.5,372.8,558.5,369.1,558.4
			C369.1,558.5,369.1,558.4,369.1,558.4z M379.4,547.3c-2.5,0-5,0-7.5,0c-2.4,0-4.8,0-7.2,0c-2.4,0-4.9-0.2-7.3,0.2
			c0.2,2.7,0.3,5.1,0.5,7.7c3.6,0,6.9,0,10.2,0c3.4,0.1,6.8,0.2,10.2,0.4c1.2,0.1,1.8-0.3,1.7-1.6
			C379.9,551.8,379.6,549.7,379.4,547.3z"/>
		<path d="M219.7,557.5c-2.3,0-4.5,0-6.8,0c-1.7,0-2.5-0.6-2.6-2.3c-0.1-3.1-0.1-6.2,0-9.3c0.1-2.1,1.1-2.8,3.2-2.5
			c0.6,0.1,1.2,0.1,1.9,0.1c7.4-0.8,14.7-0.2,22.1-0.4c1.7,0,2,0.2,2.4,1.9c0.1,0.5,0.2,1.1,0.2,1.6c0,2.5,0,5,0,7.5
			c0,2.4-0.7,3-3,3.1C231.3,557.2,225.5,557.4,219.7,557.5L219.7,557.5z M213.8,554c0.6,0.1,0.9,0.2,1.2,0.2c5.3,0,10.6,0.1,15.8,0
			c1.8,0,3.6-0.4,5.6-0.6c0-2.4,0.2-4.7-0.1-6.9c-4.7-0.7-19.6-0.3-22.5,0.6C213.8,549.4,213.8,551.6,213.8,554z"/>
		<path d="M224.4,521.1c-4,0-8.1,0-12.1,0c-2.4,0-2.8-0.5-2.9-2.9c0-1.5,0-2.9,0-4.4c0.1-1.8,0.6-2.4,2.4-2.5c0.1,0,0.2,0,0.2,0
			c8-0.2,15.9-0.3,23.9-0.5c0.5,0,0.9,0,1.4,0c1.2,0.2,1.8,0.7,1.9,1.9c0.2,1.7,0.3,3.4,0.5,5.1c0.1,2.1-0.8,3.2-3.2,3.2
			c-3.5,0.1-7,0-10.5,0C225.5,521.1,224.9,521.1,224.4,521.1L224.4,521.1z M235.9,514.4c-2.3-0.4-20.8,0-23,0.5c0,0.8,0,1.7,0,2.9
			c7.7-0.2,15.3,0.3,23-0.6C235.9,516.2,235.9,515.4,235.9,514.4z"/>
		<path d="M367.7,523c-3.3,0-6.7,0-10,0c-0.5,0-1.1,0-1.6,0c-2.6-0.2-3.1-0.7-3.1-3.3c0-1.6,0-3.3,0-4.9c0.1-1.9,0.6-2.5,2.5-2.6
			c1.4-0.1,2.8,0,4.2,0c6.2,0,12.4,0,18.6,0c2.6,0,3.4,0.8,3.7,3.4c0.1,1.5,0.4,2.9,0.5,4.4c0.1,2.2-0.6,2.9-2.9,3
			c-1.2,0.1-2.5,0-3.7,0C373.2,523,370.5,523,367.7,523z M379.3,519.5c-0.3-1.4-0.5-2.6-0.8-3.7c-2.9-0.5-20.3-0.4-22.1,0.2
			c0.1,1.1-0.5,2.3,0.5,3.5C364.2,519.5,371.5,519.5,379.3,519.5z"/>
	</g>
</g>
</svg>
