<?xml version="1.0" encoding="utf-8"?>
<!-- Generator: Adobe Illustrator 23.0.6, SVG Export Plug-In . SVG Version: 6.00 Build 0)  -->
<svg version="1.1" id="Layer_1" xmlns="http://www.w3.org/2000/svg" xmlns:xlink="http://www.w3.org/1999/xlink" x="0px" y="0px"
	 viewBox="0 0 207.3 56.3" style="enable-background:new 0 0 207.3 56.3;" xml:space="preserve">
<g>
	<g>
		<path d="M20.2,44.5h-8V25.6H8.8v-6h11.4V44.5z M20.5,12.5c0,2.6-1.7,4.3-4.4,4.3c-2.6,0-4.3-1.7-4.3-4.3c0-2.5,1.7-4.2,4.3-4.2
			C18.7,8.2,20.5,9.9,20.5,12.5z"/>
		<path d="M44.8,44.5h-8V16.2h-3.5v-6h11.4V44.5z"/>
		<path d="M61.9,18.9c7.9,0,13.4,5.9,13.4,13.2c0,7.3-5.8,13.2-13.5,13.2c-7.9,0-13.4-5.9-13.4-13.2C48.5,24.8,54.1,18.9,61.9,18.9z
			 M67.3,32.2c0-4.1-1.9-7.9-5.5-7.9c-3.7,0-5.4,3.8-5.4,7.9s1.9,7.9,5.5,7.9C65.6,40.1,67.3,36.3,67.3,32.2z"/>
		<path d="M97,19.7h7.5L95,44.5H85l-9.2-24.8h8.6l6.2,19.5L97,19.7z"/>
		<path d="M122.8,36.7h7.9c-1.2,5.9-6.7,8.6-12.5,8.6c-3.9,0-8-1.3-10.5-4.5c-1.9-2.4-2.9-5.4-2.9-8.6c0-7.9,5.7-13.2,13.5-13.2
			c4.1,0,7.3,1.3,9.4,3.7c2.7,3,3.5,7.2,3.1,11.4h-17.8c0,2.9,1.9,5.8,5.3,5.9C120.8,40.1,122.2,38.8,122.8,36.7z M122.9,29.2
			c-0.4-3.1-2.2-5.1-4.7-5.1c-2.8,0-4.8,2.3-5,5.1H122.9z"/>
	</g>
	<g id="XMLID_219_">
		<g id="XMLID_230_">
			<g id="XMLID_231_">
				<g>
					<g>
						<g>
							<polygon points="180.6,20.9 169.3,6.3 158,20.9 145.6,11.4 140.3,45.2 169.3,45.2 198.3,45.2 193,11.4 							"/>
						</g>
					</g>
				</g>
			</g>
		</g>
	</g>
</g>
</svg>
