<?xml version="1.0" encoding="utf-8"?>
<!-- Generator: Adobe Illustrator 21.0.0, SVG Export Plug-In . SVG Version: 6.00 Build 0)  -->
<svg version="1.1" id="a7c5d023-c43c-4f79-b9cc-e1ba2b02bdff"
	 xmlns="http://www.w3.org/2000/svg" xmlns:xlink="http://www.w3.org/1999/xlink" x="0px" y="0px" viewBox="0 0 419.5 297.6"
	 style="enable-background:new 0 0 419.5 297.6;" xml:space="preserve">
<style type="text/css">
	.st0{clip-path:url(#SVGID_2_);}
	.st1{fill:none;stroke:#231F20;stroke-width:1.5;stroke-linecap:round;stroke-linejoin:round;}
</style>
<title>Illustrations</title>
<g>
	<defs>
		<rect id="SVGID_1_" width="419.5" height="297.6"/>
	</defs>
	<clipPath id="SVGID_2_">
		<use xlink:href="#SVGID_1_"  style="overflow:visible;"/>
	</clipPath>
	<g class="st0">
		<polygon class="st1" points="-35.1,187.7 186.4,109.5 209.9,82.5 238.3,9.6 37.8,100.6 -4.9,163.7 		"/>
		<rect x="134.6" y="22.8" class="st1" width="23.7" height="46.2"/>
		<polygon class="st1" points="70.1,142.2 57,147.6 57,131.6 70.1,126.2 		"/>
		<path class="st1" d="M116.4,330.4l17.5-23h26.2l11.3-2.2v-50.9c0-5.9-4.7-10.6-10.6-10.6s-10.6,4.7-10.6,10.6c0,0,0,0,0,0v45.4
			h-16.6v-29.8L80,347.7"/>
		<polyline class="st1" points="153.3,106.7 131.6,128.9 -35.1,187.7 -35.1,196 -31.1,196 -31.1,322.4 		"/>
		<polygon class="st1" points="72.3,249.2 57,253.1 57,210.5 72.3,206.6 		"/>
		<polygon class="st1" points="26.8,253.1 11.4,257 11.4,219.1 26.8,215.2 		"/>
		<path class="st1" d="M240.8,245.6v-9.2c0-4.7,3.8-8.5,8.5-8.5c4.7,0,8.5,3.8,8.5,8.5"/>
		<polyline class="st1" points="186.4,178.8 186.4,139.8 178.4,142.2 178.4,125.3 186.4,121.7 186.4,109.5 		"/>
		<path class="st1" d="M238.3,9.6l40.6,116.6l19.7,38.8l-5.5,3.6v16.8h-4v156.7h-8v8H275v6.6h-6.5v8.7h-8.6v-49.8
			c0-7.3-5.9-13.2-13.2-13.2c-7.3,0-13.2,5.9-13.2,13.2c0,0,0,0,0,0v46.8c0,0-12.9-3-15.9,8.9c0,0,1.5-11.1-8.5-11.2
			c-4,0-6.7,3-7.8,7c0,0-11.5-6.6-13.8,4.8v-14.6h-11v-6.2h21.9v-13.5h-6.6v-6.9h-13.5V321h8V198"/>
		<path class="st1" d="M-5.5,240.7c-4.2,0-7.7,3.4-7.7,7.7l0,0v26.5h6.3v6.9h-6.3v9.9l25.9-3.6v6.1h6.4v34.8"/>
		<polyline class="st1" points="133.6,288.8 120.6,308.5 120.6,288.9 		"/>
		<polyline class="st1" points="133.6,269.9 160.2,269.9 160.2,301 155,299.8 155,234 		"/>
		<polyline class="st1" points="57,131.6 63.5,108.1 70.1,126.2 86.1,130.5 89.3,117.7 113.5,108.1 125.9,78.6 151.5,93.9 
			153.3,106.7 134.6,101.3 127.4,89.6 127.4,122.7 -4.9,172.1 -4.9,152.4 1.8,132 10.3,150.5 29.3,154.9 29.3,142.1 13.8,136.1 		
			"/>
		<polyline class="st1" points="134.6,36.2 146.5,30.5 158.3,37 		"/>
		<polyline class="st1" points="134.6,43.6 146.5,37.8 158.3,44.3 		"/>
		<line class="st1" x1="186.4" y1="139.8" x2="289.1" y2="185.4"/>
		<polyline class="st1" points="264.1,256 264.7,206.1 277.1,210.2 277.1,259.3 260.9,255.2 260.9,237.4 257.6,236.1 257.6,269.9 
			240.8,266.6 240.8,245.6 235.1,244.1 235.1,197.8 216.8,191.4 216.8,202.6 208.4,199.4 208.4,210.4 198.4,210.4 198.4,218.5 
			193.1,218.5 193.1,225.5 209.5,225.5 209.5,236.8 215.8,236.8 215.8,242.3 221.6,242.3 221.6,255.1 240.8,259.2 		"/>
		<rect x="234.9" y="55.4" class="st1" width="5.4" height="27.2"/>
		<path class="st1" d="M57,253.1c0,0-5.6,0.8-5.6,0v-46.5l-10.2,3v8.5h-7.3v35h10.5v11H33.8v5.8h14.9v7.2h5.5v6.1h6.1v7.6h17.8v4.8
			l38.3-0.4v34.9"/>
		<path class="st1" d="M63.5,108.1c0,0,15.3,5.2,15.8,4.4s4.1-8,4.1-8l-6.3,2.2l3.4-8l13.1-5L107.5,69"/>
		<polyline class="st1" points="257.6,236.1 246.6,233 246.6,267.8 		"/>
		<line class="st1" x1="155.1" y1="22.8" x2="155.1" y2="-25.2"/>
		<polyline class="st1" points="178.4,125.3 110.2,149 110.2,160.8 116.5,160.8 116.5,203.9 109,203.9 109,250.4 122.2,250.4 
			122.2,262.6 150.3,262.6 		"/>
		<line class="st1" x1="186.4" y1="121.7" x2="293.1" y2="168.7"/>
		<polyline class="st1" points="154.8,234 140.8,234 140.8,224.7 133.6,224.7 133.6,206.6 140.8,206.6 140.8,200.1 150.8,200.1 
			150.8,195.6 158.8,195.6 158.8,189.1 167.6,189.1 167.6,184.1 182.4,184.1 182.4,178.8 190.7,178.8 190.7,197.9 186.4,197.9 		"/>
	</g>
</g>
</svg>
