<?xml version="1.0" encoding="utf-8"?>
<!-- Generator: Adobe Illustrator 21.0.0, SVG Export Plug-In . SVG Version: 6.00 Build 0)  -->
<svg version="1.1" id="_x34_e4c319b-44fd-4c5d-89a9-7e3e0c7d0054"
	 xmlns="http://www.w3.org/2000/svg" xmlns:xlink="http://www.w3.org/1999/xlink" x="0px" y="0px" viewBox="0 0 419.5 297.6"
	 style="enable-background:new 0 0 419.5 297.6;" xml:space="preserve">
<style type="text/css">
	.st0{clip-path:url(#SVGID_2_);}
	.st1{fill:none;stroke:#231F20;stroke-width:1.5;stroke-linecap:round;stroke-linejoin:round;}
</style>
<title>Illustrations</title>
<g>
	<defs>
		<rect id="SVGID_1_" width="419.5" height="297.6"/>
	</defs>
	<clipPath id="SVGID_2_">
		<use xlink:href="#SVGID_1_"  style="overflow:visible;"/>
	</clipPath>
	<g class="st0">
		<polyline class="st1" points="76.2,175.1 121.1,175.1 121.1,268.1 43.9,268.1 43.9,198.4 75.9,198.4 		"/>
		<line class="st1" x1="67.8" y1="175.1" x2="73.1" y2="175.1"/>
		<polyline class="st1" points="278.8,232.2 278.8,253.3 246,253.3 246,224.1 278.8,224.1 		"/>
		<line class="st1" x1="292.6" y1="244.8" x2="292.6" y2="188.1"/>
		<polyline class="st1" points="280.7,273.8 233.8,273.8 233.8,188.1 255.4,188.1 255.4,201.9 268.4,201.9 268.4,181.8 		"/>
		<polyline class="st1" points="268.4,185.3 268.4,181.8 276.2,181.8 		"/>
		<polyline class="st1" points="235.3,181.8 258.4,181.8 258.4,199 264,199 264,188.1 292.6,188.1 		"/>
		<polyline class="st1" points="55.6,232.1 55.6,222.5 58.3,222.5 58.3,217.4 		"/>
		<polyline class="st1" points="121.1,243 106.4,243 106.4,251.8 110.2,251.8 110.2,255.8 62.6,255.8 62.6,222.9 103.7,222.9 
			103.7,232.1 55.6,232.1 		"/>
		<line class="st1" x1="75.9" y1="222.9" x2="75.9" y2="255.8"/>
		<line class="st1" x1="91.4" y1="222.9" x2="91.4" y2="255.8"/>
		<line class="st1" x1="282.2" y1="224.1" x2="282.2" y2="182.8"/>
		<polyline class="st1" points="216.2,238.8 242,238.8 242,232.2 		"/>
		<line class="st1" x1="246" y1="232.2" x2="242" y2="232.2"/>
		<line class="st1" x1="278.8" y1="232.2" x2="246" y2="232.2"/>
		<line class="st1" x1="246" y1="224.1" x2="282.2" y2="224.1"/>
		<polyline class="st1" points="282.2,240.3 282.2,251.1 292.6,251.1 292.6,254 		"/>
		<line class="st1" x1="255.7" y1="224.1" x2="255.7" y2="253.3"/>
		<line class="st1" x1="268.6" y1="224.1" x2="268.6" y2="253.3"/>
		<line class="st1" x1="95.3" y1="268.1" x2="95.3" y2="276.3"/>
		<rect x="40.6" y="149.4" class="st1" width="4.9" height="17.3"/>
		<line class="st1" x1="126.7" y1="145.7" x2="126.7" y2="166.7"/>
		<line class="st1" x1="-0.4" y1="76.4" x2="40.6" y2="155.6"/>
		<line class="st1" x1="40.6" y1="164.6" x2="2.1" y2="90.3"/>
		<line class="st1" x1="60.6" y1="167.9" x2="45.5" y2="166.7"/>
		<line class="st1" x1="75" y1="169" x2="69.2" y2="168.5"/>
		<path class="st1" d="M10.2,172.7v-26.3c0-1.7-1.4-3.1-3.1-3.1S4,144.7,4,146.4v26.9"/>
		<path class="st1" d="M1.7,176.6v-28.7c0-1.7-1.4-3.1-3.1-3.1s-3.1,1.4-3.1,3.1v29.3L1.7,176.6z"/>
		<path class="st1" d="M2.8,142.1c0.7-2.7,3.5-4.2,6.1-3.5c2.1,0.6,3.5,2.4,3.7,4.5v16.7l-19.4,2"/>
		<path class="st1" d="M-6.4,143.1c0.6-2.2,2.5-3.7,4.8-3.7c1.9,0,3.6,1.1,4.4,2.7"/>
		<path class="st1" d="M157.2,173.7v-25.6c-0.1-2.4,1.7-4.4,4.1-4.6s4.4,1.7,4.6,4.1c0,0.1,0,0.3,0,0.4v26.5L157.2,173.7z"/>
		<path class="st1" d="M160.3,143.9c1.8,0.6,3.1,2.2,3.1,4.2v26.2"/>
		<line class="st1" x1="201.2" y1="158.5" x2="201.2" y2="182.7"/>
		<path class="st1" d="M178.5,170.8v4.7l-8.7-0.8V149c0.1-2.4,2.2-4.3,4.6-4.1c2.2,0.1,4,1.9,4.1,4.1v7.9"/>
		<path class="st1" d="M182.5,175.5v-25.6c-0.1-2.4,1.7-4.4,4.1-4.6s4.4,1.7,4.6,4.1c0,0.1,0,0.3,0,0.4v26.5L182.5,175.5z"/>
		<path class="st1" d="M201.2,177l-6.1-0.6v-25.6c0.1-2.4,2.2-4.3,4.6-4.1c2.2,0.1,4,1.9,4.1,4.1v20"/>
		<path class="st1" d="M162.8,156.6l-9.7-0.6v-9.6c0-4,3.3-7.3,7.3-7.3c3.1,0,5.8,1.9,6.9,4.8l0.3-0.4c1.8-3.6,6.2-5,9.8-3.2
			c1.6,0.8,2.9,2.2,3.5,4l0.2-0.1c2.3-3.3,6.9-4.1,10.2-1.8c1.2,0.8,2.1,2,2.6,3.3"/>
		<polyline class="st1" points="201.2,158.2 173.5,156.8 173.5,112.6 		"/>
		<path class="st1" d="M194.1,145.5c2.3-3.3,6.9-4.1,10.2-1.7c1.9,1.4,3.1,3.6,3.1,6v9.2l-3.4-0.2"/>
		<polyline class="st1" points="-6.7,224.3 -34.5,210.4 -38.3,210.4 -59.4,232.8 4,232.8 4,229.7 		"/>
		<polyline class="st1" points="1.7,80.6 128.2,93 175.8,80.6 		"/>
		<line class="st1" x1="126.7" y1="145.7" x2="128.2" y2="93"/>
		<polygon class="st1" points="148.9,50.5 158.8,42.6 183.1,-13.6 189.9,-13.6 216.7,39.7 224.8,46.9 224.8,50.5 182.3,46.7 
			182.1,41.9 		"/>
		<polyline class="st1" points="157,75 157,57.5 154,54.7 151.2,54.7 148.9,50.5 		"/>
		<line class="st1" x1="154" y1="54.7" x2="182.3" y2="46.7"/>
		<polyline class="st1" points="185.8,-13.6 182.3,36.9 216.7,39.7 		"/>
		<line class="st1" x1="28.2" y1="83.2" x2="75" y2="169"/>
		<line class="st1" x1="40.4" y1="84.3" x2="87.2" y2="166.7"/>
		<line class="st1" x1="168.1" y1="82.6" x2="126.7" y2="145.7"/>
		<polyline class="st1" points="178.1,82.4 126.7,166.7 87.2,166.7 		"/>
		<line class="st1" x1="175.8" y1="80.6" x2="178.1" y2="77.3"/>
		<line class="st1" x1="229.5" y1="166.8" x2="178.1" y2="82.4"/>
		<line class="st1" x1="190.8" y1="97.7" x2="178.1" y2="77.3"/>
		<line class="st1" x1="237.5" y1="99.7" x2="294.2" y2="178.1"/>
		<path class="st1" d="M280.9,273.9c-3.9-5.9-2.3-13.9,3.6-17.7c2.1-1.4,4.5-2.1,7-2.1c0.3,0,0.6,0,1,0l173.7-3.4v29L283.9,277
			C282.8,276.1,281.7,275.1,280.9,273.9"/>
		<path class="st1" d="M332.5,256.2h-18.7c-7.1,0.1-12.8,6-12.8,13.1v10.2"/>
		<rect x="357.3" y="266.4" class="st1" width="50.8" height="4.2"/>
		<rect x="363" y="270.6" class="st1" width="2.2" height="7.5"/>
		<rect x="378.7" y="270.6" class="st1" width="2.2" height="7.5"/>
		<rect x="394.8" y="270.6" class="st1" width="2.2" height="7.5"/>
		<line class="st1" x1="401.1" y1="266.4" x2="401.1" y2="270.6"/>
		<line class="st1" x1="182.3" y1="36.9" x2="182.1" y2="41.9"/>
		<line class="st1" x1="183.7" y1="17" x2="189.1" y2="37.4"/>
		<line class="st1" x1="162.4" y1="108.1" x2="185" y2="108.1"/>
		<polyline class="st1" points="173.5,112.6 163.4,112.6 126.7,172.5 126.7,180.4 134.8,180.4 134.8,243.1 		"/>
		<polyline class="st1" points="4,173.3 40.6,170 40.6,217.4 58.3,217.4 		"/>
		<polyline class="st1" points="4,173.3 4,182.9 -40.6,189.6 -40.6,177.2 		"/>
		<line class="st1" x1="12.3" y1="109.9" x2="-12.3" y2="115.9"/>
		<line class="st1" x1="-40.6" y1="177.2" x2="-0.4" y2="76.4"/>
		<polyline class="st1" points="-14.6,220.4 -14.6,193.6 14.5,190.1 14.5,231.6 4,232.9 		"/>
		<line class="st1" x1="10.2" y1="229" x2="14.5" y2="228.5"/>
		<line class="st1" x1="4" y1="229.7" x2="4" y2="191.6"/>
		<line class="st1" x1="10.2" y1="172.7" x2="10.2" y2="229"/>
		<polyline class="st1" points="67.8,175.1 67.8,179.1 64.6,179.1 64.6,175.1 		"/>
		<polyline class="st1" points="76.2,175.1 76.2,179.1 73.1,179.1 73.1,175.1 		"/>
		<line class="st1" x1="64.6" y1="175.1" x2="14.5" y2="81.8"/>
		<line class="st1" x1="73.1" y1="175.1" x2="69.2" y2="168.5"/>
		<polyline class="st1" points="121.1,182.7 88.1,182.1 88.1,184.7 		"/>
		<polyline class="st1" points="75.9,198.4 75.9,184.7 80.5,184.7 		"/>
		<polyline class="st1" points="85.1,184.7 83.5,184.7 83.5,198.4 80.5,198.4 		"/>
		<line class="st1" x1="80.5" y1="198.4" x2="80.5" y2="184.7"/>
		<polyline class="st1" points="85.1,184.7 88.1,184.7 88.1,198.4 83.5,198.4 		"/>
		<path class="st1" d="M156.6,255.8v-20.5c0-13.7,11.1-24.7,24.7-24.7s24.7,11.1,24.7,24.7c0,0,0,0,0,0v20.5"/>
		<path class="st1" d="M170.1,213.2c8.3,4.2,13.6,12.7,13.6,22.1V266"/>
		<path class="st1" d="M216.2,238.8v-7c0-19.3-15.6-34.9-34.9-34.9s-34.9,15.6-34.9,34.9v23.9"/>
		<polyline class="st1" points="156.6,266 156.6,255.8 141.6,255.8 		"/>
		<polyline class="st1" points="218.9,255.8 206.1,255.8 206.1,266 		"/>
		<polyline class="st1" points="233.8,273.8 226,273.8 226,272.2 222.4,272.2 222.4,270 218.9,270 218.9,266 156.6,266 		"/>
		<path class="st1" d="M95.3,276.3h34.1v-0.8c0-3.4,2.7-6.1,6.1-6.1c3.4,0,6.1,2.7,6.1,6.1v4"/>
		<polyline class="st1" points="126.7,276.3 126.7,191.3 165.2,191.3 		"/>
		<polyline class="st1" points="141.6,255.8 141.6,248 134.8,248 134.8,243.1 		"/>
		<polyline class="st1" points="163.4,180.4 165.4,182.9 165.1,196.9 166.8,200.1 		"/>
		<polyline class="st1" points="171.1,182.2 172.9,183.9 172.9,191.4 174.6,193.4 176.2,191.8 176.2,186.4 173.1,184.8 		"/>
		<polyline class="st1" points="177.2,182.7 179.1,183.9 179.1,191.3 180.6,193.4 		"/>
		<polyline class="st1" points="181.3,182.7 183.2,183.9 183.2,191.3 184.7,193.4 		"/>
		<polyline class="st1" points="185.6,182.7 187.4,183.9 187.4,191.3 188.9,193.4 		"/>
		<polyline class="st1" points="193.2,182.9 195.1,184.1 195.1,191.6 193.2,193.6 		"/>
		<polyline class="st1" points="193.1,182.9 191.2,184.1 191.2,191.6 193.1,193.6 		"/>
		<polyline class="st1" points="196.9,182.7 198.7,183.9 198.7,191.3 200.3,193.4 		"/>
		<polyline class="st1" points="201.2,182.7 203,183.9 201.2,187.8 198.7,187.8 		"/>
		<polyline class="st1" points="201.2,187.8 203.4,190.7 203.4,198.7 204.7,200.3 204.7,205.7 		"/>
		<line class="st1" x1="183.2" y1="187.8" x2="187.2" y2="187.8"/>
		<polyline class="st1" points="165.4,183.8 167.4,182.5 169.2,184.4 169.2,191.4 167.4,193.4 165.2,191.3 		"/>
		<polyline class="st1" points="163.4,180.4 153.1,180.4 153.1,170.8 157.2,170.8 		"/>
		<line class="st1" x1="178.5" y1="170.8" x2="203.8" y2="170.8"/>
		<polyline class="st1" points="235.3,181.8 235.3,166.8 229.5,166.8 		"/>
		<line class="st1" x1="219.6" y1="99.7" x2="237.5" y2="99.7"/>
		<polyline class="st1" points="282.2,182.8 294.2,182.8 294.2,178.1 		"/>
		<polyline class="st1" points="185,46.9 185,53 183,53 183,70.2 177.4,70.8 		"/>
		<polyline class="st1" points="222,50.5 222,56.4 219.6,56.4 219.6,72.7 222.5,72.7 222.5,78.9 219.6,78.9 219.6,99.7 276.2,181.8 
					"/>
		<path class="st1" d="M212.2,66.7c0.6,6.1-2.9,11.6-7.8,12.1s-9.4-3.9-10-10s2.9-11.5,7.8-12.1S211.6,60.6,212.2,66.7z"/>
		<path class="st1" d="M201.4,57c5,0.3,9,5.3,9,11.5c0,1.3-0.2,2.7-0.5,3.9"/>
		<path class="st1" d="M204,56.8c-1.1-0.2-2.2-0.3-3.3-0.2c-6,0.7-10.5,6.2-9.9,16.9v24.3"/>
		<line class="st1" x1="202.5" y1="67.7" x2="202.5" y2="62.9"/>
		<line class="st1" x1="204.9" y1="69.9" x2="202.5" y2="67.7"/>
		<path class="st1" d="M161.2,67.9c-0.5,5.5,2.6,10.4,7.1,11s8.5-3.5,9-9s-2.6-10.4-7.1-11S161.8,62.4,161.2,67.9z"/>
		<path class="st1" d="M171,59.1c-4.5,0.2-8.1,4.8-8.1,10.4c0,1.2,0.2,2.4,0.5,3.6l-9.1,2.7V86"/>
		<line class="st1" x1="170" y1="68.7" x2="170" y2="64.5"/>
		<line class="st1" x1="167.9" y1="70.8" x2="170" y2="68.7"/>
		<line class="st1" x1="219.6" y1="72.7" x2="209.9" y2="72.5"/>
		<polyline class="st1" points="183.7,91.6 180.7,91.6 180.7,103.8 185,103.8 185,108.1 		"/>
		<polyline class="st1" points="218.9,255.8 226,255.8 226,267.6 227.7,267.6 		"/>
		<polyline class="st1" points="-9.5,268.1 27.5,268.1 27.5,276.3 43.9,276.9 43.9,268.1 		"/>
		<polyline class="st1" points="347.6,228.4 372.5,241.9 332.5,244.8 292.6,244.8 		"/>
		<polyline class="st1" points="282.2,240.3 300.3,224.1 335.8,222.1 		"/>
		<line class="st1" x1="335.8" y1="222.1" x2="332.5" y2="244.8"/>
		<line class="st1" x1="332.5" y1="244.8" x2="332.5" y2="256.2"/>
		<line class="st1" x1="361.4" y1="242.7" x2="361.4" y2="252.6"/>
		<line class="st1" x1="227.7" y1="267.6" x2="278.8" y2="267.6"/>
		<line class="st1" x1="183.2" y1="231" x2="156.9" y2="231"/>
		<polyline class="st1" points="174.7,5.9 166.4,40.3 174.7,38 183,-3.4 		"/>
		<line class="st1" x1="347.6" y1="228.4" x2="361.4" y2="242.7"/>
		<polyline class="st1" points="-3.6,108.5 -3.5,102.9 2.1,98.8 2.1,90.3 		"/>
		<line class="st1" x1="141.6" y1="279.6" x2="301.1" y2="279.6"/>
	</g>
</g>
</svg>
