<?xml version="1.0" encoding="utf-8"?>
<!-- Generator: Adobe Illustrator 21.0.0, SVG Export Plug-In . SVG Version: 6.00 Build 0)  -->
<svg version="1.1" id="_x34_a47cf4f-811d-45e5-98ac-bd0174ec7e68"
	 xmlns="http://www.w3.org/2000/svg" xmlns:xlink="http://www.w3.org/1999/xlink" x="0px" y="0px" viewBox="0 0 419.5 297.6"
	 style="enable-background:new 0 0 419.5 297.6;" xml:space="preserve">
<style type="text/css">
	.st0{clip-path:url(#SVGID_2_);}
	.st1{fill:none;stroke:#231F20;stroke-width:1.5;stroke-linecap:round;stroke-linejoin:round;}
</style>
<title>Illustrations</title>
<g>
	<defs>
		<rect id="SVGID_1_" width="419.5" height="297.6"/>
	</defs>
	<clipPath id="SVGID_2_">
		<use xlink:href="#SVGID_1_"  style="overflow:visible;"/>
	</clipPath>
	<g class="st0">
		<path class="st1" d="M149.5,141.2c2.6-5.7,8.2-9.4,14.5-9.4c6.5,0.1,12.3,3.9,15.2,9.7"/>
		<path class="st1" d="M107.9,136.2c7.2-3.7,16-0.9,19.7,6.3c3.7,7.2,0.9,16-6.3,19.7c-2.1,1.1-4.4,1.6-6.7,1.6"/>
		<path class="st1" d="M112.7,236.5c22.3-20.9,57.3-19.9,78.3,2.4c5.5,5.8,9.6,12.8,12.2,20.3v25.4"/>
		<path class="st1" d="M319.5,260.8c13.2-19.5,39.6-24.6,59.1-11.4s24.6,39.6,11.4,59.1c-10.3,15.2-29.1,22.1-46.8,17.1"/>
		<circle class="st1" cx="74.7" cy="306.2" r="24.4"/>
		<polyline class="st1" points="250,212.9 230.2,206.2 247.6,187.7 232.2,170 		"/>
		<line class="st1" x1="249.6" y1="165.2" x2="273.2" y2="212.9"/>
		<polyline class="st1" points="183.4,144.6 227.7,155.8 223.8,160.3 232.2,170 		"/>
		<line class="st1" x1="250" y1="212.9" x2="295.9" y2="264.2"/>
		<polyline class="st1" points="168.7,66.1 168.7,141.6 149.5,141.6 149.5,62.8 168.7,62.8 		"/>
		<polyline class="st1" points="107.9,136.1 107.9,65.9 127,65.9 127,126.7 129.8,126.7 132.6,141.8 		"/>
		<polyline class="st1" points="183.4,84.1 183.4,70.9 202.5,70.9 202.5,155.6 179.2,155.6 		"/>
		<line class="st1" x1="183.4" y1="144.6" x2="183.4" y2="99.6"/>
		<path class="st1" d="M147.2,65c-2.5,0.4-4.9,1-7.3,1.9v12.9"/>
		<path class="st1" d="M179.2,155.6v-29.3c0-2.3-0.3-3.7-1.7-5.3s-2.6-3-2.6-3s-1.4,1.6-2.6,3c-1.2,1.5-1.8,3.4-1.7,5.3v7.1"/>
		<path class="st1" d="M144.1,141.6v-15.3c0.2-1.9-0.4-3.8-1.7-5.3c-1.2-1.5-2.6-3-2.6-3s-1.4,1.5-2.6,3s-1.7,3-1.7,5.3v15.5h-8.3"
			/>
		<path class="st1" d="M168.7,91.6c5.7,0.9,10.9,3.7,14.8,7.9"/>
		<path class="st1" d="M168.7,78.4l4.9,2.1v3.3l4,1.5v-3.3l8.9,3.4v12.8c-4-6-10.7-9.6-17.9-9.7"/>
		<polyline class="st1" points="149.5,75.8 139.9,79.8 139.9,83.1 135.9,84.6 135.9,81.2 127,84.6 		"/>
		<line class="st1" x1="144.1" y1="141.6" x2="149.5" y2="141.6"/>
		<line class="st1" x1="186.5" y1="85.3" x2="186.5" y2="74.1"/>
		<path class="st1" d="M127,95.6c5.3-6.9,14.2-9.8,22.5-7.3"/>
		<path class="st1" d="M127,103.1c3.8-8.8,13.1-13.8,22.5-12.3"/>
		<polyline class="st1" points="127,104.5 134.3,104.5 134.3,107.7 142.2,107.7 142.2,103.1 168.7,103.1 		"/>
		<polyline class="st1" points="186.5,98.1 186.5,108.5 178.4,106.2 178.4,109.7 172.7,108.2 172.7,104.7 168.7,103.1 		"/>
		<path class="st1" d="M86,69.1h43.6V55.3c-3.4-1.3-7-2.1-10.6-2.3v2.4h-3.1V53c-3.6,0.2-7.2,0.9-10.6,2.2l2.5,10.6"/>
		<path class="st1" d="M186.5,74.1H205V60.3c-3.3-1.3-6.7-2-10.2-2.2v2.4h-3.1V58c-3.7,0.1-7.4,0.9-10.9,2.2v10.6h2.6"/>
		<path class="st1" d="M161.1,50v2.4h-3.1V50c-3.7,0.1-7.4,0.9-10.9,2.2v13.8h21.5v-3.2h2.7V52.2C168.1,51,164.6,50.2,161.1,50z"/>
		<path class="st1" d="M243.9,159.2c-6.5,2.1-13.4,2.5-20.2,1.3"/>
		<path class="st1" d="M202.5,85.6c7.7-7.4,18-11.5,28.8-11.5c23.4,0,42.4,19.5,42.4,43.5c0.1,18.9-11.9,35.6-29.8,41.6"/>
		<path class="st1" d="M34.6,127.2c-8-19.7-0.5-41.5,19.1-52.3c10.1-5.6,20.9-6,32.2-5.8"/>
		<path class="st1" d="M273.8,119.4c25.3-17.4,59.9-11.1,77.3,14.2s11.1,59.9-14.2,77.3c-9.3,6.4-20.3,9.8-31.6,9.8
			c-1.9,0-3.7-0.1-5.6-0.3"/>
		<polyline class="st1" points="249.6,78.6 243.7,130.7 231.4,118.5 243.7,135.3 243.7,159.2 		"/>
		<line class="st1" x1="249.6" y1="165.2" x2="248.5" y2="144.9"/>
		<polyline class="st1" points="299.7,220.5 299.7,180.1 305.5,159.8 298.9,173.4 295.9,149.8 295.9,212.9 250,212.9 		"/>
		<path class="st1" d="M354.8,190.2c0,0,48.1-5.9,74.7,31.7"/>
		<polyline class="st1" points="464.4,288.6 473.3,296.7 483.4,299.8 488.3,308 495.3,327.2 358.4,327.2 		"/>
		<line class="st1" x1="397.4" y1="284.6" x2="464.3" y2="288.6"/>
		<path class="st1" d="M420,257.7l30.8-11.8l12.6,1.6c0,0-0.5-10.6-8.8-16.3s-25.1-9.3-25.1-9.3l-5.2,16.7l1.6,4.5L420,257.7"/>
		<path class="st1" d="M274.5,291.9c4.4-21.5,25.4-35.2,46.9-30.8c21.5,4.4,35.2,25.4,30.8,46.9c-2.1,10.3-8.2,19.3-17,25.1"/>
		<path class="st1" d="M211.6,293.5c9.6-17.6,31.6-24.2,49.3-14.6c14.5,7.9,21.9,24.5,18,40.5"/>
		<polyline class="st1" points="38.3,234.8 26.5,259.2 19.3,335.3 162.9,335.3 162.3,314.7 198.4,321.9 193.2,331.8 138.3,331.8 
			136.6,327.2 150,288 160.4,279.5 169.4,266.4 203.1,284.9 211.6,293.5 223.2,333 335.2,333 		"/>
		<line class="st1" x1="420" y1="257.7" x2="387.8" y2="257.7"/>
		<path class="st1" d="M248.5,144.9c-0.5,0-1.1,0-1.6,0c-1.1,0-2.1-0.1-3.2-0.1"/>
		<path class="st1" d="M243.7,144.8c-18.3-1.8-31.7-18-29.9-36.3c1.8-18.3,18-31.7,36.3-29.9c17,1.6,30.1,16,30,33.1
			c0,1.3-0.1,2.6-0.2,3.9"/>
		<polyline class="st1" points="127.9,155.2 135.8,158.4 141.6,182.9 147.9,166.3 147.9,146.2 		"/>
		<polyline class="st1" points="108.6,324.9 103,272.6 87.7,228 76.8,225.8 76.7,248.2 69.8,262.7 71.2,281.8 		"/>
		<polyline class="st1" points="58.8,335.3 66.2,304.5 63.5,284.6 57.3,268.9 61.8,240.3 38.3,234.8 		"/>
		<path class="st1" d="M76.8,225.8l-15,14.6c0,0,0.3-79.2,0-78.5s5.2,53.5,5.2,53.5"/>
		<line class="st1" x1="87.7" y1="228" x2="100.5" y2="235.4"/>
		<line class="st1" x1="112.7" y1="236.5" x2="100.5" y2="235.4"/>
		<line class="st1" x1="141.6" y1="182.9" x2="144.1" y2="200.9"/>
		<polyline class="st1" points="144.1,200.9 114.8,221.4 112.7,236.5 103,272.6 		"/>
		<line class="st1" x1="160.4" y1="279.5" x2="162.3" y2="314.7"/>
		<path class="st1" d="M100.4,136.1c-1.8,32-15.6,62.2-38.6,84.5"/>
		<path class="st1" d="M29,243.8c-5.6,2.7-11.3,5.1-17.2,6.9"/>
		<line class="st1" x1="38.3" y1="234.8" x2="57.3" y2="268.9"/>
		<path class="st1" d="M25.8,214.2c-22.3-19.9-24.2-54-4.3-76.2s54-24.2,76.2-4.3s24.2,54,4.3,76.2c-6.8,7.6-15.6,13.1-25.3,15.9"/>
		<line class="st1" x1="107.9" y1="136.1" x2="100.4" y2="136.1"/>
		<line class="st1" x1="148.2" y1="146.2" x2="177.7" y2="146.2"/>
		<path class="st1" d="M7.3,238.4c-11.6-14.1-29-22.3-47.3-22.3c-33.8,0-61.3,27.4-61.3,61.3l0,0c0,31.4,23.8,57.7,55,61l53-20.2
			l8-48.8L-9.9,163.5l29.4,80.2l17.4-80.1L29,243.8"/>
		<line class="st1" x1="112.7" y1="69.1" x2="112.7" y2="134.5"/>
		<line class="st1" x1="230.2" y1="206.2" x2="170.6" y2="225.2"/>
	</g>
</g>
</svg>
