<?xml version="1.0" encoding="utf-8"?>
<!-- Generator: Adobe Illustrator 21.0.0, SVG Export Plug-In . SVG Version: 6.00 Build 0)  -->
<svg version="1.1" id="_x31_226e8b4-b04d-4e74-869d-2e5023c20a76"
	 xmlns="http://www.w3.org/2000/svg" xmlns:xlink="http://www.w3.org/1999/xlink" x="0px" y="0px" viewBox="0 0 419.5 297.6"
	 style="enable-background:new 0 0 419.5 297.6;" xml:space="preserve">
<style type="text/css">
	.st0{clip-path:url(#SVGID_2_);}
	.st1{fill:none;stroke:#231F20;stroke-width:1.5;stroke-linecap:round;stroke-linejoin:round;}
</style>
<title>Illustrations</title>
<g>
	<defs>
		<rect id="SVGID_1_" width="419.5" height="297.6"/>
	</defs>
	<clipPath id="SVGID_2_">
		<use xlink:href="#SVGID_1_"  style="overflow:visible;"/>
	</clipPath>
	<g class="st0">
		<polyline class="st1" points="146.8,128.1 145.2,124.4 154.4,124.4 154.4,129.2 160.5,120.8 222.2,104.2 231.6,101.6 334.7,144.6 
			240.9,49.3 228.9,40.4 109.8,134.4 132,128.4 144.1,116.8 159.7,113.3 169.9,103.1 224,89.1 224.7,92.5 229.6,92.5 230.1,97.2 
			225.6,97 222.2,104.2 		"/>
		<line class="st1" x1="-5.9" y1="283.2" x2="117.8" y2="299.6"/>
		<path class="st1" d="M300.6,372.1L47.6,313.9l39.3-5.3l-46.4-9v-6c0,0,0.4-2.7,5-3.5"/>
		<path class="st1" d="M176.9,290.2c0.4-3.8,3.9-6.6,7.7-6.2c3.3,0.4,5.9,2.9,6.2,6.2v17.3l-13.9-1.4V290.2z"/>
		<path class="st1" d="M281.9,285.6c0.4-3.8-2.4-7.3-6.2-7.7c-3.8-0.4-7.3,2.4-7.7,6.2c-0.1,0.5-0.1,1,0,1.5v17.3l13.9-1.4V285.6z"
			/>
		<path class="st1" d="M318.4,282.9c0.4-3.8-2.4-7.3-6.2-7.7c-3.8-0.4-7.3,2.4-7.7,6.2c-0.1,0.5-0.1,1,0,1.5v17.3l13.9-1.4V282.9z"
			/>
		<path class="st1" d="M397.9,275.9c0-7.8-6.4-14.2-14.2-14.2s-14.2,6.4-14.2,14.2v32.4h28.4V275.9z"/>
		<path class="st1" d="M369.5,308.3h-8.4v-18.9h-6.4v-6.1h-8.4V270h16.9c-0.3-11.4,8.8-20.9,20.2-21.1c11.4-0.3,20.9,8.8,21.1,20.2
			c0,0.3,0,0.6,0,0.9h6.5v35h33.6v-10h-42.2v12.4h42.2v8.3"/>
		<path class="st1" d="M277.9,301.8v-11.6c0-3.9-3.2-7-7.1-6.9c-0.9,0-1.8,0.2-2.6,0.5"/>
		<polyline class="st1" points="165.7,322.5 165.7,314.5 160.9,314.5 160.9,308.8 165,308.8 165,304.6 155,302.8 155,277.9 
			163.3,277.9 163.3,267.6 154.4,267.6 154.4,258.5 161.7,258.5 161.7,264.4 176.9,264.4 176.9,270.9 169.3,270.9 169.3,279.6 
			173.9,279.6 173.9,295.4 190.6,295.4 		"/>
		<path class="st1" d="M334.7,144.6v4.1h-3.2v5.9l3.4,3.4V311l-81.5,20.4l7.9,1.6l-5.6,2.9v5.6l39.6,6.4l0.3-4.5l41,6.4v4.8
			l10.6-4.2v-3.5c0,0-3.9-2.2-7-0.6s-3.5,3.5-3.5,3.5"/>
		<polygon class="st1" points="205.8,202.8 188.8,205.8 188.8,151.1 205.8,148 		"/>
		<polyline class="st1" points="193.7,204.9 193.7,128.1 226.7,119.6 		"/>
		<line class="st1" x1="205.8" y1="186.6" x2="193.7" y2="188.5"/>
		<polygon class="st1" points="264.9,206.8 281.9,209.9 281.9,155.1 264.9,152.1 		"/>
		<line class="st1" x1="277" y1="154.3" x2="277" y2="209"/>
		<line class="st1" x1="264.9" y1="190.6" x2="277" y2="192.6"/>
		<polygon class="st1" points="303.5,209.8 318.4,212.5 318.4,164.4 303.5,161.7 		"/>
		<line class="st1" x1="311" y1="163.1" x2="311" y2="211.1"/>
		<polygon class="st1" points="174.2,209.2 157.1,212.2 157.1,157.5 174.2,154.5 		"/>
		<polyline class="st1" points="162.1,211.4 162.1,137.2 153.1,139.4 149.9,150.2 138.1,150.2 135.1,143.5 117.8,146.8 		"/>
		<line class="st1" x1="174.2" y1="193" x2="162.1" y2="194.9"/>
		<polygon class="st1" points="141.1,217.1 124.1,220.2 124.1,165.5 141.1,162.4 		"/>
		<polyline class="st1" points="129,164.6 129,258.5 132.6,258.5 132.6,298.2 125.6,298.2 125.6,307.5 138.1,307.5 138.1,316.9 		
			"/>
		<line class="st1" x1="141.1" y1="200.9" x2="129" y2="202.9"/>
		<polyline class="st1" points="137,132.6 140,143 145.4,142 147.1,132.1 151.3,133.4 147.1,146.4 142.8,146.4 141.1,132.6 
			137,132.6 142.8,128.1 146.8,128.1 151.3,133.4 		"/>
		<line class="st1" x1="311" y1="175.1" x2="303.5" y2="173.4"/>
		<line class="st1" x1="311" y1="196.8" x2="303.5" y2="195"/>
		<line class="st1" x1="311" y1="181.8" x2="303.5" y2="180.1"/>
		<polyline class="st1" points="109.8,134.4 109.8,140.5 114.5,140.5 117.8,146.8 117.8,312.8 226.7,334.9 226.7,314.9 236.1,314.9 
			236.2,305.2 218.4,305.2 218.4,297 228.3,297 228.3,290.7 220.7,290.7 220.7,282.4 237,282.4 237,276 229.2,276 229.2,273.7 
			235.5,273.7 235.5,263.1 226.7,263.1 226.7,119.6 231.6,101.6 		"/>
		<polygon class="st1" points="315.5,125.2 277,108.3 277,92.5 315.5,105.4 		"/>
		<polyline class="st1" points="228.9,40.4 228.2,85.5 263.5,98.3 269.6,106.4 261.1,103.6 262.7,107.8 270.6,110.7 277.6,120.8 		
			"/>
		<polyline class="st1" points="331.4,154.3 459.6,154.3 464.2,146.7 467.4,146.7 467.4,140.2 441.3,126.2 441.3,113.4 416.8,113.4 
			368.3,87.4 278.4,87.4 320,100.3 323.8,108.8 315.5,105.4 		"/>
		<polyline class="st1" points="459.6,154.3 459.6,311.2 334.8,311.2 		"/>
		<rect x="369.5" y="180.1" class="st1" width="26.5" height="42"/>
		<polyline class="st1" points="382.8,222.1 382.8,141.6 467.4,140.3 		"/>
		<line class="st1" x1="396.1" y1="207.8" x2="369.5" y2="207.8"/>
		<polyline class="st1" points="396.1,195 345.5,195 345.5,203.1 348.4,203.1 348.4,225 334.8,225 		"/>
		<rect x="344.6" y="122.1" class="st1" width="10.2" height="18.3"/>
		<polyline class="st1" points="337,87.4 333.8,116.4 337.9,116.4 336.9,122.1 344.6,122.1 		"/>
		<line class="st1" x1="228.9" y1="40.4" x2="228.9" y2="-1"/>
		<polyline class="st1" points="368.3,87.4 368.3,117.8 372.9,117.8 372.9,122.1 377,122.1 377,141.6 382.8,141.6 		"/>
		<line class="st1" x1="334.7" y1="148.8" x2="382.8" y2="148.8"/>
		<path class="st1" d="M86.8,308.6v-7.3c0,0,1.4-4.7,8.1-4.7"/>
		<polyline class="st1" points="404.4,270 388,270 388,311.2 		"/>
	</g>
</g>
</svg>
