<?xml version="1.0" encoding="utf-8"?>
<!-- Generator: Adobe Illustrator 21.0.0, SVG Export Plug-In . SVG Version: 6.00 Build 0)  -->
<svg version="1.1" id="_x36_9347172-39fb-4c31-a9ff-48a68f4b58cd"
	 xmlns="http://www.w3.org/2000/svg" xmlns:xlink="http://www.w3.org/1999/xlink" x="0px" y="0px" viewBox="0 0 419.5 297.6"
	 style="enable-background:new 0 0 419.5 297.6;" xml:space="preserve">
<style type="text/css">
	.st0{clip-path:url(#SVGID_2_);}
	.st1{fill:none;stroke:#231F20;stroke-width:1.5;stroke-linecap:round;stroke-linejoin:round;}
</style>
<title>Illustrations</title>
<g>
	<defs>
		<rect id="SVGID_1_" width="419.5" height="297.6"/>
	</defs>
	<clipPath id="SVGID_2_">
		<use xlink:href="#SVGID_1_"  style="overflow:visible;"/>
	</clipPath>
	<g class="st0">
		<rect x="184.4" y="173" class="st1" width="294.1" height="30.7"/>
		<polyline class="st1" points="54.2,131.1 211.4,131.1 211.4,106.6 54.2,106.6 54.2,124.9 		"/>
		<rect x="-2.6" y="131.1" class="st1" width="481.1" height="89.2"/>
		<line class="st1" x1="125.7" y1="159.3" x2="140.2" y2="159.3"/>
		<line class="st1" x1="93.9" y1="159.3" x2="117.7" y2="159.3"/>
		<line class="st1" x1="62.4" y1="159.3" x2="89.5" y2="159.3"/>
		<polyline class="st1" points="166.4,159.3 184.4,159.3 184.4,218.1 11.4,207.6 11.4,159.3 55.8,159.3 		"/>
		<polyline class="st1" points="54.2,122.1 -97.1,122.1 -97.1,214 -2.6,211.5 3.8,211.5 3.8,207.6 11.4,207.6 		"/>
		<line class="st1" x1="221.7" y1="173" x2="221.7" y2="203.6"/>
		<line class="st1" x1="264.5" y1="173" x2="264.5" y2="203.6"/>
		<line class="st1" x1="307.3" y1="173" x2="307.3" y2="203.6"/>
		<line class="st1" x1="350.1" y1="173" x2="350.1" y2="203.6"/>
		<line class="st1" x1="392.9" y1="173" x2="392.9" y2="203.6"/>
		<line class="st1" x1="184.4" y1="167.1" x2="478.5" y2="167.1"/>
		<polyline class="st1" points="15.9,131.1 15.9,124.9 478.5,124.9 478.5,131.1 		"/>
		<rect x="-15.7" y="190.9" class="st1" width="19.5" height="16.7"/>
		<polyline class="st1" points="22.8,208.3 22.8,170.6 79.7,170.6 79.7,211.8 		"/>
		<polyline class="st1" points="19.8,208.1 19.8,168.6 22.8,170.6 		"/>
		<polyline class="st1" points="89.5,159.3 89.5,168.1 106.1,168.1 106.1,178 79.7,178 		"/>
		<polyline class="st1" points="122.9,161.4 122.9,168.6 115.6,168.6 115.6,177.2 132.1,177.2 132.1,194.1 122.2,194.1 122.2,203.1 
			151,203.1 151,216.1 		"/>
		<polyline class="st1" points="79.7,194.1 106.1,194.1 106.1,202.7 98.5,202.7 98.5,212.9 		"/>
		<line class="st1" x1="19.8" y1="168.6" x2="19.8" y2="161.4"/>
		<rect x="184.4" y="203.6" class="st1" width="294.1" height="9.3"/>
		<rect x="184.4" y="212.9" class="st1" width="40.7" height="7.3"/>
		<rect x="260.8" y="212.9" class="st1" width="7.3" height="7.3"/>
		<rect x="303.6" y="212.9" class="st1" width="7.3" height="7.3"/>
		<rect x="346.4" y="212.9" class="st1" width="7.3" height="7.3"/>
		<rect x="389.2" y="212.9" class="st1" width="7.3" height="7.3"/>
		<path class="st1" d="M478.5,220.2l26.4,4.9v139.5c-12.5,0.4-25.1,0.6-37.7,0.6c-203.3,0-393-55.5-553.2-151.6"/>
		<path class="st1" d="M478.5,181.8l26.4,4.9v139.5c-12.5,0.4-25.1,0.6-37.7,0.6c-169.1,0-328.7-38.4-469.8-106.6"/>
		<rect x="393.5" y="146.9" class="st1" width="35.3" height="14.6"/>
		<line class="st1" x1="401.3" y1="146.9" x2="401.3" y2="161.4"/>
		<line class="st1" x1="410.5" y1="146.9" x2="410.5" y2="161.4"/>
		<line class="st1" x1="419.6" y1="146.9" x2="419.6" y2="161.4"/>
		<rect x="351.3" y="146.9" class="st1" width="35.3" height="14.6"/>
		<line class="st1" x1="359.1" y1="146.9" x2="359.1" y2="161.4"/>
		<line class="st1" x1="368.2" y1="146.9" x2="368.2" y2="161.4"/>
		<line class="st1" x1="377.4" y1="146.9" x2="377.4" y2="161.4"/>
		<rect x="309.1" y="146.9" class="st1" width="35.3" height="14.6"/>
		<line class="st1" x1="316.9" y1="146.9" x2="316.9" y2="161.4"/>
		<line class="st1" x1="326" y1="146.9" x2="326" y2="161.4"/>
		<line class="st1" x1="335.2" y1="146.9" x2="335.2" y2="161.4"/>
		<rect x="266.9" y="146.9" class="st1" width="35.3" height="14.6"/>
		<line class="st1" x1="274.6" y1="146.9" x2="274.6" y2="161.4"/>
		<line class="st1" x1="283.8" y1="146.9" x2="283.8" y2="161.4"/>
		<line class="st1" x1="293" y1="146.9" x2="293" y2="161.4"/>
		<rect x="224.7" y="146.9" class="st1" width="35.3" height="14.6"/>
		<line class="st1" x1="232.4" y1="146.9" x2="232.4" y2="161.4"/>
		<line class="st1" x1="241.6" y1="146.9" x2="241.6" y2="161.4"/>
		<line class="st1" x1="250.8" y1="146.9" x2="250.8" y2="161.4"/>
		<polyline class="st1" points="182.4,159.3 182.4,146.9 217.7,146.9 217.7,161.4 184.4,161.4 		"/>
		<line class="st1" x1="190.2" y1="146.9" x2="190.2" y2="161.4"/>
		<line class="st1" x1="199.4" y1="146.9" x2="199.4" y2="161.4"/>
		<line class="st1" x1="208.6" y1="146.9" x2="208.6" y2="161.4"/>
		<polyline class="st1" points="166.4,161.4 140.2,161.4 140.2,146.9 175.5,146.9 175.5,159.3 		"/>
		<line class="st1" x1="148" y1="146.9" x2="148" y2="161.4"/>
		<line class="st1" x1="157.2" y1="146.9" x2="157.2" y2="161.4"/>
		<line class="st1" x1="166.4" y1="146.9" x2="166.4" y2="161.4"/>
		<polyline class="st1" points="62.4,159.3 62.4,146.9 86.7,146.9 86.7,161.4 55.8,161.4 		"/>
		<line class="st1" x1="70.1" y1="146.9" x2="70.1" y2="161.4"/>
		<line class="st1" x1="79.3" y1="146.9" x2="79.3" y2="161.4"/>
		<polyline class="st1" points="39.2,146.9 55.8,146.9 55.8,161.4 		"/>
		<polyline class="st1" points="31.5,161.4 31.5,146.9 39.2,146.9 		"/>
		<line class="st1" x1="39.2" y1="146.9" x2="39.2" y2="159.3"/>
		<line class="st1" x1="48.4" y1="146.9" x2="48.4" y2="159"/>
		<polyline class="st1" points="93.9,159.3 93.9,146.9 133.7,146.9 133.7,159.3 		"/>
		<line class="st1" x1="125.7" y1="161.4" x2="117.7" y2="161.4"/>
		<line class="st1" x1="101.8" y1="146.9" x2="101.8" y2="159.3"/>
		<line class="st1" x1="117.7" y1="146.9" x2="117.7" y2="161.4"/>
		<line class="st1" x1="109.8" y1="146.9" x2="109.8" y2="159.3"/>
		<line class="st1" x1="125.7" y1="146.9" x2="125.7" y2="161.4"/>
		<path class="st1" d="M209.6,173c-3.9,4.2-10.5,4.5-14.7,0.7c-0.2-0.2-0.5-0.5-0.7-0.7"/>
		<path class="st1" d="M250,173c-3.9,4.2-10.5,4.5-14.7,0.7c-0.2-0.2-0.5-0.5-0.7-0.7"/>
		<path class="st1" d="M292.2,173c-3.9,4.2-10.5,4.5-14.7,0.7c-0.2-0.2-0.5-0.5-0.7-0.7"/>
		<path class="st1" d="M335.2,173c-3.9,4.2-10.5,4.5-14.7,0.7c-0.2-0.2-0.5-0.5-0.7-0.7"/>
		<path class="st1" d="M378.9,173c-3.9,4.3-10.5,4.6-14.7,0.7c-0.3-0.2-0.5-0.5-0.7-0.7"/>
		<line class="st1" x1="209.5" y1="173" x2="210.8" y2="203.6"/>
		<line class="st1" x1="189.4" y1="167.1" x2="190.2" y2="203.6"/>
		<line class="st1" x1="231.1" y1="173" x2="231.7" y2="203.6"/>
		<line class="st1" x1="257.6" y1="173" x2="257.6" y2="203.6"/>
		<line class="st1" x1="270.8" y1="173" x2="270.7" y2="203.6"/>
		<line class="st1" x1="296.1" y1="173" x2="295.5" y2="203.6"/>
		<line class="st1" x1="316.9" y1="173" x2="316.9" y2="203.6"/>
		<line class="st1" x1="341.6" y1="173" x2="342.2" y2="203.6"/>
		<line class="st1" x1="361.1" y1="173" x2="361.7" y2="203.6"/>
		<line class="st1" x1="383.5" y1="173" x2="383.9" y2="203.6"/>
		<line class="st1" x1="396.6" y1="173" x2="396.6" y2="203.6"/>
		<line class="st1" x1="407" y1="173" x2="405.5" y2="203.6"/>
		<line class="st1" x1="415.6" y1="173" x2="415.9" y2="203.6"/>
		<rect x="142.9" y="177.2" class="st1" width="30.4" height="17"/>
		<line class="st1" x1="19.8" y1="161.4" x2="31.5" y2="161.4"/>
	</g>
</g>
</svg>
