<?xml version="1.0" encoding="utf-8"?>
<!-- Generator: Adobe Illustrator 21.0.0, SVG Export Plug-In . SVG Version: 6.00 Build 0)  -->
<svg version="1.1" id="_x35_adfe2f6-0f41-4921-9a0c-293ecc9d0d3b"
	 xmlns="http://www.w3.org/2000/svg" xmlns:xlink="http://www.w3.org/1999/xlink" x="0px" y="0px" viewBox="0 0 419.5 297.6"
	 style="enable-background:new 0 0 419.5 297.6;" xml:space="preserve">
<style type="text/css">
	.st0{clip-path:url(#SVGID_2_);}
	.st1{fill:none;stroke:#231F20;stroke-width:1.5;stroke-linecap:round;stroke-linejoin:round;}
	.st2{clip-path:url(#SVGID_4_);}
</style>
<title>Illustrations</title>
<g>
	<defs>
		<rect id="SVGID_1_" width="419.5" height="297.6"/>
	</defs>
	<clipPath id="SVGID_2_">
		<use xlink:href="#SVGID_1_"  style="overflow:visible;"/>
	</clipPath>
	<g class="st0">
		<path class="st1" d="M188,174.7c-0.1-2.2,1.6-4.2,3.9-4.3s4.2,1.6,4.3,3.9c0,0.1,0,0.3,0,0.4v11.7l-8.1,0.8V174.7z"/>
		<path class="st1" d="M186.4,140.8c-0.1-3.1,2.3-5.8,5.4-5.9s5.8,2.3,5.9,5.4c0,0.2,0,0.3,0,0.5v20l-11.3,1.1V140.8z"/>
		<path class="st1" d="M226.5,140.8c-0.1-3.1-2.8-5.5-5.9-5.4c-2.9,0.1-5.3,2.5-5.4,5.4v20l11.3,1.1V140.8z"/>
		<path class="st1" d="M219.7,135.3c2.6,0.5,4.5,2.9,4.5,5.5v15.3l-9-1"/>
		<path class="st1" d="M195.4,172.4H195c-2.2,0-4.1,1.8-4.1,4.1v0v17.4"/>
		<path class="st1" d="M224.9,174.7c0.1-2.2-1.6-4.2-3.9-4.3s-4.2,1.6-4.3,3.9c0,0.1,0,0.3,0,0.4v11.7l8.1,0.8V174.7z"/>
		<path class="st1" d="M217.6,172.4h0.4c2.2,0,4.1,1.8,4.1,4.1v0v21.4h-18.5"/>
		<path class="st1" d="M244.8,176.7c0-1.2-0.9-2.1-2.1-2.1c-1.2,0-2.1,0.9-2.1,2.1l0,0v11.5l4.2,2.9V176.7z"/>
		<path class="st1" d="M245.5,143c0-1.6-1.3-2.8-2.8-2.8c-1.6,0-2.8,1.3-2.8,2.8v20.4l5.7,3V143z"/>
		<polyline class="st1" points="207.7,269.8 210.1,267.9 211.8,267.9 213.6,270.1 		"/>
		<polyline class="st1" points="213.6,270.1 211.9,275.5 210.1,275.5 		"/>
		<line class="st1" x1="207.7" y1="269.8" x2="210.1" y2="275.5"/>
		<polyline class="st1" points="230,268.6 232.4,266.8 234.1,266.8 236,268.9 		"/>
		<polyline class="st1" points="236,268.9 234.2,274.3 232.4,274.3 		"/>
		<line class="st1" x1="230" y1="268.6" x2="232.4" y2="274.3"/>
		<polyline class="st1" points="190.9,193.8 190.9,197.8 185.5,197.8 181.8,202.6 203.5,197.8 203.5,123.1 200.9,123.1 200.9,118.9 
			178.3,124.3 172.5,134.7 176.5,138.5 176.5,205.6 172.5,209.2 172.5,291.4 125,271.5 125,256.1 122.7,256.1 122.7,254.2 
			159.3,243.9 163.1,246 135.4,255.7 163.1,256.3 168.1,261.2 172.5,261.2 		"/>
		<rect x="215.4" y="272.9" class="st1" width="10.1" height="14.1"/>
		<polyline class="st1" points="215.4,272.9 215.4,270.9 213.6,270.1 		"/>
		<line class="st1" x1="225.5" y1="272.9" x2="231.3" y2="272.9"/>
		<polyline class="st1" points="181.8,202.6 181.8,294.6 189,294.6 		"/>
		<path class="st1" d="M176.5,178.5l4.7-2.4v-12.2l-2,0.9v-20.2l2.7-2v-14.1h-3.5v-4.2l4-6.9v-3.2c0,0-4.1-0.7-2.4-4.9
			c0,0-8.1-2-4.6-12.3l6.4-11.2c0,0,2.5-5.9,7.8-6.9l21.1-83.4l23.6,83.8l11.2,10.4c2.6,2,4.2,5,4.3,8.3c0,7.7-5.4,9.5-5.4,9.5
			c0.7,1.6,0,3.5-1.5,4.4v3.3l8.4,16.9"/>
		<polyline class="st1" points="181.8,133.2 191.2,130.9 191.2,161 		"/>
		<polyline class="st1" points="248.1,139.4 236.8,133.2 203.5,129.1 194.3,130.6 194.3,125.2 181.8,128.5 176.5,138.5 		"/>
		<line class="st1" x1="203.5" y1="123.1" x2="236.8" y2="127.8"/>
		<line class="st1" x1="219.7" y1="135.3" x2="219.7" y2="161.2"/>
		<line class="st1" x1="163.1" y1="256.3" x2="172.5" y2="251.3"/>
		<line class="st1" x1="163.1" y1="246" x2="172.5" y2="246"/>
		<polyline class="st1" points="125,256.1 129.6,256.9 129.6,273.4 		"/>
		<line class="st1" x1="222.3" y1="272.9" x2="222.3" y2="287"/>
		<line class="st1" x1="199.4" y1="291.4" x2="237" y2="302.9"/>
		<polyline class="st1" points="242.9,189.8 242.9,194.4 248.1,197.8 		"/>
		<line class="st1" x1="242.9" y1="140.1" x2="242.9" y2="174.6"/>
		<polyline class="st1" points="125,271.5 119.8,271.5 143.9,288.9 171.4,295 366.3,344.1 		"/>
		<polyline class="st1" points="242.9,111.7 233.8,104.2 233.8,108.8 239.4,123.7 200.9,118.9 202.4,112.8 214.4,114.2 214.4,110.8 
			203.5,109.2 203.5,98.7 		"/>
		<path class="st1" d="M189.6,78.7l14.4-4.2c-2.9,6.4-3.1,13.6-0.5,20.1v4.1l30.2,5.4"/>
		<circle class="st1" cx="210.7" cy="2" r="9.2"/>
		<polyline class="st1" points="210.7,11.1 206.4,71.6 204,71.6 204,74.5 234.3,79.1 228,74.5 213.4,11.1 		"/>
		<polyline class="st1" points="204,71.6 193.8,74.8 208.4,10.9 		"/>
		<polyline class="st1" points="244.4,107.2 235.4,100.4 203.5,94.7 		"/>
		<path class="st1" d="M181.8,85.7c0,0-1.8,8.2,3.5,13.8c0,0-1.2,3.8,1.1,4.7l-4.1,10"/>
		<line class="st1" x1="202.4" y1="112.8" x2="182.3" y2="117.4"/>
		<polyline class="st1" points="233.8,108.8 224.2,107.2 224.2,110.8 214.4,109 214.4,110.8 		"/>
		<path class="st1" d="M249.2,102l-10.8-8.6c-0.2,2.6-1.2,5-2.9,7"/>
		<line class="st1" x1="238.4" y1="93.3" x2="201.9" y2="87.7"/>
		<line class="st1" x1="201.8" y1="84.2" x2="181.5" y2="90.5"/>
		<line class="st1" x1="181.8" y1="85.7" x2="202.4" y2="79.1"/>
		<polyline class="st1" points="172.5,264.8 143.8,261.3 143.8,279.4 		"/>
		<polyline class="st1" points="256.1,243.8 298.7,256.8 298.7,261.3 353.9,261.3 353.9,254.9 423.6,254.9 423.6,236.3 348.2,235 
			306.9,254.9 314,254.9 314,261.3 		"/>
		<polyline class="st1" points="271.9,239.2 298.4,239.2 298.4,241.7 306.9,246 263.2,246 		"/>
		<rect x="278.8" y="225.3" class="st1" width="9.7" height="13.9"/>
		<line class="st1" x1="256.1" y1="232.9" x2="278.8" y2="232.9"/>
		<line class="st1" x1="271.9" y1="239.2" x2="260.6" y2="245.2"/>
		<polyline class="st1" points="306.9,246 311.2,246 311.2,235.4 319,235.4 319,233.8 322.7,233.8 322.7,237.8 332.5,237.8 
			332.5,242.2 		"/>
		<rect x="290.6" y="249.5" class="st1" width="3.7" height="8.1"/>
		<polyline class="st1" points="296.5,256.1 296.5,249.5 300.2,249.5 300.2,257.6 298.7,257.6 		"/>
		<line class="st1" x1="306.9" y1="254.9" x2="306.9" y2="246"/>
		<polyline class="st1" points="356.1,235.6 332.5,254.9 332.5,261.3 		"/>
		<polyline class="st1" points="269.3,232.9 269.3,240.7 273.1,246 		"/>
		<line class="st1" x1="275" y1="232.9" x2="275" y2="239.2"/>
		<polyline class="st1" points="89.2,269.1 93.4,347.4 108.2,347.4 92.9,276.7 		"/>
		<polyline class="st1" points="352.3,294.5 223.4,303.9 188.7,294.6 188.7,291.4 199.4,291.4 199.4,289 215.4,289 215.4,287 
			255.7,287 255.7,265.6 258.1,265.6 258.1,257.3 255.7,257.3 255.7,253.6 258.1,253.6 258.1,248 256.1,248 256.1,202.6 
			236.8,197.8 236.8,127.8 239.4,127 239.4,123.7 251.3,131.9 251.3,133.5 248.1,135.3 248.1,197.8 256.1,202.6 		"/>
		<polyline class="st1" points="354.5,281.2 337.8,287.6 419.5,301.1 		"/>
		<polyline class="st1" points="255.7,287 289.8,289.6 289.8,286.1 255.7,284.2 		"/>
		<polyline class="st1" points="289.8,289.6 328.2,289.6 352.3,294.5 		"/>
		<polyline class="st1" points="95.7,287 125,290.7 96.8,292.5 		"/>
		<line class="st1" x1="99.1" y1="303.9" x2="176.3" y2="296.3"/>
		<line class="st1" x1="149.7" y1="262" x2="149.7" y2="281.6"/>
		<line class="st1" x1="167" y1="264.1" x2="167" y2="288.9"/>
		<polyline class="st1" points="298.7,281.2 298.7,275.7 423.6,275.7 423.6,281.2 255.7,281.2 		"/>
		<polyline class="st1" points="298.4,241.7 278.8,241.7 282.4,246 		"/>
		<path class="st1" d="M89.2,269.1c-7.5,1.5-15.2,1.3-22.6-0.5"/>
		<path class="st1" d="M65.4,168.3c27.6-7.6,56.1,8.6,63.7,36.2c7.6,27.6-8.6,56.1-36.2,63.7v24.3h-9.3l2.7-22.4"/>
		<path class="st1" d="M56.9,261.9c-3.7,2.7-7.6,4.9-11.8,6.7"/>
		<path class="st1" d="M-0.9,264.8c-29.6-13.9-42.4-49.2-28.5-78.9s49.2-42.4,78.9-28.5s42.4,49.2,28.5,78.9
			c-2.8,5.9-6.5,11.3-11.1,16"/>
		<rect x="43.4" y="292.5" class="st1" width="20.5" height="16.5"/>
		<polygon class="st1" points="63.9,309 75.1,296.3 75.1,278 63.9,292.5 		"/>
		<polygon class="st1" points="63.9,287 75.1,274.3 75.1,262.6 63.9,270.5 		"/>
		<rect x="55.4" y="252.4" class="st1" width="10.1" height="3.7"/>
		<rect x="56.9" y="256.1" class="st1" width="6.9" height="36.4"/>
		<polyline class="st1" points="65.4,252.4 76.2,251.8 76.2,254.3 65.4,256.1 		"/>
		<line class="st1" x1="75.1" y1="254.5" x2="75.1" y2="262.6"/>
		<line class="st1" x1="70.4" y1="255.3" x2="70.4" y2="279.6"/>
		<circle class="st1" cx="25.9" cy="283" r="23.6"/>
		<path class="st1" d="M129.6,229.9c0.8-0.1,9.9-2.7,9.9-2.7l15,5.8h14.1l-17.3-5.8h-11.8"/>
		<rect x="118.5" y="233" class="st1" width="36" height="7.9"/>
		<polyline class="st1" points="116.7,253.8 116.7,265.3 125,265.3 		"/>
		<line class="st1" x1="168.7" y1="233" x2="168.7" y2="246"/>
		<line class="st1" x1="154.5" y1="240.9" x2="154.5" y2="245.2"/>
		<polyline class="st1" points="3.9,274.3 -16.4,233 3.9,262.6 3.9,244.1 8,267.5 		"/>
		
			<ellipse transform="matrix(0.8845 -0.4665 0.4665 0.8845 -25.6862 61.0007)" class="st1" cx="110.4" cy="82.4" rx="20.1" ry="20.1"/>
		<path class="st1" d="M135.1,99.6c-5.1-9.6-17-13.4-26.6-8.3c-0.7,0.3-1.3,0.7-1.9,1.1c-9-14.3-28-18.6-42.3-9.6
			c-1.8,1.2-3.5,2.5-5.1,4C47,80.5,32,85.1,25.6,97.3s-1.8,27.1,10.3,33.5c7.3,3.8,15.9,3.8,23.2,0l0,0
			c12.1,11.9,31.5,11.6,43.4-0.5c1.5-1.6,2.9-3.3,4-5.1c9,6.1,21.3,3.7,27.4-5.3C138.1,113.9,138.5,106.1,135.1,99.6L135.1,99.6z"/>
		<path class="st1" d="M372.2,164.2c-4.3-8.2-14.4-11.3-22.5-7c-0.6,0.3-1.1,0.6-1.6,1c-7.7-12.1-23.7-15.8-35.9-8.1
			c-1.5,1-3,2.1-4.3,3.4c-10.3-5.4-23-1.5-28.4,8.8c-5.4,10.3-1.5,23,8.8,28.4c6.1,3.2,13.5,3.2,19.6,0l0,0
			c10.3,10,26.7,9.8,36.8-0.4c1.3-1.3,2.4-2.7,3.4-4.3c7.7,5.2,18.1,3.2,23.2-4.5C374.7,176.3,375.1,169.7,372.2,164.2L372.2,164.2z
			"/>
		<path class="st1" d="M327.7,164.5c3.4,6.5,11.4,9,18,5.6c0.5-0.2,0.9-0.5,1.3-0.8c6.1,9.7,18.9,12.6,28.6,6.5
			c1.2-0.8,2.4-1.7,3.4-2.7c8.2,4.3,18.3,1.2,22.6-7s1.2-18.3-7-22.6c-4.9-2.6-10.8-2.6-15.6,0l0,0c-8.2-8-21.3-7.9-29.3,0.3
			c-1,1-1.9,2.2-2.7,3.4c-6.1-4.1-14.4-2.5-18.5,3.6C325.7,154.9,325.4,160.1,327.7,164.5L327.7,164.5z"/>
	</g>
</g>
<g>
	<defs>
		<rect id="SVGID_3_" x="439.9" width="419.5" height="297.6"/>
	</defs>
	<clipPath id="SVGID_4_">
		<use xlink:href="#SVGID_3_"  style="overflow:visible;"/>
	</clipPath>
	<g class="st2">
		<polygon class="st1" points="405.9,284.9 532.8,393.3 532.8,448.7 450.6,424.6 450.6,353.8 405.4,325 		"/>
	</g>
</g>
</svg>
