<svg id="4d6565f1-b018-4caa-b53a-f3abbbee4f94" data-name="Layer 1" xmlns="http://www.w3.org/2000/svg" xmlns:xlink="http://www.w3.org/1999/xlink" viewBox="0 0 419.53 297.64"><defs><clipPath id="97eff46b-fafb-472a-a23c-df72872f9b35"><rect width="419.53" height="297.64" style="fill:none"/></clipPath></defs><title>Illustrations</title><g style="clip-path:url(#97eff46b-fafb-472a-a23c-df72872f9b35)"><polyline points="201.28 125.41 201.28 94.52 197.97 86.05 197.97 79.45 229.39 78.15 229.39 85.23 226.05 85.23 229.89 94.52 229.89 112.97 235.05 112.97" style="fill:none;stroke:#231f20;stroke-linecap:round;stroke-linejoin:round;stroke-width:1.5px"/><polyline points="114.97 374.03 138.7 365.19 138.7 265.54 134.86 265.54 134.86 262.85 137.48 257.54 137.48 250.82 132.94 250.82 131.55 246.99 133.47 238.97 192.98 227.98 201.28 227.98 201.28 176.55 197.97 174.11 197.97 170.28 201.28 170.28" style="fill:none;stroke:#231f20;stroke-linecap:round;stroke-linejoin:round;stroke-width:1.5px"/><polyline points="234.73 358.69 192.98 358.69 216.36 373.24 234.73 358.69 234.73 255.79 239.07 255.79 239.07 247.48 234.4 247.48 234.4 234.26 239.07 234.26 239.07 227.98 229.39 227.98 229.39 176.55 233.54 172.67 233.54 170.28" style="fill:none;stroke:#231f20;stroke-linecap:round;stroke-linejoin:round;stroke-width:1.5px"/><path d="M161.11,124.78a14.82,14.82,0,1,1,29.64,0V165l-29.64,7.29Z" style="fill:none;stroke:#231f20;stroke-linecap:round;stroke-linejoin:round;stroke-width:1.5px"/><path d="M166.34,163.86v-37a14.83,14.83,0,0,1,17.12-14.64" style="fill:none;stroke:#231f20;stroke-linecap:round;stroke-linejoin:round;stroke-width:1.5px"/><line x1="190.74" y1="158.32" x2="166.34" y2="163.86" style="fill:none;stroke:#231f20;stroke-linecap:round;stroke-linejoin:round;stroke-width:1.5px"/><line x1="166.34" y1="133.25" x2="201.28" y2="125.41" style="fill:none;stroke:#231f20;stroke-linecap:round;stroke-linejoin:round;stroke-width:1.5px"/><path d="M229.89,163.27l5.16.5,11.82,2.57V114.09a5.91,5.91,0,0,0-11.7-1.19" style="fill:none;stroke:#231f20;stroke-linecap:round;stroke-linejoin:round;stroke-width:1.5px"/><path d="M240.16,158.33v-41.8A3.56,3.56,0,0,0,236.6,113c-.19,0-1.37,0-1.55,0" style="fill:none;stroke:#231f20;stroke-linecap:round;stroke-linejoin:round;stroke-width:1.5px"/><line x1="240.16" y1="158.34" x2="246.32" y2="159.83" style="fill:none;stroke:#231f20;stroke-linecap:round;stroke-linejoin:round;stroke-width:1.5px"/><line x1="192.92" y1="227.98" x2="192.92" y2="358.69" style="fill:none;stroke:#231f20;stroke-linecap:round;stroke-linejoin:round;stroke-width:1.5px"/><polyline points="132.94 250.82 135.56 244.2 192.92 234.26 234.06 234.26" style="fill:none;stroke:#231f20;stroke-linecap:round;stroke-linejoin:round;stroke-width:1.5px"/><polyline points="149.51 101.76 146.02 98.8 149.51 92.17 197.97 79.45 197.97 86.05" style="fill:none;stroke:#231f20;stroke-linecap:round;stroke-linejoin:round;stroke-width:1.5px"/><path d="M188.53,203.28c-.44,9.53-6.92,16.82-14.49,16.27s-13.35-8.72-12.91-18.26,6.92-16.82,14.49-16.27S189,193.74,188.53,203.28Z" style="fill:none;stroke:#231f20;stroke-linecap:round;stroke-linejoin:round;stroke-width:1.5px"/><polyline points="234.4 247.48 192.92 247.48 137.48 257.54" style="fill:none;stroke:#231f20;stroke-linecap:round;stroke-linejoin:round;stroke-width:1.5px"/><path d="M214.61,304.38V280.09h4.75v-9.94a4.75,4.75,0,1,0-9.5,0v9.94H192.92" style="fill:none;stroke:#231f20;stroke-linecap:round;stroke-linejoin:round;stroke-width:1.5px"/><path d="M174.74,338V317.74a3.73,3.73,0,0,1,3.73-3.73V258.49" style="fill:none;stroke:#231f20;stroke-linecap:round;stroke-linejoin:round;stroke-width:1.5px"/><polyline points="146.02 236.65 146.02 224.58 148.86 224.58 148.86 188.61 144.69 187.3 144.69 181.23 156.68 181.23" style="fill:none;stroke:#231f20;stroke-linecap:round;stroke-linejoin:round;stroke-width:1.5px"/><polyline points="149.51 101.76 153.29 107.53 148.34 107.53 148.34 112.05 153.29 114.14 149.14 181.23" style="fill:none;stroke:#231f20;stroke-linecap:round;stroke-linejoin:round;stroke-width:1.5px"/><polyline points="254.33 172.67 250.18 105.58 255.13 103.49 255.13 98.98 250.18 98.98 253.96 93.21 258.1 87.53 229.39 78.15" style="fill:none;stroke:#231f20;stroke-linecap:round;stroke-linejoin:round;stroke-width:1.5px"/><polyline points="153.29 107.53 156.68 105.93 201.28 94.52 229.39 94.52" style="fill:none;stroke:#231f20;stroke-linecap:round;stroke-linejoin:round;stroke-width:1.5px"/><line x1="197.97" y1="170.28" x2="156.51" y2="181.23" style="fill:none;stroke:#231f20;stroke-linecap:round;stroke-linejoin:round;stroke-width:1.5px"/><line x1="201.28" y1="101.03" x2="229.39" y2="101.03" style="fill:none;stroke:#231f20;stroke-linecap:round;stroke-linejoin:round;stroke-width:1.5px"/><polyline points="224.65 101.03 218.22 101.03 217.24 163.27 213.57 163.27" style="fill:none;stroke:#231f20;stroke-linecap:round;stroke-linejoin:round;stroke-width:1.5px"/><polyline points="206.16 101.03 212.59 101.03 213.57 163.27" style="fill:none;stroke:#231f20;stroke-linecap:round;stroke-linejoin:round;stroke-width:1.5px"/><polygon points="201.28 163.27 229.89 163.27 233.54 170.28 201.28 170.28 201.28 163.27" style="fill:none;stroke:#231f20;stroke-linecap:round;stroke-linejoin:round;stroke-width:1.5px"/><polyline points="229.39 227.98 208.56 218.88 208.56 234.26" style="fill:none;stroke:#231f20;stroke-linecap:round;stroke-linejoin:round;stroke-width:1.5px"/><polyline points="229.39 176.55 208.56 176.55 208.56 211.36 229.1 211.36" style="fill:none;stroke:#231f20;stroke-linecap:round;stroke-linejoin:round;stroke-width:1.5px"/><line x1="229.39" y1="94.52" x2="250.18" y2="98.98" style="fill:none;stroke:#231f20;stroke-linecap:round;stroke-linejoin:round;stroke-width:1.5px"/><polyline points="260.38 440.7 114.97 440.7 114.97 324.23 -17.21 -18.25 -17.21 193.43 16.53 234.26 16.53 120.36 43.8 184.99 43.8 280.09 106.65 390.32 106.65 462.42 -3.81 437.93 -3.81 575.66 117.08 494.77 117.08 449.02 260.38 449.02 260.38 465.19 237.45 465.19 237.45 498.01 219.36 498.01 219.36 458.73 163.87 458.73 163.87 498.01 124.22 498.01 35.8 575.66 427.59 575.66" style="fill:none;stroke:#231f20;stroke-linecap:round;stroke-linejoin:round;stroke-width:1.5px"/><polyline points="263.1 402.64 427.59 55.41 427.59 104.87 254.85 437.18 260.38 441.34 408.92 187.6 408.92 374.78 260.38 514.36" style="fill:none;stroke:#231f20;stroke-linecap:round;stroke-linejoin:round;stroke-width:1.5px"/><polyline points="233.54 170.28 258.1 174.07 258.1 179.29 254.96 181.23 254.96 219.57 265.09 221.97 265.09 232.26 272.2 234.26 270.62 239.78 262.94 245.77 262.94 252.51 265.4 254.98 265.4 260.05 263.1 260.67 263.1 328.98" style="fill:none;stroke:#231f20;stroke-linecap:round;stroke-linejoin:round;stroke-width:1.5px"/><line x1="239.07" y1="234.26" x2="270.62" y2="239.78" style="fill:none;stroke:#231f20;stroke-linecap:round;stroke-linejoin:round;stroke-width:1.5px"/><line x1="263.1" y1="260.66" x2="239.07" y2="255.79" style="fill:none;stroke:#231f20;stroke-linecap:round;stroke-linejoin:round;stroke-width:1.5px"/><polygon points="-34.02 284.94 92.87 393.31 92.87 448.68 10.69 424.64 10.69 353.76 -34.51 325 -34.02 284.94" style="fill:none;stroke:#231f20;stroke-linecap:round;stroke-linejoin:round;stroke-width:1.5px"/><polyline points="234.4 255.79 192.92 255.79 139.21 265.54" style="fill:none;stroke:#231f20;stroke-linecap:round;stroke-linejoin:round;stroke-width:1.5px"/><line x1="190.74" y1="158.32" x2="201.28" y2="163.27" style="fill:none;stroke:#231f20;stroke-linecap:round;stroke-linejoin:round;stroke-width:1.5px"/><path d="M157.13,89.41A45.61,45.61,0,0,1,248,84.24" style="fill:none;stroke:#231f20;stroke-linecap:round;stroke-linejoin:round;stroke-width:1.5px"/><rect x="195.86" y="26.69" width="13.74" height="31.62" style="fill:none;stroke:#231f20;stroke-linecap:round;stroke-linejoin:round;stroke-width:1.5px"/><line x1="202.73" y1="26.69" x2="202.73" y2="-20.9" style="fill:none;stroke:#231f20;stroke-linecap:round;stroke-linejoin:round;stroke-width:1.5px"/><line x1="174.83" y1="202.28" x2="174.83" y2="191.46" style="fill:none;stroke:#231f20;stroke-linecap:round;stroke-linejoin:round;stroke-width:1.5px"/><line x1="180.79" y1="200.56" x2="174.83" y2="202.28" style="fill:none;stroke:#231f20;stroke-linecap:round;stroke-linejoin:round;stroke-width:1.5px"/><polygon points="396.85 236.47 396.85 325.84 374.21 350.2 374.21 272.28 396.85 236.47" style="fill:none;stroke:#231f20;stroke-linecap:round;stroke-linejoin:round;stroke-width:1.5px"/><line x1="229.89" y1="163.27" x2="229.89" y2="112.97" style="fill:none;stroke:#231f20;stroke-linecap:round;stroke-linejoin:round;stroke-width:1.5px"/></g></svg>